%
M48
M72
T01C0.02000
T02C0.02756
T03C0.03200
T04C0.03543
T05C0.03600
T06C0.04000
T07C0.04400
T08C0.12800
T09C0.13000
%
T01
X34600Y49300
X73800Y137300
X73000Y154900
X90600Y176500
X97000Y187700
X83400Y211700
X116200Y222100
X202600Y216500
X216200Y202900
X242600Y219700
X246600Y211700
X253800Y220500
X277800Y206100
X292200Y203700
X286600Y222100
X286600Y178900
X232200Y174100
X229000Y142900
X157000Y122900
X270600Y81300
X293800Y71700
X285000Y49300
X267400Y49300
X254600Y36500
T02
X230500Y104300
X220894Y104300
X211500Y104300
T03
X211000Y134300
X201000Y134300
X191000Y134300
X181000Y134300
X171000Y134300
X161000Y134300
X151000Y134300
X146000Y114300
X136000Y114300
X156000Y114300
X166000Y114300
X166000Y84300
X156000Y84300
X146000Y84300
X136000Y84300
X101000Y74300
X91000Y74300
X81000Y74300
X71000Y74300
X61000Y74300
X51000Y74300
X41000Y74300
X31000Y74300
X21000Y74300
X116000Y149300
X116000Y159300
X151000Y164300
X161000Y164300
X171000Y164300
X181000Y164300
X191000Y164300
X201000Y164300
X211000Y164300
X221000Y164300
X231000Y164300
X246000Y169300
X246000Y179300
X246000Y189300
X246000Y199300
X276000Y199300
X276000Y189300
X276000Y179300
X276000Y169300
X256000Y144300
X256000Y134300
X231000Y134300
X221000Y134300
T04
X71000Y131800
X61000Y126800
X71000Y121800
X61000Y116800
X71000Y111800
X61000Y106800
X71000Y101800
X61000Y136800
X71000Y176800
X61000Y181800
X71000Y186800
X61000Y191800
X71000Y196800
X61000Y201800
X71000Y206800
X61000Y211800
T05
X101000Y234300
X101000Y244300
X111000Y244300
X121000Y244300
X121000Y234300
X111000Y234300
X131000Y234300
X131000Y244300
X141000Y244300
X141000Y234300
X151000Y234300
X151000Y244300
X161000Y244300
X171000Y244300
X171000Y234300
X161000Y234300
X181000Y234300
X181000Y244300
X191000Y244300
X191000Y234300
X201000Y234300
X201000Y244300
X211000Y244300
X211000Y234300
X221000Y234300
X231000Y234300
X231000Y244300
X221000Y244300
X241000Y244300
X241000Y234300
X251000Y234300
X251000Y244300
X261000Y244300
X261000Y234300
X271000Y234300
X281000Y234300
X281000Y244300
X271000Y244300
X291000Y244300
X291000Y234300
X136000Y204300
X126000Y204300
X126000Y189300
X136000Y189300
X281000Y64300
X291000Y64300
X291000Y54300
X291000Y44300
X281000Y44300
X281000Y54300
T06
X21000Y24300
X31000Y24300
X41000Y24300
X51000Y24300
X61000Y24300
X71000Y24300
X81000Y24300
X91000Y24300
X101000Y24300
X111000Y24300
X236000Y19300
X246000Y19300
X256000Y19300
X266000Y19300
X301000Y119300
X301000Y129300
X301000Y139300
X301000Y149300
X301000Y159300
X301000Y169300
X301000Y179300
X301000Y189300
X301000Y199300
X301000Y209300
T07
X166000Y49300
X166000Y39300
X166000Y29300
T08
X36000Y96800
X36000Y141800
X36000Y171800
X36000Y216800
T09
X225000Y39300
X288100Y21300
X288100Y87300
M30
