G75*
%MOIN*%
%OFA0B0*%
%FSLAX25Y25*%
%IPPOS*%
%LPD*%
%AMOC8*
5,1,8,0,0,1.08239X$1,22.5*
%
%ADD10C,0.00000*%
%ADD11C,0.00039*%
%ADD12C,0.05543*%
%ADD13C,0.05200*%
%ADD14C,0.05600*%
%ADD15OC8,0.05600*%
%ADD16C,0.06600*%
%ADD17C,0.04756*%
%ADD18R,0.05200X0.05200*%
%ADD19C,0.06000*%
%ADD20C,0.05600*%
%ADD21C,0.06600*%
%ADD22OC8,0.05200*%
%ADD23C,0.01000*%
%ADD24C,0.02800*%
%ADD25C,0.01600*%
D10*
X0012038Y0001800D02*
X0365739Y0001800D01*
X0365739Y0296761D01*
X0365739Y0296800D02*
X0012038Y0296800D01*
X0012038Y0296761D02*
X0012038Y0001800D01*
X0025638Y0159300D02*
X0025640Y0159460D01*
X0025646Y0159619D01*
X0025656Y0159778D01*
X0025670Y0159937D01*
X0025688Y0160096D01*
X0025709Y0160254D01*
X0025735Y0160411D01*
X0025765Y0160568D01*
X0025798Y0160724D01*
X0025836Y0160879D01*
X0025877Y0161033D01*
X0025922Y0161186D01*
X0025971Y0161338D01*
X0026024Y0161489D01*
X0026080Y0161638D01*
X0026141Y0161786D01*
X0026204Y0161932D01*
X0026272Y0162077D01*
X0026343Y0162220D01*
X0026417Y0162361D01*
X0026495Y0162500D01*
X0026577Y0162637D01*
X0026662Y0162772D01*
X0026750Y0162905D01*
X0026842Y0163036D01*
X0026936Y0163164D01*
X0027034Y0163290D01*
X0027135Y0163414D01*
X0027239Y0163535D01*
X0027346Y0163653D01*
X0027456Y0163769D01*
X0027569Y0163882D01*
X0027685Y0163992D01*
X0027803Y0164099D01*
X0027924Y0164203D01*
X0028048Y0164304D01*
X0028174Y0164402D01*
X0028302Y0164496D01*
X0028433Y0164588D01*
X0028566Y0164676D01*
X0028701Y0164761D01*
X0028838Y0164843D01*
X0028977Y0164921D01*
X0029118Y0164995D01*
X0029261Y0165066D01*
X0029406Y0165134D01*
X0029552Y0165197D01*
X0029700Y0165258D01*
X0029849Y0165314D01*
X0030000Y0165367D01*
X0030152Y0165416D01*
X0030305Y0165461D01*
X0030459Y0165502D01*
X0030614Y0165540D01*
X0030770Y0165573D01*
X0030927Y0165603D01*
X0031084Y0165629D01*
X0031242Y0165650D01*
X0031401Y0165668D01*
X0031560Y0165682D01*
X0031719Y0165692D01*
X0031878Y0165698D01*
X0032038Y0165700D01*
X0032198Y0165698D01*
X0032357Y0165692D01*
X0032516Y0165682D01*
X0032675Y0165668D01*
X0032834Y0165650D01*
X0032992Y0165629D01*
X0033149Y0165603D01*
X0033306Y0165573D01*
X0033462Y0165540D01*
X0033617Y0165502D01*
X0033771Y0165461D01*
X0033924Y0165416D01*
X0034076Y0165367D01*
X0034227Y0165314D01*
X0034376Y0165258D01*
X0034524Y0165197D01*
X0034670Y0165134D01*
X0034815Y0165066D01*
X0034958Y0164995D01*
X0035099Y0164921D01*
X0035238Y0164843D01*
X0035375Y0164761D01*
X0035510Y0164676D01*
X0035643Y0164588D01*
X0035774Y0164496D01*
X0035902Y0164402D01*
X0036028Y0164304D01*
X0036152Y0164203D01*
X0036273Y0164099D01*
X0036391Y0163992D01*
X0036507Y0163882D01*
X0036620Y0163769D01*
X0036730Y0163653D01*
X0036837Y0163535D01*
X0036941Y0163414D01*
X0037042Y0163290D01*
X0037140Y0163164D01*
X0037234Y0163036D01*
X0037326Y0162905D01*
X0037414Y0162772D01*
X0037499Y0162637D01*
X0037581Y0162500D01*
X0037659Y0162361D01*
X0037733Y0162220D01*
X0037804Y0162077D01*
X0037872Y0161932D01*
X0037935Y0161786D01*
X0037996Y0161638D01*
X0038052Y0161489D01*
X0038105Y0161338D01*
X0038154Y0161186D01*
X0038199Y0161033D01*
X0038240Y0160879D01*
X0038278Y0160724D01*
X0038311Y0160568D01*
X0038341Y0160411D01*
X0038367Y0160254D01*
X0038388Y0160096D01*
X0038406Y0159937D01*
X0038420Y0159778D01*
X0038430Y0159619D01*
X0038436Y0159460D01*
X0038438Y0159300D01*
X0038436Y0159140D01*
X0038430Y0158981D01*
X0038420Y0158822D01*
X0038406Y0158663D01*
X0038388Y0158504D01*
X0038367Y0158346D01*
X0038341Y0158189D01*
X0038311Y0158032D01*
X0038278Y0157876D01*
X0038240Y0157721D01*
X0038199Y0157567D01*
X0038154Y0157414D01*
X0038105Y0157262D01*
X0038052Y0157111D01*
X0037996Y0156962D01*
X0037935Y0156814D01*
X0037872Y0156668D01*
X0037804Y0156523D01*
X0037733Y0156380D01*
X0037659Y0156239D01*
X0037581Y0156100D01*
X0037499Y0155963D01*
X0037414Y0155828D01*
X0037326Y0155695D01*
X0037234Y0155564D01*
X0037140Y0155436D01*
X0037042Y0155310D01*
X0036941Y0155186D01*
X0036837Y0155065D01*
X0036730Y0154947D01*
X0036620Y0154831D01*
X0036507Y0154718D01*
X0036391Y0154608D01*
X0036273Y0154501D01*
X0036152Y0154397D01*
X0036028Y0154296D01*
X0035902Y0154198D01*
X0035774Y0154104D01*
X0035643Y0154012D01*
X0035510Y0153924D01*
X0035375Y0153839D01*
X0035238Y0153757D01*
X0035099Y0153679D01*
X0034958Y0153605D01*
X0034815Y0153534D01*
X0034670Y0153466D01*
X0034524Y0153403D01*
X0034376Y0153342D01*
X0034227Y0153286D01*
X0034076Y0153233D01*
X0033924Y0153184D01*
X0033771Y0153139D01*
X0033617Y0153098D01*
X0033462Y0153060D01*
X0033306Y0153027D01*
X0033149Y0152997D01*
X0032992Y0152971D01*
X0032834Y0152950D01*
X0032675Y0152932D01*
X0032516Y0152918D01*
X0032357Y0152908D01*
X0032198Y0152902D01*
X0032038Y0152900D01*
X0031878Y0152902D01*
X0031719Y0152908D01*
X0031560Y0152918D01*
X0031401Y0152932D01*
X0031242Y0152950D01*
X0031084Y0152971D01*
X0030927Y0152997D01*
X0030770Y0153027D01*
X0030614Y0153060D01*
X0030459Y0153098D01*
X0030305Y0153139D01*
X0030152Y0153184D01*
X0030000Y0153233D01*
X0029849Y0153286D01*
X0029700Y0153342D01*
X0029552Y0153403D01*
X0029406Y0153466D01*
X0029261Y0153534D01*
X0029118Y0153605D01*
X0028977Y0153679D01*
X0028838Y0153757D01*
X0028701Y0153839D01*
X0028566Y0153924D01*
X0028433Y0154012D01*
X0028302Y0154104D01*
X0028174Y0154198D01*
X0028048Y0154296D01*
X0027924Y0154397D01*
X0027803Y0154501D01*
X0027685Y0154608D01*
X0027569Y0154718D01*
X0027456Y0154831D01*
X0027346Y0154947D01*
X0027239Y0155065D01*
X0027135Y0155186D01*
X0027034Y0155310D01*
X0026936Y0155436D01*
X0026842Y0155564D01*
X0026750Y0155695D01*
X0026662Y0155828D01*
X0026577Y0155963D01*
X0026495Y0156100D01*
X0026417Y0156239D01*
X0026343Y0156380D01*
X0026272Y0156523D01*
X0026204Y0156668D01*
X0026141Y0156814D01*
X0026080Y0156962D01*
X0026024Y0157111D01*
X0025971Y0157262D01*
X0025922Y0157414D01*
X0025877Y0157567D01*
X0025836Y0157721D01*
X0025798Y0157876D01*
X0025765Y0158032D01*
X0025735Y0158189D01*
X0025709Y0158346D01*
X0025688Y0158504D01*
X0025670Y0158663D01*
X0025656Y0158822D01*
X0025646Y0158981D01*
X0025640Y0159140D01*
X0025638Y0159300D01*
X0025638Y0204300D02*
X0025640Y0204460D01*
X0025646Y0204619D01*
X0025656Y0204778D01*
X0025670Y0204937D01*
X0025688Y0205096D01*
X0025709Y0205254D01*
X0025735Y0205411D01*
X0025765Y0205568D01*
X0025798Y0205724D01*
X0025836Y0205879D01*
X0025877Y0206033D01*
X0025922Y0206186D01*
X0025971Y0206338D01*
X0026024Y0206489D01*
X0026080Y0206638D01*
X0026141Y0206786D01*
X0026204Y0206932D01*
X0026272Y0207077D01*
X0026343Y0207220D01*
X0026417Y0207361D01*
X0026495Y0207500D01*
X0026577Y0207637D01*
X0026662Y0207772D01*
X0026750Y0207905D01*
X0026842Y0208036D01*
X0026936Y0208164D01*
X0027034Y0208290D01*
X0027135Y0208414D01*
X0027239Y0208535D01*
X0027346Y0208653D01*
X0027456Y0208769D01*
X0027569Y0208882D01*
X0027685Y0208992D01*
X0027803Y0209099D01*
X0027924Y0209203D01*
X0028048Y0209304D01*
X0028174Y0209402D01*
X0028302Y0209496D01*
X0028433Y0209588D01*
X0028566Y0209676D01*
X0028701Y0209761D01*
X0028838Y0209843D01*
X0028977Y0209921D01*
X0029118Y0209995D01*
X0029261Y0210066D01*
X0029406Y0210134D01*
X0029552Y0210197D01*
X0029700Y0210258D01*
X0029849Y0210314D01*
X0030000Y0210367D01*
X0030152Y0210416D01*
X0030305Y0210461D01*
X0030459Y0210502D01*
X0030614Y0210540D01*
X0030770Y0210573D01*
X0030927Y0210603D01*
X0031084Y0210629D01*
X0031242Y0210650D01*
X0031401Y0210668D01*
X0031560Y0210682D01*
X0031719Y0210692D01*
X0031878Y0210698D01*
X0032038Y0210700D01*
X0032198Y0210698D01*
X0032357Y0210692D01*
X0032516Y0210682D01*
X0032675Y0210668D01*
X0032834Y0210650D01*
X0032992Y0210629D01*
X0033149Y0210603D01*
X0033306Y0210573D01*
X0033462Y0210540D01*
X0033617Y0210502D01*
X0033771Y0210461D01*
X0033924Y0210416D01*
X0034076Y0210367D01*
X0034227Y0210314D01*
X0034376Y0210258D01*
X0034524Y0210197D01*
X0034670Y0210134D01*
X0034815Y0210066D01*
X0034958Y0209995D01*
X0035099Y0209921D01*
X0035238Y0209843D01*
X0035375Y0209761D01*
X0035510Y0209676D01*
X0035643Y0209588D01*
X0035774Y0209496D01*
X0035902Y0209402D01*
X0036028Y0209304D01*
X0036152Y0209203D01*
X0036273Y0209099D01*
X0036391Y0208992D01*
X0036507Y0208882D01*
X0036620Y0208769D01*
X0036730Y0208653D01*
X0036837Y0208535D01*
X0036941Y0208414D01*
X0037042Y0208290D01*
X0037140Y0208164D01*
X0037234Y0208036D01*
X0037326Y0207905D01*
X0037414Y0207772D01*
X0037499Y0207637D01*
X0037581Y0207500D01*
X0037659Y0207361D01*
X0037733Y0207220D01*
X0037804Y0207077D01*
X0037872Y0206932D01*
X0037935Y0206786D01*
X0037996Y0206638D01*
X0038052Y0206489D01*
X0038105Y0206338D01*
X0038154Y0206186D01*
X0038199Y0206033D01*
X0038240Y0205879D01*
X0038278Y0205724D01*
X0038311Y0205568D01*
X0038341Y0205411D01*
X0038367Y0205254D01*
X0038388Y0205096D01*
X0038406Y0204937D01*
X0038420Y0204778D01*
X0038430Y0204619D01*
X0038436Y0204460D01*
X0038438Y0204300D01*
X0038436Y0204140D01*
X0038430Y0203981D01*
X0038420Y0203822D01*
X0038406Y0203663D01*
X0038388Y0203504D01*
X0038367Y0203346D01*
X0038341Y0203189D01*
X0038311Y0203032D01*
X0038278Y0202876D01*
X0038240Y0202721D01*
X0038199Y0202567D01*
X0038154Y0202414D01*
X0038105Y0202262D01*
X0038052Y0202111D01*
X0037996Y0201962D01*
X0037935Y0201814D01*
X0037872Y0201668D01*
X0037804Y0201523D01*
X0037733Y0201380D01*
X0037659Y0201239D01*
X0037581Y0201100D01*
X0037499Y0200963D01*
X0037414Y0200828D01*
X0037326Y0200695D01*
X0037234Y0200564D01*
X0037140Y0200436D01*
X0037042Y0200310D01*
X0036941Y0200186D01*
X0036837Y0200065D01*
X0036730Y0199947D01*
X0036620Y0199831D01*
X0036507Y0199718D01*
X0036391Y0199608D01*
X0036273Y0199501D01*
X0036152Y0199397D01*
X0036028Y0199296D01*
X0035902Y0199198D01*
X0035774Y0199104D01*
X0035643Y0199012D01*
X0035510Y0198924D01*
X0035375Y0198839D01*
X0035238Y0198757D01*
X0035099Y0198679D01*
X0034958Y0198605D01*
X0034815Y0198534D01*
X0034670Y0198466D01*
X0034524Y0198403D01*
X0034376Y0198342D01*
X0034227Y0198286D01*
X0034076Y0198233D01*
X0033924Y0198184D01*
X0033771Y0198139D01*
X0033617Y0198098D01*
X0033462Y0198060D01*
X0033306Y0198027D01*
X0033149Y0197997D01*
X0032992Y0197971D01*
X0032834Y0197950D01*
X0032675Y0197932D01*
X0032516Y0197918D01*
X0032357Y0197908D01*
X0032198Y0197902D01*
X0032038Y0197900D01*
X0031878Y0197902D01*
X0031719Y0197908D01*
X0031560Y0197918D01*
X0031401Y0197932D01*
X0031242Y0197950D01*
X0031084Y0197971D01*
X0030927Y0197997D01*
X0030770Y0198027D01*
X0030614Y0198060D01*
X0030459Y0198098D01*
X0030305Y0198139D01*
X0030152Y0198184D01*
X0030000Y0198233D01*
X0029849Y0198286D01*
X0029700Y0198342D01*
X0029552Y0198403D01*
X0029406Y0198466D01*
X0029261Y0198534D01*
X0029118Y0198605D01*
X0028977Y0198679D01*
X0028838Y0198757D01*
X0028701Y0198839D01*
X0028566Y0198924D01*
X0028433Y0199012D01*
X0028302Y0199104D01*
X0028174Y0199198D01*
X0028048Y0199296D01*
X0027924Y0199397D01*
X0027803Y0199501D01*
X0027685Y0199608D01*
X0027569Y0199718D01*
X0027456Y0199831D01*
X0027346Y0199947D01*
X0027239Y0200065D01*
X0027135Y0200186D01*
X0027034Y0200310D01*
X0026936Y0200436D01*
X0026842Y0200564D01*
X0026750Y0200695D01*
X0026662Y0200828D01*
X0026577Y0200963D01*
X0026495Y0201100D01*
X0026417Y0201239D01*
X0026343Y0201380D01*
X0026272Y0201523D01*
X0026204Y0201668D01*
X0026141Y0201814D01*
X0026080Y0201962D01*
X0026024Y0202111D01*
X0025971Y0202262D01*
X0025922Y0202414D01*
X0025877Y0202567D01*
X0025836Y0202721D01*
X0025798Y0202876D01*
X0025765Y0203032D01*
X0025735Y0203189D01*
X0025709Y0203346D01*
X0025688Y0203504D01*
X0025670Y0203663D01*
X0025656Y0203822D01*
X0025646Y0203981D01*
X0025640Y0204140D01*
X0025638Y0204300D01*
X0025638Y0239300D02*
X0025640Y0239460D01*
X0025646Y0239619D01*
X0025656Y0239778D01*
X0025670Y0239937D01*
X0025688Y0240096D01*
X0025709Y0240254D01*
X0025735Y0240411D01*
X0025765Y0240568D01*
X0025798Y0240724D01*
X0025836Y0240879D01*
X0025877Y0241033D01*
X0025922Y0241186D01*
X0025971Y0241338D01*
X0026024Y0241489D01*
X0026080Y0241638D01*
X0026141Y0241786D01*
X0026204Y0241932D01*
X0026272Y0242077D01*
X0026343Y0242220D01*
X0026417Y0242361D01*
X0026495Y0242500D01*
X0026577Y0242637D01*
X0026662Y0242772D01*
X0026750Y0242905D01*
X0026842Y0243036D01*
X0026936Y0243164D01*
X0027034Y0243290D01*
X0027135Y0243414D01*
X0027239Y0243535D01*
X0027346Y0243653D01*
X0027456Y0243769D01*
X0027569Y0243882D01*
X0027685Y0243992D01*
X0027803Y0244099D01*
X0027924Y0244203D01*
X0028048Y0244304D01*
X0028174Y0244402D01*
X0028302Y0244496D01*
X0028433Y0244588D01*
X0028566Y0244676D01*
X0028701Y0244761D01*
X0028838Y0244843D01*
X0028977Y0244921D01*
X0029118Y0244995D01*
X0029261Y0245066D01*
X0029406Y0245134D01*
X0029552Y0245197D01*
X0029700Y0245258D01*
X0029849Y0245314D01*
X0030000Y0245367D01*
X0030152Y0245416D01*
X0030305Y0245461D01*
X0030459Y0245502D01*
X0030614Y0245540D01*
X0030770Y0245573D01*
X0030927Y0245603D01*
X0031084Y0245629D01*
X0031242Y0245650D01*
X0031401Y0245668D01*
X0031560Y0245682D01*
X0031719Y0245692D01*
X0031878Y0245698D01*
X0032038Y0245700D01*
X0032198Y0245698D01*
X0032357Y0245692D01*
X0032516Y0245682D01*
X0032675Y0245668D01*
X0032834Y0245650D01*
X0032992Y0245629D01*
X0033149Y0245603D01*
X0033306Y0245573D01*
X0033462Y0245540D01*
X0033617Y0245502D01*
X0033771Y0245461D01*
X0033924Y0245416D01*
X0034076Y0245367D01*
X0034227Y0245314D01*
X0034376Y0245258D01*
X0034524Y0245197D01*
X0034670Y0245134D01*
X0034815Y0245066D01*
X0034958Y0244995D01*
X0035099Y0244921D01*
X0035238Y0244843D01*
X0035375Y0244761D01*
X0035510Y0244676D01*
X0035643Y0244588D01*
X0035774Y0244496D01*
X0035902Y0244402D01*
X0036028Y0244304D01*
X0036152Y0244203D01*
X0036273Y0244099D01*
X0036391Y0243992D01*
X0036507Y0243882D01*
X0036620Y0243769D01*
X0036730Y0243653D01*
X0036837Y0243535D01*
X0036941Y0243414D01*
X0037042Y0243290D01*
X0037140Y0243164D01*
X0037234Y0243036D01*
X0037326Y0242905D01*
X0037414Y0242772D01*
X0037499Y0242637D01*
X0037581Y0242500D01*
X0037659Y0242361D01*
X0037733Y0242220D01*
X0037804Y0242077D01*
X0037872Y0241932D01*
X0037935Y0241786D01*
X0037996Y0241638D01*
X0038052Y0241489D01*
X0038105Y0241338D01*
X0038154Y0241186D01*
X0038199Y0241033D01*
X0038240Y0240879D01*
X0038278Y0240724D01*
X0038311Y0240568D01*
X0038341Y0240411D01*
X0038367Y0240254D01*
X0038388Y0240096D01*
X0038406Y0239937D01*
X0038420Y0239778D01*
X0038430Y0239619D01*
X0038436Y0239460D01*
X0038438Y0239300D01*
X0038436Y0239140D01*
X0038430Y0238981D01*
X0038420Y0238822D01*
X0038406Y0238663D01*
X0038388Y0238504D01*
X0038367Y0238346D01*
X0038341Y0238189D01*
X0038311Y0238032D01*
X0038278Y0237876D01*
X0038240Y0237721D01*
X0038199Y0237567D01*
X0038154Y0237414D01*
X0038105Y0237262D01*
X0038052Y0237111D01*
X0037996Y0236962D01*
X0037935Y0236814D01*
X0037872Y0236668D01*
X0037804Y0236523D01*
X0037733Y0236380D01*
X0037659Y0236239D01*
X0037581Y0236100D01*
X0037499Y0235963D01*
X0037414Y0235828D01*
X0037326Y0235695D01*
X0037234Y0235564D01*
X0037140Y0235436D01*
X0037042Y0235310D01*
X0036941Y0235186D01*
X0036837Y0235065D01*
X0036730Y0234947D01*
X0036620Y0234831D01*
X0036507Y0234718D01*
X0036391Y0234608D01*
X0036273Y0234501D01*
X0036152Y0234397D01*
X0036028Y0234296D01*
X0035902Y0234198D01*
X0035774Y0234104D01*
X0035643Y0234012D01*
X0035510Y0233924D01*
X0035375Y0233839D01*
X0035238Y0233757D01*
X0035099Y0233679D01*
X0034958Y0233605D01*
X0034815Y0233534D01*
X0034670Y0233466D01*
X0034524Y0233403D01*
X0034376Y0233342D01*
X0034227Y0233286D01*
X0034076Y0233233D01*
X0033924Y0233184D01*
X0033771Y0233139D01*
X0033617Y0233098D01*
X0033462Y0233060D01*
X0033306Y0233027D01*
X0033149Y0232997D01*
X0032992Y0232971D01*
X0032834Y0232950D01*
X0032675Y0232932D01*
X0032516Y0232918D01*
X0032357Y0232908D01*
X0032198Y0232902D01*
X0032038Y0232900D01*
X0031878Y0232902D01*
X0031719Y0232908D01*
X0031560Y0232918D01*
X0031401Y0232932D01*
X0031242Y0232950D01*
X0031084Y0232971D01*
X0030927Y0232997D01*
X0030770Y0233027D01*
X0030614Y0233060D01*
X0030459Y0233098D01*
X0030305Y0233139D01*
X0030152Y0233184D01*
X0030000Y0233233D01*
X0029849Y0233286D01*
X0029700Y0233342D01*
X0029552Y0233403D01*
X0029406Y0233466D01*
X0029261Y0233534D01*
X0029118Y0233605D01*
X0028977Y0233679D01*
X0028838Y0233757D01*
X0028701Y0233839D01*
X0028566Y0233924D01*
X0028433Y0234012D01*
X0028302Y0234104D01*
X0028174Y0234198D01*
X0028048Y0234296D01*
X0027924Y0234397D01*
X0027803Y0234501D01*
X0027685Y0234608D01*
X0027569Y0234718D01*
X0027456Y0234831D01*
X0027346Y0234947D01*
X0027239Y0235065D01*
X0027135Y0235186D01*
X0027034Y0235310D01*
X0026936Y0235436D01*
X0026842Y0235564D01*
X0026750Y0235695D01*
X0026662Y0235828D01*
X0026577Y0235963D01*
X0026495Y0236100D01*
X0026417Y0236239D01*
X0026343Y0236380D01*
X0026272Y0236523D01*
X0026204Y0236668D01*
X0026141Y0236814D01*
X0026080Y0236962D01*
X0026024Y0237111D01*
X0025971Y0237262D01*
X0025922Y0237414D01*
X0025877Y0237567D01*
X0025836Y0237721D01*
X0025798Y0237876D01*
X0025765Y0238032D01*
X0025735Y0238189D01*
X0025709Y0238346D01*
X0025688Y0238504D01*
X0025670Y0238663D01*
X0025656Y0238822D01*
X0025646Y0238981D01*
X0025640Y0239140D01*
X0025638Y0239300D01*
X0025638Y0284300D02*
X0025640Y0284460D01*
X0025646Y0284619D01*
X0025656Y0284778D01*
X0025670Y0284937D01*
X0025688Y0285096D01*
X0025709Y0285254D01*
X0025735Y0285411D01*
X0025765Y0285568D01*
X0025798Y0285724D01*
X0025836Y0285879D01*
X0025877Y0286033D01*
X0025922Y0286186D01*
X0025971Y0286338D01*
X0026024Y0286489D01*
X0026080Y0286638D01*
X0026141Y0286786D01*
X0026204Y0286932D01*
X0026272Y0287077D01*
X0026343Y0287220D01*
X0026417Y0287361D01*
X0026495Y0287500D01*
X0026577Y0287637D01*
X0026662Y0287772D01*
X0026750Y0287905D01*
X0026842Y0288036D01*
X0026936Y0288164D01*
X0027034Y0288290D01*
X0027135Y0288414D01*
X0027239Y0288535D01*
X0027346Y0288653D01*
X0027456Y0288769D01*
X0027569Y0288882D01*
X0027685Y0288992D01*
X0027803Y0289099D01*
X0027924Y0289203D01*
X0028048Y0289304D01*
X0028174Y0289402D01*
X0028302Y0289496D01*
X0028433Y0289588D01*
X0028566Y0289676D01*
X0028701Y0289761D01*
X0028838Y0289843D01*
X0028977Y0289921D01*
X0029118Y0289995D01*
X0029261Y0290066D01*
X0029406Y0290134D01*
X0029552Y0290197D01*
X0029700Y0290258D01*
X0029849Y0290314D01*
X0030000Y0290367D01*
X0030152Y0290416D01*
X0030305Y0290461D01*
X0030459Y0290502D01*
X0030614Y0290540D01*
X0030770Y0290573D01*
X0030927Y0290603D01*
X0031084Y0290629D01*
X0031242Y0290650D01*
X0031401Y0290668D01*
X0031560Y0290682D01*
X0031719Y0290692D01*
X0031878Y0290698D01*
X0032038Y0290700D01*
X0032198Y0290698D01*
X0032357Y0290692D01*
X0032516Y0290682D01*
X0032675Y0290668D01*
X0032834Y0290650D01*
X0032992Y0290629D01*
X0033149Y0290603D01*
X0033306Y0290573D01*
X0033462Y0290540D01*
X0033617Y0290502D01*
X0033771Y0290461D01*
X0033924Y0290416D01*
X0034076Y0290367D01*
X0034227Y0290314D01*
X0034376Y0290258D01*
X0034524Y0290197D01*
X0034670Y0290134D01*
X0034815Y0290066D01*
X0034958Y0289995D01*
X0035099Y0289921D01*
X0035238Y0289843D01*
X0035375Y0289761D01*
X0035510Y0289676D01*
X0035643Y0289588D01*
X0035774Y0289496D01*
X0035902Y0289402D01*
X0036028Y0289304D01*
X0036152Y0289203D01*
X0036273Y0289099D01*
X0036391Y0288992D01*
X0036507Y0288882D01*
X0036620Y0288769D01*
X0036730Y0288653D01*
X0036837Y0288535D01*
X0036941Y0288414D01*
X0037042Y0288290D01*
X0037140Y0288164D01*
X0037234Y0288036D01*
X0037326Y0287905D01*
X0037414Y0287772D01*
X0037499Y0287637D01*
X0037581Y0287500D01*
X0037659Y0287361D01*
X0037733Y0287220D01*
X0037804Y0287077D01*
X0037872Y0286932D01*
X0037935Y0286786D01*
X0037996Y0286638D01*
X0038052Y0286489D01*
X0038105Y0286338D01*
X0038154Y0286186D01*
X0038199Y0286033D01*
X0038240Y0285879D01*
X0038278Y0285724D01*
X0038311Y0285568D01*
X0038341Y0285411D01*
X0038367Y0285254D01*
X0038388Y0285096D01*
X0038406Y0284937D01*
X0038420Y0284778D01*
X0038430Y0284619D01*
X0038436Y0284460D01*
X0038438Y0284300D01*
X0038436Y0284140D01*
X0038430Y0283981D01*
X0038420Y0283822D01*
X0038406Y0283663D01*
X0038388Y0283504D01*
X0038367Y0283346D01*
X0038341Y0283189D01*
X0038311Y0283032D01*
X0038278Y0282876D01*
X0038240Y0282721D01*
X0038199Y0282567D01*
X0038154Y0282414D01*
X0038105Y0282262D01*
X0038052Y0282111D01*
X0037996Y0281962D01*
X0037935Y0281814D01*
X0037872Y0281668D01*
X0037804Y0281523D01*
X0037733Y0281380D01*
X0037659Y0281239D01*
X0037581Y0281100D01*
X0037499Y0280963D01*
X0037414Y0280828D01*
X0037326Y0280695D01*
X0037234Y0280564D01*
X0037140Y0280436D01*
X0037042Y0280310D01*
X0036941Y0280186D01*
X0036837Y0280065D01*
X0036730Y0279947D01*
X0036620Y0279831D01*
X0036507Y0279718D01*
X0036391Y0279608D01*
X0036273Y0279501D01*
X0036152Y0279397D01*
X0036028Y0279296D01*
X0035902Y0279198D01*
X0035774Y0279104D01*
X0035643Y0279012D01*
X0035510Y0278924D01*
X0035375Y0278839D01*
X0035238Y0278757D01*
X0035099Y0278679D01*
X0034958Y0278605D01*
X0034815Y0278534D01*
X0034670Y0278466D01*
X0034524Y0278403D01*
X0034376Y0278342D01*
X0034227Y0278286D01*
X0034076Y0278233D01*
X0033924Y0278184D01*
X0033771Y0278139D01*
X0033617Y0278098D01*
X0033462Y0278060D01*
X0033306Y0278027D01*
X0033149Y0277997D01*
X0032992Y0277971D01*
X0032834Y0277950D01*
X0032675Y0277932D01*
X0032516Y0277918D01*
X0032357Y0277908D01*
X0032198Y0277902D01*
X0032038Y0277900D01*
X0031878Y0277902D01*
X0031719Y0277908D01*
X0031560Y0277918D01*
X0031401Y0277932D01*
X0031242Y0277950D01*
X0031084Y0277971D01*
X0030927Y0277997D01*
X0030770Y0278027D01*
X0030614Y0278060D01*
X0030459Y0278098D01*
X0030305Y0278139D01*
X0030152Y0278184D01*
X0030000Y0278233D01*
X0029849Y0278286D01*
X0029700Y0278342D01*
X0029552Y0278403D01*
X0029406Y0278466D01*
X0029261Y0278534D01*
X0029118Y0278605D01*
X0028977Y0278679D01*
X0028838Y0278757D01*
X0028701Y0278839D01*
X0028566Y0278924D01*
X0028433Y0279012D01*
X0028302Y0279104D01*
X0028174Y0279198D01*
X0028048Y0279296D01*
X0027924Y0279397D01*
X0027803Y0279501D01*
X0027685Y0279608D01*
X0027569Y0279718D01*
X0027456Y0279831D01*
X0027346Y0279947D01*
X0027239Y0280065D01*
X0027135Y0280186D01*
X0027034Y0280310D01*
X0026936Y0280436D01*
X0026842Y0280564D01*
X0026750Y0280695D01*
X0026662Y0280828D01*
X0026577Y0280963D01*
X0026495Y0281100D01*
X0026417Y0281239D01*
X0026343Y0281380D01*
X0026272Y0281523D01*
X0026204Y0281668D01*
X0026141Y0281814D01*
X0026080Y0281962D01*
X0026024Y0282111D01*
X0025971Y0282262D01*
X0025922Y0282414D01*
X0025877Y0282567D01*
X0025836Y0282721D01*
X0025798Y0282876D01*
X0025765Y0283032D01*
X0025735Y0283189D01*
X0025709Y0283346D01*
X0025688Y0283504D01*
X0025670Y0283663D01*
X0025656Y0283822D01*
X0025646Y0283981D01*
X0025640Y0284140D01*
X0025638Y0284300D01*
X0274538Y0071800D02*
X0274540Y0071961D01*
X0274546Y0072121D01*
X0274556Y0072282D01*
X0274570Y0072442D01*
X0274588Y0072602D01*
X0274609Y0072761D01*
X0274635Y0072920D01*
X0274665Y0073078D01*
X0274698Y0073235D01*
X0274736Y0073392D01*
X0274777Y0073547D01*
X0274822Y0073701D01*
X0274871Y0073854D01*
X0274924Y0074006D01*
X0274980Y0074157D01*
X0275041Y0074306D01*
X0275104Y0074454D01*
X0275172Y0074600D01*
X0275243Y0074744D01*
X0275317Y0074886D01*
X0275395Y0075027D01*
X0275477Y0075165D01*
X0275562Y0075302D01*
X0275650Y0075436D01*
X0275742Y0075568D01*
X0275837Y0075698D01*
X0275935Y0075826D01*
X0276036Y0075951D01*
X0276140Y0076073D01*
X0276247Y0076193D01*
X0276357Y0076310D01*
X0276470Y0076425D01*
X0276586Y0076536D01*
X0276705Y0076645D01*
X0276826Y0076750D01*
X0276950Y0076853D01*
X0277076Y0076953D01*
X0277204Y0077049D01*
X0277335Y0077142D01*
X0277469Y0077232D01*
X0277604Y0077319D01*
X0277742Y0077402D01*
X0277881Y0077482D01*
X0278023Y0077558D01*
X0278166Y0077631D01*
X0278311Y0077700D01*
X0278458Y0077766D01*
X0278606Y0077828D01*
X0278756Y0077886D01*
X0278907Y0077941D01*
X0279060Y0077992D01*
X0279214Y0078039D01*
X0279369Y0078082D01*
X0279525Y0078121D01*
X0279681Y0078157D01*
X0279839Y0078188D01*
X0279997Y0078216D01*
X0280156Y0078240D01*
X0280316Y0078260D01*
X0280476Y0078276D01*
X0280636Y0078288D01*
X0280797Y0078296D01*
X0280958Y0078300D01*
X0281118Y0078300D01*
X0281279Y0078296D01*
X0281440Y0078288D01*
X0281600Y0078276D01*
X0281760Y0078260D01*
X0281920Y0078240D01*
X0282079Y0078216D01*
X0282237Y0078188D01*
X0282395Y0078157D01*
X0282551Y0078121D01*
X0282707Y0078082D01*
X0282862Y0078039D01*
X0283016Y0077992D01*
X0283169Y0077941D01*
X0283320Y0077886D01*
X0283470Y0077828D01*
X0283618Y0077766D01*
X0283765Y0077700D01*
X0283910Y0077631D01*
X0284053Y0077558D01*
X0284195Y0077482D01*
X0284334Y0077402D01*
X0284472Y0077319D01*
X0284607Y0077232D01*
X0284741Y0077142D01*
X0284872Y0077049D01*
X0285000Y0076953D01*
X0285126Y0076853D01*
X0285250Y0076750D01*
X0285371Y0076645D01*
X0285490Y0076536D01*
X0285606Y0076425D01*
X0285719Y0076310D01*
X0285829Y0076193D01*
X0285936Y0076073D01*
X0286040Y0075951D01*
X0286141Y0075826D01*
X0286239Y0075698D01*
X0286334Y0075568D01*
X0286426Y0075436D01*
X0286514Y0075302D01*
X0286599Y0075165D01*
X0286681Y0075027D01*
X0286759Y0074886D01*
X0286833Y0074744D01*
X0286904Y0074600D01*
X0286972Y0074454D01*
X0287035Y0074306D01*
X0287096Y0074157D01*
X0287152Y0074006D01*
X0287205Y0073854D01*
X0287254Y0073701D01*
X0287299Y0073547D01*
X0287340Y0073392D01*
X0287378Y0073235D01*
X0287411Y0073078D01*
X0287441Y0072920D01*
X0287467Y0072761D01*
X0287488Y0072602D01*
X0287506Y0072442D01*
X0287520Y0072282D01*
X0287530Y0072121D01*
X0287536Y0071961D01*
X0287538Y0071800D01*
X0287536Y0071639D01*
X0287530Y0071479D01*
X0287520Y0071318D01*
X0287506Y0071158D01*
X0287488Y0070998D01*
X0287467Y0070839D01*
X0287441Y0070680D01*
X0287411Y0070522D01*
X0287378Y0070365D01*
X0287340Y0070208D01*
X0287299Y0070053D01*
X0287254Y0069899D01*
X0287205Y0069746D01*
X0287152Y0069594D01*
X0287096Y0069443D01*
X0287035Y0069294D01*
X0286972Y0069146D01*
X0286904Y0069000D01*
X0286833Y0068856D01*
X0286759Y0068714D01*
X0286681Y0068573D01*
X0286599Y0068435D01*
X0286514Y0068298D01*
X0286426Y0068164D01*
X0286334Y0068032D01*
X0286239Y0067902D01*
X0286141Y0067774D01*
X0286040Y0067649D01*
X0285936Y0067527D01*
X0285829Y0067407D01*
X0285719Y0067290D01*
X0285606Y0067175D01*
X0285490Y0067064D01*
X0285371Y0066955D01*
X0285250Y0066850D01*
X0285126Y0066747D01*
X0285000Y0066647D01*
X0284872Y0066551D01*
X0284741Y0066458D01*
X0284607Y0066368D01*
X0284472Y0066281D01*
X0284334Y0066198D01*
X0284195Y0066118D01*
X0284053Y0066042D01*
X0283910Y0065969D01*
X0283765Y0065900D01*
X0283618Y0065834D01*
X0283470Y0065772D01*
X0283320Y0065714D01*
X0283169Y0065659D01*
X0283016Y0065608D01*
X0282862Y0065561D01*
X0282707Y0065518D01*
X0282551Y0065479D01*
X0282395Y0065443D01*
X0282237Y0065412D01*
X0282079Y0065384D01*
X0281920Y0065360D01*
X0281760Y0065340D01*
X0281600Y0065324D01*
X0281440Y0065312D01*
X0281279Y0065304D01*
X0281118Y0065300D01*
X0280958Y0065300D01*
X0280797Y0065304D01*
X0280636Y0065312D01*
X0280476Y0065324D01*
X0280316Y0065340D01*
X0280156Y0065360D01*
X0279997Y0065384D01*
X0279839Y0065412D01*
X0279681Y0065443D01*
X0279525Y0065479D01*
X0279369Y0065518D01*
X0279214Y0065561D01*
X0279060Y0065608D01*
X0278907Y0065659D01*
X0278756Y0065714D01*
X0278606Y0065772D01*
X0278458Y0065834D01*
X0278311Y0065900D01*
X0278166Y0065969D01*
X0278023Y0066042D01*
X0277881Y0066118D01*
X0277742Y0066198D01*
X0277604Y0066281D01*
X0277469Y0066368D01*
X0277335Y0066458D01*
X0277204Y0066551D01*
X0277076Y0066647D01*
X0276950Y0066747D01*
X0276826Y0066850D01*
X0276705Y0066955D01*
X0276586Y0067064D01*
X0276470Y0067175D01*
X0276357Y0067290D01*
X0276247Y0067407D01*
X0276140Y0067527D01*
X0276036Y0067649D01*
X0275935Y0067774D01*
X0275837Y0067902D01*
X0275742Y0068032D01*
X0275650Y0068164D01*
X0275562Y0068298D01*
X0275477Y0068435D01*
X0275395Y0068573D01*
X0275317Y0068714D01*
X0275243Y0068856D01*
X0275172Y0069000D01*
X0275104Y0069146D01*
X0275041Y0069294D01*
X0274980Y0069443D01*
X0274924Y0069594D01*
X0274871Y0069746D01*
X0274822Y0069899D01*
X0274777Y0070053D01*
X0274736Y0070208D01*
X0274698Y0070365D01*
X0274665Y0070522D01*
X0274635Y0070680D01*
X0274609Y0070839D01*
X0274588Y0070998D01*
X0274570Y0071158D01*
X0274556Y0071318D01*
X0274546Y0071479D01*
X0274540Y0071639D01*
X0274538Y0071800D01*
X0337638Y0089800D02*
X0337640Y0089961D01*
X0337646Y0090121D01*
X0337656Y0090282D01*
X0337670Y0090442D01*
X0337688Y0090602D01*
X0337709Y0090761D01*
X0337735Y0090920D01*
X0337765Y0091078D01*
X0337798Y0091235D01*
X0337836Y0091392D01*
X0337877Y0091547D01*
X0337922Y0091701D01*
X0337971Y0091854D01*
X0338024Y0092006D01*
X0338080Y0092157D01*
X0338141Y0092306D01*
X0338204Y0092454D01*
X0338272Y0092600D01*
X0338343Y0092744D01*
X0338417Y0092886D01*
X0338495Y0093027D01*
X0338577Y0093165D01*
X0338662Y0093302D01*
X0338750Y0093436D01*
X0338842Y0093568D01*
X0338937Y0093698D01*
X0339035Y0093826D01*
X0339136Y0093951D01*
X0339240Y0094073D01*
X0339347Y0094193D01*
X0339457Y0094310D01*
X0339570Y0094425D01*
X0339686Y0094536D01*
X0339805Y0094645D01*
X0339926Y0094750D01*
X0340050Y0094853D01*
X0340176Y0094953D01*
X0340304Y0095049D01*
X0340435Y0095142D01*
X0340569Y0095232D01*
X0340704Y0095319D01*
X0340842Y0095402D01*
X0340981Y0095482D01*
X0341123Y0095558D01*
X0341266Y0095631D01*
X0341411Y0095700D01*
X0341558Y0095766D01*
X0341706Y0095828D01*
X0341856Y0095886D01*
X0342007Y0095941D01*
X0342160Y0095992D01*
X0342314Y0096039D01*
X0342469Y0096082D01*
X0342625Y0096121D01*
X0342781Y0096157D01*
X0342939Y0096188D01*
X0343097Y0096216D01*
X0343256Y0096240D01*
X0343416Y0096260D01*
X0343576Y0096276D01*
X0343736Y0096288D01*
X0343897Y0096296D01*
X0344058Y0096300D01*
X0344218Y0096300D01*
X0344379Y0096296D01*
X0344540Y0096288D01*
X0344700Y0096276D01*
X0344860Y0096260D01*
X0345020Y0096240D01*
X0345179Y0096216D01*
X0345337Y0096188D01*
X0345495Y0096157D01*
X0345651Y0096121D01*
X0345807Y0096082D01*
X0345962Y0096039D01*
X0346116Y0095992D01*
X0346269Y0095941D01*
X0346420Y0095886D01*
X0346570Y0095828D01*
X0346718Y0095766D01*
X0346865Y0095700D01*
X0347010Y0095631D01*
X0347153Y0095558D01*
X0347295Y0095482D01*
X0347434Y0095402D01*
X0347572Y0095319D01*
X0347707Y0095232D01*
X0347841Y0095142D01*
X0347972Y0095049D01*
X0348100Y0094953D01*
X0348226Y0094853D01*
X0348350Y0094750D01*
X0348471Y0094645D01*
X0348590Y0094536D01*
X0348706Y0094425D01*
X0348819Y0094310D01*
X0348929Y0094193D01*
X0349036Y0094073D01*
X0349140Y0093951D01*
X0349241Y0093826D01*
X0349339Y0093698D01*
X0349434Y0093568D01*
X0349526Y0093436D01*
X0349614Y0093302D01*
X0349699Y0093165D01*
X0349781Y0093027D01*
X0349859Y0092886D01*
X0349933Y0092744D01*
X0350004Y0092600D01*
X0350072Y0092454D01*
X0350135Y0092306D01*
X0350196Y0092157D01*
X0350252Y0092006D01*
X0350305Y0091854D01*
X0350354Y0091701D01*
X0350399Y0091547D01*
X0350440Y0091392D01*
X0350478Y0091235D01*
X0350511Y0091078D01*
X0350541Y0090920D01*
X0350567Y0090761D01*
X0350588Y0090602D01*
X0350606Y0090442D01*
X0350620Y0090282D01*
X0350630Y0090121D01*
X0350636Y0089961D01*
X0350638Y0089800D01*
X0350636Y0089639D01*
X0350630Y0089479D01*
X0350620Y0089318D01*
X0350606Y0089158D01*
X0350588Y0088998D01*
X0350567Y0088839D01*
X0350541Y0088680D01*
X0350511Y0088522D01*
X0350478Y0088365D01*
X0350440Y0088208D01*
X0350399Y0088053D01*
X0350354Y0087899D01*
X0350305Y0087746D01*
X0350252Y0087594D01*
X0350196Y0087443D01*
X0350135Y0087294D01*
X0350072Y0087146D01*
X0350004Y0087000D01*
X0349933Y0086856D01*
X0349859Y0086714D01*
X0349781Y0086573D01*
X0349699Y0086435D01*
X0349614Y0086298D01*
X0349526Y0086164D01*
X0349434Y0086032D01*
X0349339Y0085902D01*
X0349241Y0085774D01*
X0349140Y0085649D01*
X0349036Y0085527D01*
X0348929Y0085407D01*
X0348819Y0085290D01*
X0348706Y0085175D01*
X0348590Y0085064D01*
X0348471Y0084955D01*
X0348350Y0084850D01*
X0348226Y0084747D01*
X0348100Y0084647D01*
X0347972Y0084551D01*
X0347841Y0084458D01*
X0347707Y0084368D01*
X0347572Y0084281D01*
X0347434Y0084198D01*
X0347295Y0084118D01*
X0347153Y0084042D01*
X0347010Y0083969D01*
X0346865Y0083900D01*
X0346718Y0083834D01*
X0346570Y0083772D01*
X0346420Y0083714D01*
X0346269Y0083659D01*
X0346116Y0083608D01*
X0345962Y0083561D01*
X0345807Y0083518D01*
X0345651Y0083479D01*
X0345495Y0083443D01*
X0345337Y0083412D01*
X0345179Y0083384D01*
X0345020Y0083360D01*
X0344860Y0083340D01*
X0344700Y0083324D01*
X0344540Y0083312D01*
X0344379Y0083304D01*
X0344218Y0083300D01*
X0344058Y0083300D01*
X0343897Y0083304D01*
X0343736Y0083312D01*
X0343576Y0083324D01*
X0343416Y0083340D01*
X0343256Y0083360D01*
X0343097Y0083384D01*
X0342939Y0083412D01*
X0342781Y0083443D01*
X0342625Y0083479D01*
X0342469Y0083518D01*
X0342314Y0083561D01*
X0342160Y0083608D01*
X0342007Y0083659D01*
X0341856Y0083714D01*
X0341706Y0083772D01*
X0341558Y0083834D01*
X0341411Y0083900D01*
X0341266Y0083969D01*
X0341123Y0084042D01*
X0340981Y0084118D01*
X0340842Y0084198D01*
X0340704Y0084281D01*
X0340569Y0084368D01*
X0340435Y0084458D01*
X0340304Y0084551D01*
X0340176Y0084647D01*
X0340050Y0084747D01*
X0339926Y0084850D01*
X0339805Y0084955D01*
X0339686Y0085064D01*
X0339570Y0085175D01*
X0339457Y0085290D01*
X0339347Y0085407D01*
X0339240Y0085527D01*
X0339136Y0085649D01*
X0339035Y0085774D01*
X0338937Y0085902D01*
X0338842Y0086032D01*
X0338750Y0086164D01*
X0338662Y0086298D01*
X0338577Y0086435D01*
X0338495Y0086573D01*
X0338417Y0086714D01*
X0338343Y0086856D01*
X0338272Y0087000D01*
X0338204Y0087146D01*
X0338141Y0087294D01*
X0338080Y0087443D01*
X0338024Y0087594D01*
X0337971Y0087746D01*
X0337922Y0087899D01*
X0337877Y0088053D01*
X0337836Y0088208D01*
X0337798Y0088365D01*
X0337765Y0088522D01*
X0337735Y0088680D01*
X0337709Y0088839D01*
X0337688Y0088998D01*
X0337670Y0089158D01*
X0337656Y0089318D01*
X0337646Y0089479D01*
X0337640Y0089639D01*
X0337638Y0089800D01*
X0337638Y0023800D02*
X0337640Y0023961D01*
X0337646Y0024121D01*
X0337656Y0024282D01*
X0337670Y0024442D01*
X0337688Y0024602D01*
X0337709Y0024761D01*
X0337735Y0024920D01*
X0337765Y0025078D01*
X0337798Y0025235D01*
X0337836Y0025392D01*
X0337877Y0025547D01*
X0337922Y0025701D01*
X0337971Y0025854D01*
X0338024Y0026006D01*
X0338080Y0026157D01*
X0338141Y0026306D01*
X0338204Y0026454D01*
X0338272Y0026600D01*
X0338343Y0026744D01*
X0338417Y0026886D01*
X0338495Y0027027D01*
X0338577Y0027165D01*
X0338662Y0027302D01*
X0338750Y0027436D01*
X0338842Y0027568D01*
X0338937Y0027698D01*
X0339035Y0027826D01*
X0339136Y0027951D01*
X0339240Y0028073D01*
X0339347Y0028193D01*
X0339457Y0028310D01*
X0339570Y0028425D01*
X0339686Y0028536D01*
X0339805Y0028645D01*
X0339926Y0028750D01*
X0340050Y0028853D01*
X0340176Y0028953D01*
X0340304Y0029049D01*
X0340435Y0029142D01*
X0340569Y0029232D01*
X0340704Y0029319D01*
X0340842Y0029402D01*
X0340981Y0029482D01*
X0341123Y0029558D01*
X0341266Y0029631D01*
X0341411Y0029700D01*
X0341558Y0029766D01*
X0341706Y0029828D01*
X0341856Y0029886D01*
X0342007Y0029941D01*
X0342160Y0029992D01*
X0342314Y0030039D01*
X0342469Y0030082D01*
X0342625Y0030121D01*
X0342781Y0030157D01*
X0342939Y0030188D01*
X0343097Y0030216D01*
X0343256Y0030240D01*
X0343416Y0030260D01*
X0343576Y0030276D01*
X0343736Y0030288D01*
X0343897Y0030296D01*
X0344058Y0030300D01*
X0344218Y0030300D01*
X0344379Y0030296D01*
X0344540Y0030288D01*
X0344700Y0030276D01*
X0344860Y0030260D01*
X0345020Y0030240D01*
X0345179Y0030216D01*
X0345337Y0030188D01*
X0345495Y0030157D01*
X0345651Y0030121D01*
X0345807Y0030082D01*
X0345962Y0030039D01*
X0346116Y0029992D01*
X0346269Y0029941D01*
X0346420Y0029886D01*
X0346570Y0029828D01*
X0346718Y0029766D01*
X0346865Y0029700D01*
X0347010Y0029631D01*
X0347153Y0029558D01*
X0347295Y0029482D01*
X0347434Y0029402D01*
X0347572Y0029319D01*
X0347707Y0029232D01*
X0347841Y0029142D01*
X0347972Y0029049D01*
X0348100Y0028953D01*
X0348226Y0028853D01*
X0348350Y0028750D01*
X0348471Y0028645D01*
X0348590Y0028536D01*
X0348706Y0028425D01*
X0348819Y0028310D01*
X0348929Y0028193D01*
X0349036Y0028073D01*
X0349140Y0027951D01*
X0349241Y0027826D01*
X0349339Y0027698D01*
X0349434Y0027568D01*
X0349526Y0027436D01*
X0349614Y0027302D01*
X0349699Y0027165D01*
X0349781Y0027027D01*
X0349859Y0026886D01*
X0349933Y0026744D01*
X0350004Y0026600D01*
X0350072Y0026454D01*
X0350135Y0026306D01*
X0350196Y0026157D01*
X0350252Y0026006D01*
X0350305Y0025854D01*
X0350354Y0025701D01*
X0350399Y0025547D01*
X0350440Y0025392D01*
X0350478Y0025235D01*
X0350511Y0025078D01*
X0350541Y0024920D01*
X0350567Y0024761D01*
X0350588Y0024602D01*
X0350606Y0024442D01*
X0350620Y0024282D01*
X0350630Y0024121D01*
X0350636Y0023961D01*
X0350638Y0023800D01*
X0350636Y0023639D01*
X0350630Y0023479D01*
X0350620Y0023318D01*
X0350606Y0023158D01*
X0350588Y0022998D01*
X0350567Y0022839D01*
X0350541Y0022680D01*
X0350511Y0022522D01*
X0350478Y0022365D01*
X0350440Y0022208D01*
X0350399Y0022053D01*
X0350354Y0021899D01*
X0350305Y0021746D01*
X0350252Y0021594D01*
X0350196Y0021443D01*
X0350135Y0021294D01*
X0350072Y0021146D01*
X0350004Y0021000D01*
X0349933Y0020856D01*
X0349859Y0020714D01*
X0349781Y0020573D01*
X0349699Y0020435D01*
X0349614Y0020298D01*
X0349526Y0020164D01*
X0349434Y0020032D01*
X0349339Y0019902D01*
X0349241Y0019774D01*
X0349140Y0019649D01*
X0349036Y0019527D01*
X0348929Y0019407D01*
X0348819Y0019290D01*
X0348706Y0019175D01*
X0348590Y0019064D01*
X0348471Y0018955D01*
X0348350Y0018850D01*
X0348226Y0018747D01*
X0348100Y0018647D01*
X0347972Y0018551D01*
X0347841Y0018458D01*
X0347707Y0018368D01*
X0347572Y0018281D01*
X0347434Y0018198D01*
X0347295Y0018118D01*
X0347153Y0018042D01*
X0347010Y0017969D01*
X0346865Y0017900D01*
X0346718Y0017834D01*
X0346570Y0017772D01*
X0346420Y0017714D01*
X0346269Y0017659D01*
X0346116Y0017608D01*
X0345962Y0017561D01*
X0345807Y0017518D01*
X0345651Y0017479D01*
X0345495Y0017443D01*
X0345337Y0017412D01*
X0345179Y0017384D01*
X0345020Y0017360D01*
X0344860Y0017340D01*
X0344700Y0017324D01*
X0344540Y0017312D01*
X0344379Y0017304D01*
X0344218Y0017300D01*
X0344058Y0017300D01*
X0343897Y0017304D01*
X0343736Y0017312D01*
X0343576Y0017324D01*
X0343416Y0017340D01*
X0343256Y0017360D01*
X0343097Y0017384D01*
X0342939Y0017412D01*
X0342781Y0017443D01*
X0342625Y0017479D01*
X0342469Y0017518D01*
X0342314Y0017561D01*
X0342160Y0017608D01*
X0342007Y0017659D01*
X0341856Y0017714D01*
X0341706Y0017772D01*
X0341558Y0017834D01*
X0341411Y0017900D01*
X0341266Y0017969D01*
X0341123Y0018042D01*
X0340981Y0018118D01*
X0340842Y0018198D01*
X0340704Y0018281D01*
X0340569Y0018368D01*
X0340435Y0018458D01*
X0340304Y0018551D01*
X0340176Y0018647D01*
X0340050Y0018747D01*
X0339926Y0018850D01*
X0339805Y0018955D01*
X0339686Y0019064D01*
X0339570Y0019175D01*
X0339457Y0019290D01*
X0339347Y0019407D01*
X0339240Y0019527D01*
X0339136Y0019649D01*
X0339035Y0019774D01*
X0338937Y0019902D01*
X0338842Y0020032D01*
X0338750Y0020164D01*
X0338662Y0020298D01*
X0338577Y0020435D01*
X0338495Y0020573D01*
X0338417Y0020714D01*
X0338343Y0020856D01*
X0338272Y0021000D01*
X0338204Y0021146D01*
X0338141Y0021294D01*
X0338080Y0021443D01*
X0338024Y0021594D01*
X0337971Y0021746D01*
X0337922Y0021899D01*
X0337877Y0022053D01*
X0337836Y0022208D01*
X0337798Y0022365D01*
X0337765Y0022522D01*
X0337735Y0022680D01*
X0337709Y0022839D01*
X0337688Y0022998D01*
X0337670Y0023158D01*
X0337656Y0023318D01*
X0337646Y0023479D01*
X0337640Y0023639D01*
X0337638Y0023800D01*
D11*
X0010338Y0148550D02*
X0010338Y0215050D01*
X0010338Y0228550D02*
X0010338Y0295050D01*
D12*
X0057038Y0279300D03*
X0057038Y0269300D03*
X0067038Y0264300D03*
X0067038Y0254300D03*
X0057038Y0249300D03*
X0057038Y0259300D03*
X0067038Y0244300D03*
X0067038Y0274300D03*
X0057038Y0199300D03*
X0057038Y0189300D03*
X0057038Y0179300D03*
X0067038Y0174300D03*
X0067038Y0164300D03*
X0057038Y0169300D03*
X0067038Y0184300D03*
X0067038Y0194300D03*
D13*
X0122038Y0184400D02*
X0122038Y0179200D01*
X0132038Y0179200D02*
X0132038Y0184400D01*
X0142038Y0184400D02*
X0142038Y0179200D01*
X0152038Y0179200D02*
X0152038Y0184400D01*
X0162038Y0184400D02*
X0162038Y0179200D01*
X0172038Y0179200D02*
X0172038Y0184400D01*
X0182038Y0184400D02*
X0182038Y0179200D01*
X0192038Y0179200D02*
X0192038Y0184400D01*
X0202038Y0184400D02*
X0202038Y0179200D01*
X0202038Y0209200D02*
X0202038Y0214400D01*
X0192038Y0214400D02*
X0192038Y0209200D01*
X0182038Y0209200D02*
X0182038Y0214400D01*
X0172038Y0214400D02*
X0172038Y0209200D01*
X0162038Y0209200D02*
X0162038Y0214400D01*
X0152038Y0214400D02*
X0152038Y0209200D01*
X0142038Y0209200D02*
X0142038Y0214400D01*
X0132038Y0214400D02*
X0132038Y0209200D01*
X0122038Y0209200D02*
X0122038Y0214400D01*
X0139438Y0106800D02*
X0144638Y0106800D01*
X0144638Y0096800D02*
X0139438Y0096800D01*
X0139438Y0086800D02*
X0144638Y0086800D01*
X0144638Y0076800D02*
X0139438Y0076800D01*
X0112038Y0074400D02*
X0112038Y0069200D01*
X0102038Y0069200D02*
X0102038Y0074400D01*
X0092038Y0074400D02*
X0092038Y0069200D01*
X0082038Y0069200D02*
X0082038Y0074400D01*
X0072038Y0074400D02*
X0072038Y0069200D01*
X0062038Y0069200D02*
X0062038Y0074400D01*
X0052038Y0074400D02*
X0052038Y0069200D01*
X0042038Y0069200D02*
X0042038Y0074400D01*
X0032038Y0074400D02*
X0032038Y0069200D01*
X0169438Y0076800D02*
X0174638Y0076800D01*
X0174638Y0086800D02*
X0169438Y0086800D01*
X0169438Y0096800D02*
X0174638Y0096800D01*
X0174638Y0106800D02*
X0169438Y0106800D01*
X0277038Y0184200D02*
X0277038Y0189400D01*
X0287038Y0189400D02*
X0287038Y0184200D01*
X0297038Y0184200D02*
X0297038Y0189400D01*
X0307038Y0189400D02*
X0307038Y0184200D01*
X0307038Y0159400D02*
X0307038Y0154200D01*
X0297038Y0154200D02*
X0297038Y0159400D01*
X0287038Y0159400D02*
X0287038Y0154200D01*
D14*
X0177038Y0239000D02*
X0177038Y0244600D01*
X0167038Y0244600D02*
X0167038Y0239000D01*
X0187038Y0059600D02*
X0187038Y0054000D01*
X0197038Y0054000D02*
X0197038Y0059600D01*
D15*
X0337038Y0056800D03*
X0347038Y0056800D03*
X0347038Y0066800D03*
X0347038Y0046800D03*
X0337038Y0046800D03*
X0342038Y0271800D03*
X0332038Y0271800D03*
X0322038Y0271800D03*
X0322038Y0281800D03*
X0332038Y0281800D03*
X0342038Y0281800D03*
X0312038Y0281800D03*
X0302038Y0281800D03*
X0302038Y0271800D03*
X0312038Y0271800D03*
X0292038Y0271800D03*
X0282038Y0271800D03*
X0282038Y0281800D03*
X0292038Y0281800D03*
X0272038Y0281800D03*
X0262038Y0281800D03*
X0252038Y0281800D03*
X0252038Y0271800D03*
X0262038Y0271800D03*
X0272038Y0271800D03*
X0242038Y0271800D03*
X0232038Y0271800D03*
X0232038Y0281800D03*
X0242038Y0281800D03*
X0222038Y0281800D03*
X0212038Y0281800D03*
X0212038Y0271800D03*
X0222038Y0271800D03*
X0202038Y0271800D03*
X0192038Y0271800D03*
X0182038Y0271800D03*
X0182038Y0281800D03*
X0192038Y0281800D03*
X0202038Y0281800D03*
X0172038Y0281800D03*
X0162038Y0281800D03*
X0162038Y0271800D03*
X0172038Y0271800D03*
X0152038Y0271800D03*
X0152038Y0281800D03*
D16*
X0218738Y0081800D02*
X0225338Y0081800D01*
X0225338Y0071800D02*
X0218738Y0071800D01*
X0218738Y0061800D02*
X0225338Y0061800D01*
D17*
X0156538Y0151800D03*
X0147144Y0151800D03*
X0137538Y0151800D03*
D18*
X0277038Y0156800D03*
D19*
X0354038Y0156800D02*
X0360038Y0156800D01*
X0360038Y0146800D02*
X0354038Y0146800D01*
X0354038Y0136800D02*
X0360038Y0136800D01*
X0360038Y0166800D02*
X0354038Y0166800D01*
X0354038Y0176800D02*
X0360038Y0176800D01*
X0360038Y0186800D02*
X0354038Y0186800D01*
X0354038Y0196800D02*
X0360038Y0196800D01*
X0360038Y0206800D02*
X0354038Y0206800D01*
X0354038Y0216800D02*
X0360038Y0216800D01*
X0360038Y0226800D02*
X0354038Y0226800D01*
X0292038Y0228800D02*
X0292038Y0234800D01*
X0282038Y0234800D02*
X0282038Y0228800D01*
X0272038Y0228800D02*
X0272038Y0234800D01*
X0262038Y0234800D02*
X0262038Y0228800D01*
X0252038Y0228800D02*
X0252038Y0234800D01*
X0242038Y0234800D02*
X0242038Y0228800D01*
X0232038Y0228800D02*
X0232038Y0234800D01*
X0232038Y0014800D02*
X0232038Y0008800D01*
X0242038Y0008800D02*
X0242038Y0014800D01*
X0252038Y0014800D02*
X0252038Y0008800D01*
X0262038Y0008800D02*
X0262038Y0014800D01*
X0307038Y0014800D02*
X0307038Y0008800D01*
X0317038Y0008800D02*
X0317038Y0014800D01*
X0202038Y0014800D02*
X0202038Y0008800D01*
X0192038Y0008800D02*
X0192038Y0014800D01*
X0122038Y0014800D02*
X0122038Y0008800D01*
X0112038Y0008800D02*
X0112038Y0014800D01*
X0102038Y0014800D02*
X0102038Y0008800D01*
X0092038Y0008800D02*
X0092038Y0014800D01*
X0082038Y0014800D02*
X0082038Y0008800D01*
X0072038Y0008800D02*
X0072038Y0014800D01*
X0062038Y0014800D02*
X0062038Y0008800D01*
X0052038Y0008800D02*
X0052038Y0014800D01*
X0042038Y0014800D02*
X0042038Y0008800D01*
X0032038Y0008800D02*
X0032038Y0014800D01*
D20*
X0337038Y0066800D03*
D21*
X0227038Y0106800D03*
X0187038Y0106800D03*
D22*
X0187038Y0126800D03*
X0187038Y0136800D03*
X0217038Y0136800D03*
X0217038Y0126800D03*
D23*
X0197038Y0124300D02*
X0179538Y0106800D01*
X0179538Y0074300D01*
X0124538Y0019300D01*
X0117038Y0019300D01*
X0117038Y0006800D01*
X0114538Y0004300D01*
X0092038Y0004300D01*
X0092038Y0011800D01*
X0087038Y0006800D02*
X0084538Y0004300D01*
X0052038Y0004300D01*
X0052038Y0011800D01*
X0062038Y0011800D02*
X0077038Y0026800D01*
X0077038Y0076800D01*
X0082038Y0081800D01*
X0082038Y0244300D01*
X0072038Y0239300D02*
X0067038Y0244300D01*
X0072038Y0239300D02*
X0072038Y0169300D01*
X0067038Y0164300D01*
X0067038Y0066800D01*
X0069538Y0064300D01*
X0092038Y0059300D02*
X0092038Y0071800D01*
X0102038Y0071800D02*
X0102038Y0059300D01*
X0112038Y0071800D02*
X0112038Y0011800D01*
X0097038Y0026800D02*
X0087038Y0016800D01*
X0087038Y0006800D01*
X0082038Y0011800D02*
X0082038Y0014300D01*
X0087038Y0019300D01*
X0087038Y0294300D01*
X0317038Y0294300D01*
X0319538Y0291800D01*
X0319538Y0284300D01*
X0322038Y0281800D01*
X0332038Y0281800D02*
X0337038Y0276800D01*
X0337038Y0186800D01*
X0357038Y0166800D01*
X0357038Y0156800D02*
X0334538Y0179300D01*
X0334538Y0259300D01*
X0322038Y0271800D01*
X0342038Y0281800D02*
X0349538Y0274300D01*
X0349538Y0184300D01*
X0357038Y0176800D01*
X0324538Y0181800D02*
X0324538Y0059300D01*
X0337038Y0046800D01*
X0342038Y0044300D02*
X0317038Y0019300D01*
X0317038Y0291800D01*
X0194538Y0291800D01*
X0187038Y0284300D01*
X0187038Y0276800D01*
X0177038Y0276800D01*
X0172038Y0271800D01*
X0167038Y0276800D02*
X0167038Y0241800D01*
X0162038Y0231800D02*
X0177038Y0216800D01*
X0177038Y0129300D01*
X0187038Y0119300D01*
X0197038Y0124300D02*
X0197038Y0266800D01*
X0202038Y0271800D01*
X0197038Y0269300D02*
X0197038Y0284300D01*
X0202038Y0289300D01*
X0252038Y0289300D01*
X0252038Y0281800D01*
X0252038Y0276800D02*
X0252038Y0271800D01*
X0252038Y0276800D02*
X0294538Y0276800D01*
X0297038Y0274300D01*
X0297038Y0269300D01*
X0299538Y0266800D01*
X0299538Y0189300D01*
X0297038Y0186800D01*
X0299538Y0179300D02*
X0292038Y0179300D01*
X0292038Y0221800D01*
X0297038Y0226800D01*
X0297038Y0236800D01*
X0294538Y0239300D01*
X0272038Y0239300D01*
X0272038Y0231800D01*
X0272038Y0166800D01*
X0262038Y0166800D01*
X0247038Y0181800D01*
X0247038Y0236800D01*
X0244538Y0239300D01*
X0244538Y0269300D01*
X0242038Y0271800D01*
X0237038Y0276800D02*
X0232038Y0281800D01*
X0237038Y0276800D02*
X0237038Y0199300D01*
X0242038Y0199300D01*
X0237038Y0199300D02*
X0237038Y0156800D01*
X0277038Y0156800D01*
X0292038Y0171800D02*
X0277038Y0186800D01*
X0289538Y0199300D01*
X0289538Y0229300D01*
X0292038Y0231800D01*
X0267038Y0246800D02*
X0267038Y0176800D01*
X0262038Y0171800D01*
X0292038Y0171800D02*
X0292038Y0134300D01*
X0287038Y0134300D01*
X0292038Y0134300D02*
X0292038Y0041800D01*
X0262038Y0011800D01*
X0264538Y0004300D02*
X0242038Y0004300D01*
X0242038Y0011800D01*
X0232038Y0011800D02*
X0232038Y0019300D01*
X0274538Y0061800D01*
X0222038Y0061800D02*
X0222038Y0031800D01*
X0202038Y0011800D01*
X0192038Y0011800D02*
X0202038Y0021800D01*
X0202038Y0181800D01*
X0207038Y0179300D02*
X0209538Y0176800D01*
X0209538Y0041800D01*
X0207038Y0039300D01*
X0197038Y0056800D02*
X0187038Y0066800D01*
X0187038Y0106800D01*
X0167038Y0121800D02*
X0167038Y0224300D01*
X0159538Y0231800D01*
X0159538Y0266800D01*
X0157038Y0269300D01*
X0157038Y0274300D01*
X0159538Y0276800D01*
X0167038Y0276800D01*
X0162038Y0271800D02*
X0162038Y0231800D01*
X0149538Y0214300D02*
X0149538Y0254300D01*
X0154538Y0254300D02*
X0154538Y0259300D01*
X0149538Y0259300D01*
X0144538Y0254300D01*
X0144538Y0214300D01*
X0142038Y0211800D01*
X0149538Y0214300D02*
X0152038Y0211800D01*
X0127038Y0226800D02*
X0127038Y0101800D01*
X0142038Y0086800D01*
X0147038Y0081800D02*
X0122038Y0081800D01*
X0122038Y0181800D01*
X0132038Y0181800D02*
X0149538Y0164300D01*
X0182038Y0181800D02*
X0187038Y0176800D01*
X0187038Y0136800D01*
X0192038Y0144300D02*
X0192038Y0181800D01*
X0207038Y0179300D02*
X0207038Y0276800D01*
X0202038Y0281800D01*
X0212038Y0271800D02*
X0214538Y0274300D01*
X0214538Y0276800D01*
X0217038Y0279300D01*
X0217038Y0284300D01*
X0219538Y0286800D01*
X0247038Y0286800D01*
X0247038Y0239300D01*
X0252038Y0234300D01*
X0252038Y0231800D01*
X0262038Y0231800D02*
X0262038Y0271800D01*
X0267038Y0246800D02*
X0292038Y0271800D01*
X0232038Y0231800D02*
X0232038Y0169300D01*
X0217038Y0169300D01*
X0209538Y0176800D01*
X0217038Y0174300D02*
X0217038Y0276800D01*
X0222038Y0281800D01*
X0222038Y0271800D02*
X0227038Y0266800D01*
X0227038Y0174300D01*
X0182038Y0211800D02*
X0194538Y0224300D01*
X0194538Y0266800D01*
X0197038Y0269300D01*
X0152038Y0271800D02*
X0122038Y0241800D01*
X0122038Y0211800D01*
X0107038Y0221800D02*
X0097038Y0211800D01*
X0097038Y0026800D01*
X0117038Y0076800D02*
X0117038Y0231800D01*
X0112038Y0241800D02*
X0112038Y0111800D01*
X0142038Y0096800D02*
X0167038Y0121800D01*
X0147038Y0081800D02*
X0149538Y0079300D01*
X0149538Y0076800D01*
X0172038Y0076800D01*
X0142038Y0076800D02*
X0117038Y0076800D01*
X0222038Y0081800D02*
X0222038Y0101800D01*
X0227038Y0106800D01*
X0307038Y0156800D02*
X0312038Y0161800D01*
X0312038Y0204300D01*
X0307038Y0186800D02*
X0299538Y0179300D01*
X0329538Y0124300D02*
X0329538Y0074300D01*
X0337038Y0066800D01*
X0337038Y0056800D02*
X0342038Y0051800D01*
X0342038Y0044300D01*
X0317038Y0019300D02*
X0272038Y0019300D01*
X0272038Y0011800D01*
X0264538Y0004300D01*
X0062038Y0166800D02*
X0059538Y0164300D01*
X0044538Y0164300D01*
X0044538Y0274300D01*
X0054538Y0284300D01*
X0062038Y0284300D01*
X0062038Y0269300D01*
X0067038Y0264300D01*
X0074538Y0266800D02*
X0067038Y0274300D01*
X0074538Y0266800D02*
X0074538Y0206800D01*
X0077038Y0204300D01*
X0054538Y0204300D02*
X0052038Y0201800D01*
X0052038Y0184300D01*
X0052038Y0174300D01*
X0057038Y0169300D01*
X0062038Y0166800D02*
X0062038Y0179300D01*
X0067038Y0184300D01*
X0062038Y0184300D02*
X0062038Y0254300D01*
X0057038Y0259300D01*
X0052038Y0254300D02*
X0057038Y0249300D01*
X0054538Y0246800D01*
X0054538Y0204300D01*
X0057038Y0189300D02*
X0052038Y0184300D01*
X0057038Y0179300D02*
X0062038Y0184300D01*
X0049538Y0231800D02*
X0049538Y0271800D01*
X0057038Y0279300D01*
X0057038Y0269300D02*
X0052038Y0264300D01*
X0052038Y0254300D01*
X0112038Y0241800D02*
X0152038Y0281800D01*
D24*
X0154538Y0254300D03*
X0149538Y0254300D03*
X0117038Y0231800D03*
X0127038Y0226800D03*
X0107038Y0221800D03*
X0082038Y0244300D03*
X0049538Y0231800D03*
X0077038Y0204300D03*
X0149538Y0164300D03*
X0192038Y0144300D03*
X0187038Y0119300D03*
X0112038Y0111800D03*
X0069538Y0064300D03*
X0092038Y0059300D03*
X0102038Y0059300D03*
X0207038Y0039300D03*
X0274538Y0061800D03*
X0329538Y0124300D03*
X0287038Y0134300D03*
X0262038Y0171800D03*
X0227038Y0174300D03*
X0217038Y0174300D03*
X0242038Y0199300D03*
X0312038Y0204300D03*
X0324538Y0181800D03*
D25*
X0326666Y0184198D02*
X0332638Y0184198D01*
X0332638Y0185796D02*
X0318938Y0185796D01*
X0318938Y0184198D02*
X0322410Y0184198D01*
X0322725Y0184513D02*
X0321825Y0183613D01*
X0321338Y0182437D01*
X0321338Y0181163D01*
X0321825Y0179987D01*
X0322638Y0179175D01*
X0322638Y0058513D01*
X0323751Y0057400D01*
X0332838Y0048313D01*
X0332838Y0045060D01*
X0335298Y0042600D01*
X0337651Y0042600D01*
X0318938Y0023887D01*
X0318938Y0268960D01*
X0320298Y0267600D01*
X0323551Y0267600D01*
X0332638Y0258513D01*
X0332638Y0178513D01*
X0351083Y0160068D01*
X0350308Y0159292D01*
X0349638Y0157675D01*
X0349638Y0155925D01*
X0350308Y0154308D01*
X0351545Y0153070D01*
X0353163Y0152400D01*
X0360913Y0152400D01*
X0362530Y0153070D01*
X0362939Y0153478D01*
X0362939Y0150122D01*
X0362530Y0150530D01*
X0360913Y0151200D01*
X0353163Y0151200D01*
X0351545Y0150530D01*
X0350308Y0149292D01*
X0349638Y0147675D01*
X0349638Y0145925D01*
X0350308Y0144308D01*
X0351545Y0143070D01*
X0353163Y0142400D01*
X0360913Y0142400D01*
X0362530Y0143070D01*
X0362939Y0143478D01*
X0362939Y0140122D01*
X0362530Y0140530D01*
X0360913Y0141200D01*
X0353163Y0141200D01*
X0351545Y0140530D01*
X0350308Y0139292D01*
X0349638Y0137675D01*
X0349638Y0135925D01*
X0350308Y0134308D01*
X0351545Y0133070D01*
X0353163Y0132400D01*
X0360913Y0132400D01*
X0362530Y0133070D01*
X0362939Y0133478D01*
X0362939Y0004600D01*
X0318396Y0004600D01*
X0319530Y0005070D01*
X0320768Y0006308D01*
X0321438Y0007925D01*
X0321438Y0015675D01*
X0320768Y0017292D01*
X0319530Y0018530D01*
X0319123Y0018699D01*
X0343938Y0043513D01*
X0343938Y0043960D01*
X0345298Y0042600D01*
X0348777Y0042600D01*
X0351238Y0045060D01*
X0351238Y0048540D01*
X0348777Y0051000D01*
X0345298Y0051000D01*
X0343938Y0049640D01*
X0343938Y0052587D01*
X0342825Y0053700D01*
X0341238Y0055287D01*
X0341238Y0058540D01*
X0338777Y0061000D01*
X0335298Y0061000D01*
X0332838Y0058540D01*
X0332838Y0055060D01*
X0335298Y0052600D01*
X0338551Y0052600D01*
X0340138Y0051013D01*
X0340138Y0049640D01*
X0338777Y0051000D01*
X0335525Y0051000D01*
X0326438Y0060087D01*
X0326438Y0123422D01*
X0326825Y0122487D01*
X0327638Y0121675D01*
X0327638Y0073513D01*
X0328751Y0072400D01*
X0333036Y0068115D01*
X0332838Y0067635D01*
X0332838Y0065965D01*
X0333477Y0064421D01*
X0334659Y0063239D01*
X0336202Y0062600D01*
X0337873Y0062600D01*
X0339417Y0063239D01*
X0340598Y0064421D01*
X0341238Y0065965D01*
X0341238Y0067635D01*
X0340598Y0069179D01*
X0339417Y0070361D01*
X0337873Y0071000D01*
X0336202Y0071000D01*
X0335723Y0070802D01*
X0331438Y0075087D01*
X0331438Y0086392D01*
X0332441Y0083470D01*
X0332441Y0083470D01*
X0335130Y0080015D01*
X0338795Y0077620D01*
X0338795Y0077620D01*
X0343039Y0076545D01*
X0343039Y0076545D01*
X0347403Y0076907D01*
X0351412Y0078666D01*
X0351412Y0078666D01*
X0354633Y0081631D01*
X0356717Y0085481D01*
X0356717Y0085481D01*
X0357438Y0089800D01*
X0356717Y0094118D01*
X0356717Y0094119D01*
X0354633Y0097969D01*
X0351412Y0100934D01*
X0347403Y0102693D01*
X0347403Y0102693D01*
X0343039Y0103055D01*
X0338795Y0101980D01*
X0335130Y0099585D01*
X0332441Y0096130D01*
X0331438Y0093208D01*
X0331438Y0121675D01*
X0332251Y0122487D01*
X0332738Y0123663D01*
X0332738Y0124937D01*
X0332251Y0126113D01*
X0331350Y0127013D01*
X0330174Y0127500D01*
X0328901Y0127500D01*
X0327725Y0127013D01*
X0326825Y0126113D01*
X0326438Y0125178D01*
X0326438Y0179175D01*
X0327251Y0179987D01*
X0327738Y0181163D01*
X0327738Y0182437D01*
X0327251Y0183613D01*
X0326350Y0184513D01*
X0325174Y0185000D01*
X0323901Y0185000D01*
X0322725Y0184513D01*
X0321405Y0182599D02*
X0318938Y0182599D01*
X0318938Y0181001D02*
X0321405Y0181001D01*
X0322410Y0179402D02*
X0318938Y0179402D01*
X0318938Y0177803D02*
X0322638Y0177803D01*
X0322638Y0176205D02*
X0318938Y0176205D01*
X0318938Y0174606D02*
X0322638Y0174606D01*
X0322638Y0173008D02*
X0318938Y0173008D01*
X0318938Y0171409D02*
X0322638Y0171409D01*
X0322638Y0169811D02*
X0318938Y0169811D01*
X0318938Y0168212D02*
X0322638Y0168212D01*
X0322638Y0166614D02*
X0318938Y0166614D01*
X0318938Y0165015D02*
X0322638Y0165015D01*
X0322638Y0163417D02*
X0318938Y0163417D01*
X0318938Y0161818D02*
X0322638Y0161818D01*
X0322638Y0160220D02*
X0318938Y0160220D01*
X0318938Y0158621D02*
X0322638Y0158621D01*
X0322638Y0157023D02*
X0318938Y0157023D01*
X0318938Y0155424D02*
X0322638Y0155424D01*
X0322638Y0153826D02*
X0318938Y0153826D01*
X0318938Y0152227D02*
X0322638Y0152227D01*
X0322638Y0150629D02*
X0318938Y0150629D01*
X0318938Y0149030D02*
X0322638Y0149030D01*
X0322638Y0147432D02*
X0318938Y0147432D01*
X0318938Y0145833D02*
X0322638Y0145833D01*
X0322638Y0144235D02*
X0318938Y0144235D01*
X0318938Y0142636D02*
X0322638Y0142636D01*
X0322638Y0141038D02*
X0318938Y0141038D01*
X0318938Y0139439D02*
X0322638Y0139439D01*
X0322638Y0137841D02*
X0318938Y0137841D01*
X0318938Y0136242D02*
X0322638Y0136242D01*
X0322638Y0134644D02*
X0318938Y0134644D01*
X0318938Y0133045D02*
X0322638Y0133045D01*
X0322638Y0131447D02*
X0318938Y0131447D01*
X0318938Y0129848D02*
X0322638Y0129848D01*
X0322638Y0128250D02*
X0318938Y0128250D01*
X0318938Y0126651D02*
X0322638Y0126651D01*
X0322638Y0125053D02*
X0318938Y0125053D01*
X0318938Y0123454D02*
X0322638Y0123454D01*
X0322638Y0121856D02*
X0318938Y0121856D01*
X0318938Y0120257D02*
X0322638Y0120257D01*
X0322638Y0118659D02*
X0318938Y0118659D01*
X0318938Y0117060D02*
X0322638Y0117060D01*
X0322638Y0115462D02*
X0318938Y0115462D01*
X0318938Y0113863D02*
X0322638Y0113863D01*
X0322638Y0112265D02*
X0318938Y0112265D01*
X0318938Y0110666D02*
X0322638Y0110666D01*
X0322638Y0109068D02*
X0318938Y0109068D01*
X0318938Y0107469D02*
X0322638Y0107469D01*
X0322638Y0105870D02*
X0318938Y0105870D01*
X0318938Y0104272D02*
X0322638Y0104272D01*
X0322638Y0102673D02*
X0318938Y0102673D01*
X0318938Y0101075D02*
X0322638Y0101075D01*
X0322638Y0099476D02*
X0318938Y0099476D01*
X0318938Y0097878D02*
X0322638Y0097878D01*
X0322638Y0096279D02*
X0318938Y0096279D01*
X0318938Y0094681D02*
X0322638Y0094681D01*
X0322638Y0093082D02*
X0318938Y0093082D01*
X0318938Y0091484D02*
X0322638Y0091484D01*
X0322638Y0089885D02*
X0318938Y0089885D01*
X0318938Y0088287D02*
X0322638Y0088287D01*
X0322638Y0086688D02*
X0318938Y0086688D01*
X0318938Y0085090D02*
X0322638Y0085090D01*
X0322638Y0083491D02*
X0318938Y0083491D01*
X0318938Y0081893D02*
X0322638Y0081893D01*
X0322638Y0080294D02*
X0318938Y0080294D01*
X0318938Y0078696D02*
X0322638Y0078696D01*
X0322638Y0077097D02*
X0318938Y0077097D01*
X0318938Y0075499D02*
X0322638Y0075499D01*
X0322638Y0073900D02*
X0318938Y0073900D01*
X0318938Y0072302D02*
X0322638Y0072302D01*
X0322638Y0070703D02*
X0318938Y0070703D01*
X0318938Y0069105D02*
X0322638Y0069105D01*
X0322638Y0067506D02*
X0318938Y0067506D01*
X0318938Y0065908D02*
X0322638Y0065908D01*
X0322638Y0064309D02*
X0318938Y0064309D01*
X0318938Y0062711D02*
X0322638Y0062711D01*
X0322638Y0061112D02*
X0318938Y0061112D01*
X0318938Y0059514D02*
X0322638Y0059514D01*
X0323236Y0057915D02*
X0318938Y0057915D01*
X0318938Y0056317D02*
X0324834Y0056317D01*
X0326433Y0054718D02*
X0318938Y0054718D01*
X0318938Y0053120D02*
X0328031Y0053120D01*
X0329630Y0051521D02*
X0318938Y0051521D01*
X0318938Y0049923D02*
X0331228Y0049923D01*
X0332827Y0048324D02*
X0318938Y0048324D01*
X0318938Y0046726D02*
X0332838Y0046726D01*
X0332838Y0045127D02*
X0318938Y0045127D01*
X0318938Y0043529D02*
X0334370Y0043529D01*
X0336981Y0041930D02*
X0318938Y0041930D01*
X0318938Y0040332D02*
X0335382Y0040332D01*
X0333784Y0038733D02*
X0318938Y0038733D01*
X0318938Y0037134D02*
X0332185Y0037134D01*
X0330587Y0035536D02*
X0318938Y0035536D01*
X0318938Y0033937D02*
X0328988Y0033937D01*
X0327390Y0032339D02*
X0318938Y0032339D01*
X0318938Y0030740D02*
X0325791Y0030740D01*
X0324193Y0029142D02*
X0318938Y0029142D01*
X0318938Y0027543D02*
X0322594Y0027543D01*
X0320996Y0025945D02*
X0318938Y0025945D01*
X0318938Y0024346D02*
X0319397Y0024346D01*
X0321574Y0021149D02*
X0331178Y0021149D01*
X0331019Y0021611D02*
X0332441Y0017470D01*
X0332441Y0017470D01*
X0335130Y0014015D01*
X0335130Y0014015D01*
X0338795Y0011620D01*
X0338795Y0011620D01*
X0343039Y0010545D01*
X0343039Y0010545D01*
X0347403Y0010907D01*
X0351412Y0012666D01*
X0351412Y0012666D01*
X0354633Y0015631D01*
X0356717Y0019481D01*
X0356717Y0019481D01*
X0357438Y0023800D01*
X0356717Y0028119D01*
X0354633Y0031969D01*
X0351412Y0034934D01*
X0347403Y0036693D01*
X0343039Y0037055D01*
X0338795Y0035980D01*
X0335130Y0033585D01*
X0332441Y0030130D01*
X0331019Y0025989D01*
X0331019Y0021611D01*
X0331019Y0022748D02*
X0323173Y0022748D01*
X0324771Y0024346D02*
X0331019Y0024346D01*
X0331019Y0025945D02*
X0326370Y0025945D01*
X0327968Y0027543D02*
X0331553Y0027543D01*
X0332102Y0029142D02*
X0329567Y0029142D01*
X0331165Y0030740D02*
X0332916Y0030740D01*
X0332441Y0030130D02*
X0332441Y0030130D01*
X0332764Y0032339D02*
X0334160Y0032339D01*
X0335130Y0033585D02*
X0335130Y0033585D01*
X0335130Y0033585D01*
X0335669Y0033937D02*
X0334362Y0033937D01*
X0335961Y0035536D02*
X0338116Y0035536D01*
X0338795Y0035980D02*
X0338795Y0035980D01*
X0337559Y0037134D02*
X0362939Y0037134D01*
X0362939Y0035536D02*
X0350040Y0035536D01*
X0347403Y0036693D02*
X0347403Y0036693D01*
X0343039Y0037055D02*
X0343039Y0037055D01*
X0340756Y0040332D02*
X0362939Y0040332D01*
X0362939Y0041930D02*
X0342355Y0041930D01*
X0343938Y0043529D02*
X0344370Y0043529D01*
X0349706Y0043529D02*
X0362939Y0043529D01*
X0362939Y0045127D02*
X0351238Y0045127D01*
X0351238Y0046726D02*
X0362939Y0046726D01*
X0362939Y0048324D02*
X0351238Y0048324D01*
X0349855Y0049923D02*
X0362939Y0049923D01*
X0362939Y0051521D02*
X0343938Y0051521D01*
X0343938Y0049923D02*
X0344221Y0049923D01*
X0345298Y0052600D02*
X0348777Y0052600D01*
X0351238Y0055060D01*
X0351238Y0058540D01*
X0348777Y0061000D01*
X0345298Y0061000D01*
X0342838Y0058540D01*
X0342838Y0055060D01*
X0345298Y0052600D01*
X0344778Y0053120D02*
X0343405Y0053120D01*
X0343180Y0054718D02*
X0341807Y0054718D01*
X0341238Y0056317D02*
X0342838Y0056317D01*
X0342838Y0057915D02*
X0341238Y0057915D01*
X0340264Y0059514D02*
X0343812Y0059514D01*
X0345050Y0062000D02*
X0342238Y0064812D01*
X0342238Y0066700D01*
X0346938Y0066700D01*
X0347138Y0066700D01*
X0347138Y0066900D01*
X0351838Y0066900D01*
X0351838Y0068788D01*
X0349026Y0071600D01*
X0347138Y0071600D01*
X0347138Y0066900D01*
X0346938Y0066900D01*
X0346938Y0071600D01*
X0345050Y0071600D01*
X0342238Y0068788D01*
X0342238Y0066900D01*
X0346938Y0066900D01*
X0346938Y0066700D01*
X0346938Y0062000D01*
X0345050Y0062000D01*
X0344339Y0062711D02*
X0338140Y0062711D01*
X0335935Y0062711D02*
X0326438Y0062711D01*
X0326438Y0064309D02*
X0333589Y0064309D01*
X0332861Y0065908D02*
X0326438Y0065908D01*
X0326438Y0067506D02*
X0332838Y0067506D01*
X0332046Y0069105D02*
X0326438Y0069105D01*
X0326438Y0070703D02*
X0330448Y0070703D01*
X0328849Y0072302D02*
X0326438Y0072302D01*
X0326438Y0073900D02*
X0327638Y0073900D01*
X0327638Y0075499D02*
X0326438Y0075499D01*
X0326438Y0077097D02*
X0327638Y0077097D01*
X0327638Y0078696D02*
X0326438Y0078696D01*
X0326438Y0080294D02*
X0327638Y0080294D01*
X0327638Y0081893D02*
X0326438Y0081893D01*
X0326438Y0083491D02*
X0327638Y0083491D01*
X0327638Y0085090D02*
X0326438Y0085090D01*
X0326438Y0086688D02*
X0327638Y0086688D01*
X0327638Y0088287D02*
X0326438Y0088287D01*
X0326438Y0089885D02*
X0327638Y0089885D01*
X0327638Y0091484D02*
X0326438Y0091484D01*
X0326438Y0093082D02*
X0327638Y0093082D01*
X0327638Y0094681D02*
X0326438Y0094681D01*
X0326438Y0096279D02*
X0327638Y0096279D01*
X0327638Y0097878D02*
X0326438Y0097878D01*
X0326438Y0099476D02*
X0327638Y0099476D01*
X0327638Y0101075D02*
X0326438Y0101075D01*
X0326438Y0102673D02*
X0327638Y0102673D01*
X0327638Y0104272D02*
X0326438Y0104272D01*
X0326438Y0105870D02*
X0327638Y0105870D01*
X0327638Y0107469D02*
X0326438Y0107469D01*
X0326438Y0109068D02*
X0327638Y0109068D01*
X0327638Y0110666D02*
X0326438Y0110666D01*
X0326438Y0112265D02*
X0327638Y0112265D01*
X0327638Y0113863D02*
X0326438Y0113863D01*
X0326438Y0115462D02*
X0327638Y0115462D01*
X0327638Y0117060D02*
X0326438Y0117060D01*
X0326438Y0118659D02*
X0327638Y0118659D01*
X0327638Y0120257D02*
X0326438Y0120257D01*
X0326438Y0121856D02*
X0327457Y0121856D01*
X0331619Y0121856D02*
X0362939Y0121856D01*
X0362939Y0123454D02*
X0332651Y0123454D01*
X0332690Y0125053D02*
X0362939Y0125053D01*
X0362939Y0126651D02*
X0331712Y0126651D01*
X0327363Y0126651D02*
X0326438Y0126651D01*
X0326438Y0128250D02*
X0362939Y0128250D01*
X0362939Y0129848D02*
X0326438Y0129848D01*
X0326438Y0131447D02*
X0362939Y0131447D01*
X0362939Y0133045D02*
X0362471Y0133045D01*
X0351605Y0133045D02*
X0326438Y0133045D01*
X0326438Y0134644D02*
X0350168Y0134644D01*
X0349638Y0136242D02*
X0326438Y0136242D01*
X0326438Y0137841D02*
X0349706Y0137841D01*
X0350454Y0139439D02*
X0326438Y0139439D01*
X0326438Y0141038D02*
X0352771Y0141038D01*
X0352592Y0142636D02*
X0326438Y0142636D01*
X0326438Y0144235D02*
X0350380Y0144235D01*
X0349676Y0145833D02*
X0326438Y0145833D01*
X0326438Y0147432D02*
X0349638Y0147432D01*
X0350199Y0149030D02*
X0326438Y0149030D01*
X0326438Y0150629D02*
X0351784Y0150629D01*
X0350789Y0153826D02*
X0326438Y0153826D01*
X0326438Y0155424D02*
X0349845Y0155424D01*
X0349638Y0157023D02*
X0326438Y0157023D01*
X0326438Y0158621D02*
X0350030Y0158621D01*
X0350931Y0160220D02*
X0326438Y0160220D01*
X0326438Y0161818D02*
X0349332Y0161818D01*
X0347734Y0163417D02*
X0326438Y0163417D01*
X0326438Y0165015D02*
X0346135Y0165015D01*
X0344537Y0166614D02*
X0326438Y0166614D01*
X0326438Y0168212D02*
X0342938Y0168212D01*
X0341340Y0169811D02*
X0326438Y0169811D01*
X0326438Y0171409D02*
X0339741Y0171409D01*
X0338143Y0173008D02*
X0326438Y0173008D01*
X0326438Y0174606D02*
X0336544Y0174606D01*
X0334946Y0176205D02*
X0326438Y0176205D01*
X0326438Y0177803D02*
X0333347Y0177803D01*
X0332638Y0179402D02*
X0326665Y0179402D01*
X0327670Y0181001D02*
X0332638Y0181001D01*
X0332638Y0182599D02*
X0327670Y0182599D01*
X0332638Y0187395D02*
X0318938Y0187395D01*
X0318938Y0188993D02*
X0332638Y0188993D01*
X0332638Y0190592D02*
X0318938Y0190592D01*
X0318938Y0192190D02*
X0332638Y0192190D01*
X0332638Y0193789D02*
X0318938Y0193789D01*
X0318938Y0195387D02*
X0332638Y0195387D01*
X0332638Y0196986D02*
X0318938Y0196986D01*
X0318938Y0198584D02*
X0332638Y0198584D01*
X0332638Y0200183D02*
X0318938Y0200183D01*
X0318938Y0201781D02*
X0332638Y0201781D01*
X0332638Y0203380D02*
X0318938Y0203380D01*
X0318938Y0204978D02*
X0332638Y0204978D01*
X0332638Y0206577D02*
X0318938Y0206577D01*
X0318938Y0208175D02*
X0332638Y0208175D01*
X0332638Y0209774D02*
X0318938Y0209774D01*
X0318938Y0211372D02*
X0332638Y0211372D01*
X0332638Y0212971D02*
X0318938Y0212971D01*
X0318938Y0214569D02*
X0332638Y0214569D01*
X0332638Y0216168D02*
X0318938Y0216168D01*
X0318938Y0217766D02*
X0332638Y0217766D01*
X0332638Y0219365D02*
X0318938Y0219365D01*
X0318938Y0220963D02*
X0332638Y0220963D01*
X0332638Y0222562D02*
X0318938Y0222562D01*
X0318938Y0224160D02*
X0332638Y0224160D01*
X0332638Y0225759D02*
X0318938Y0225759D01*
X0318938Y0227357D02*
X0332638Y0227357D01*
X0332638Y0228956D02*
X0318938Y0228956D01*
X0318938Y0230554D02*
X0332638Y0230554D01*
X0332638Y0232153D02*
X0318938Y0232153D01*
X0318938Y0233751D02*
X0332638Y0233751D01*
X0332638Y0235350D02*
X0318938Y0235350D01*
X0318938Y0236948D02*
X0332638Y0236948D01*
X0332638Y0238547D02*
X0318938Y0238547D01*
X0318938Y0240145D02*
X0332638Y0240145D01*
X0332638Y0241744D02*
X0318938Y0241744D01*
X0318938Y0243342D02*
X0332638Y0243342D01*
X0332638Y0244941D02*
X0318938Y0244941D01*
X0318938Y0246539D02*
X0332638Y0246539D01*
X0332638Y0248138D02*
X0318938Y0248138D01*
X0318938Y0249737D02*
X0332638Y0249737D01*
X0332638Y0251335D02*
X0318938Y0251335D01*
X0318938Y0252934D02*
X0332638Y0252934D01*
X0332638Y0254532D02*
X0318938Y0254532D01*
X0318938Y0256131D02*
X0332638Y0256131D01*
X0332638Y0257729D02*
X0318938Y0257729D01*
X0318938Y0259328D02*
X0331823Y0259328D01*
X0330225Y0260926D02*
X0318938Y0260926D01*
X0318938Y0262525D02*
X0328626Y0262525D01*
X0327028Y0264123D02*
X0318938Y0264123D01*
X0318938Y0265722D02*
X0325429Y0265722D01*
X0323831Y0267320D02*
X0318938Y0267320D01*
X0318938Y0268919D02*
X0318979Y0268919D01*
X0315138Y0268919D02*
X0315096Y0268919D01*
X0315138Y0268960D02*
X0315138Y0205701D01*
X0315051Y0205910D01*
X0314679Y0206467D01*
X0314205Y0206941D01*
X0313648Y0207313D01*
X0313030Y0207569D01*
X0312373Y0207700D01*
X0312038Y0207700D01*
X0312038Y0204300D01*
X0312038Y0204300D01*
X0312038Y0200900D01*
X0312373Y0200900D01*
X0313030Y0201031D01*
X0313648Y0201287D01*
X0314205Y0201659D01*
X0314679Y0202133D01*
X0315051Y0202689D01*
X0315138Y0202899D01*
X0315138Y0021200D01*
X0274125Y0021200D01*
X0292825Y0039900D01*
X0293938Y0041013D01*
X0293938Y0151643D01*
X0294772Y0150809D01*
X0296242Y0150200D01*
X0297833Y0150200D01*
X0299304Y0150809D01*
X0300429Y0151934D01*
X0301038Y0153404D01*
X0301038Y0160196D01*
X0300429Y0161666D01*
X0299304Y0162791D01*
X0297833Y0163400D01*
X0296242Y0163400D01*
X0294772Y0162791D01*
X0293938Y0161957D01*
X0293938Y0172587D01*
X0286325Y0180200D01*
X0287833Y0180200D01*
X0289304Y0180809D01*
X0290138Y0181643D01*
X0290138Y0178513D01*
X0291251Y0177400D01*
X0300325Y0177400D01*
X0301438Y0178513D01*
X0304253Y0181328D01*
X0304772Y0180809D01*
X0306242Y0180200D01*
X0307833Y0180200D01*
X0309304Y0180809D01*
X0310429Y0181934D01*
X0311038Y0183404D01*
X0311038Y0190196D01*
X0310429Y0191666D01*
X0309304Y0192791D01*
X0307833Y0193400D01*
X0306242Y0193400D01*
X0304772Y0192791D01*
X0303647Y0191666D01*
X0303038Y0190196D01*
X0303038Y0185487D01*
X0301038Y0183487D01*
X0301038Y0188113D01*
X0301438Y0188513D01*
X0301438Y0267587D01*
X0301425Y0267600D01*
X0303777Y0267600D01*
X0306238Y0270060D01*
X0306238Y0273540D01*
X0303777Y0276000D01*
X0300298Y0276000D01*
X0298938Y0274640D01*
X0298938Y0275087D01*
X0296438Y0277587D01*
X0295325Y0278700D01*
X0294877Y0278700D01*
X0296238Y0280060D01*
X0296238Y0283540D01*
X0293777Y0286000D01*
X0290298Y0286000D01*
X0287838Y0283540D01*
X0287838Y0280060D01*
X0289198Y0278700D01*
X0284877Y0278700D01*
X0286238Y0280060D01*
X0286238Y0283540D01*
X0283777Y0286000D01*
X0280298Y0286000D01*
X0277838Y0283540D01*
X0277838Y0280060D01*
X0279198Y0278700D01*
X0274877Y0278700D01*
X0276238Y0280060D01*
X0276238Y0283540D01*
X0273777Y0286000D01*
X0270298Y0286000D01*
X0267838Y0283540D01*
X0267838Y0280060D01*
X0269198Y0278700D01*
X0264877Y0278700D01*
X0266238Y0280060D01*
X0266238Y0283540D01*
X0263777Y0286000D01*
X0260298Y0286000D01*
X0257838Y0283540D01*
X0257838Y0280060D01*
X0259198Y0278700D01*
X0254877Y0278700D01*
X0256238Y0280060D01*
X0256238Y0283540D01*
X0253938Y0285840D01*
X0253938Y0289900D01*
X0315138Y0289900D01*
X0315138Y0284640D01*
X0313777Y0286000D01*
X0310298Y0286000D01*
X0307838Y0283540D01*
X0307838Y0280060D01*
X0310298Y0277600D01*
X0313777Y0277600D01*
X0315138Y0278960D01*
X0315138Y0274640D01*
X0313777Y0276000D01*
X0310298Y0276000D01*
X0307838Y0273540D01*
X0307838Y0270060D01*
X0310298Y0267600D01*
X0313777Y0267600D01*
X0315138Y0268960D01*
X0315138Y0267320D02*
X0301438Y0267320D01*
X0301438Y0265722D02*
X0315138Y0265722D01*
X0315138Y0264123D02*
X0301438Y0264123D01*
X0301438Y0262525D02*
X0315138Y0262525D01*
X0315138Y0260926D02*
X0301438Y0260926D01*
X0301438Y0259328D02*
X0315138Y0259328D01*
X0315138Y0257729D02*
X0301438Y0257729D01*
X0301438Y0256131D02*
X0315138Y0256131D01*
X0315138Y0254532D02*
X0301438Y0254532D01*
X0301438Y0252934D02*
X0315138Y0252934D01*
X0315138Y0251335D02*
X0301438Y0251335D01*
X0301438Y0249737D02*
X0315138Y0249737D01*
X0315138Y0248138D02*
X0301438Y0248138D01*
X0301438Y0246539D02*
X0315138Y0246539D01*
X0315138Y0244941D02*
X0301438Y0244941D01*
X0301438Y0243342D02*
X0315138Y0243342D01*
X0315138Y0241744D02*
X0301438Y0241744D01*
X0301438Y0240145D02*
X0315138Y0240145D01*
X0315138Y0238547D02*
X0301438Y0238547D01*
X0301438Y0236948D02*
X0315138Y0236948D01*
X0315138Y0235350D02*
X0301438Y0235350D01*
X0301438Y0233751D02*
X0315138Y0233751D01*
X0315138Y0232153D02*
X0301438Y0232153D01*
X0301438Y0230554D02*
X0315138Y0230554D01*
X0315138Y0228956D02*
X0301438Y0228956D01*
X0301438Y0227357D02*
X0315138Y0227357D01*
X0315138Y0225759D02*
X0301438Y0225759D01*
X0301438Y0224160D02*
X0315138Y0224160D01*
X0315138Y0222562D02*
X0301438Y0222562D01*
X0301438Y0220963D02*
X0315138Y0220963D01*
X0315138Y0219365D02*
X0301438Y0219365D01*
X0301438Y0217766D02*
X0315138Y0217766D01*
X0315138Y0216168D02*
X0301438Y0216168D01*
X0301438Y0214569D02*
X0315138Y0214569D01*
X0315138Y0212971D02*
X0301438Y0212971D01*
X0301438Y0211372D02*
X0315138Y0211372D01*
X0315138Y0209774D02*
X0301438Y0209774D01*
X0301438Y0208175D02*
X0315138Y0208175D01*
X0315138Y0206577D02*
X0314569Y0206577D01*
X0312038Y0206577D02*
X0312038Y0206577D01*
X0312038Y0207700D02*
X0311703Y0207700D01*
X0311046Y0207569D01*
X0310427Y0207313D01*
X0309870Y0206941D01*
X0309397Y0206467D01*
X0309025Y0205910D01*
X0308768Y0205292D01*
X0308638Y0204635D01*
X0308638Y0204300D01*
X0312038Y0204300D01*
X0312038Y0204300D01*
X0312038Y0200900D01*
X0311703Y0200900D01*
X0311046Y0201031D01*
X0310427Y0201287D01*
X0309870Y0201659D01*
X0309397Y0202133D01*
X0309025Y0202689D01*
X0308768Y0203308D01*
X0308638Y0203965D01*
X0308638Y0204300D01*
X0312038Y0204300D01*
X0312038Y0207700D01*
X0312038Y0204978D02*
X0312038Y0204978D01*
X0312038Y0204300D02*
X0312038Y0204300D01*
X0312038Y0203380D02*
X0312038Y0203380D01*
X0312038Y0201781D02*
X0312038Y0201781D01*
X0314327Y0201781D02*
X0315138Y0201781D01*
X0315138Y0200183D02*
X0301438Y0200183D01*
X0301438Y0201781D02*
X0309748Y0201781D01*
X0308754Y0203380D02*
X0301438Y0203380D01*
X0301438Y0204978D02*
X0308706Y0204978D01*
X0309506Y0206577D02*
X0301438Y0206577D01*
X0301438Y0198584D02*
X0315138Y0198584D01*
X0315138Y0196986D02*
X0301438Y0196986D01*
X0301438Y0195387D02*
X0315138Y0195387D01*
X0315138Y0193789D02*
X0301438Y0193789D01*
X0301438Y0192190D02*
X0304171Y0192190D01*
X0303202Y0190592D02*
X0301438Y0190592D01*
X0301438Y0188993D02*
X0303038Y0188993D01*
X0303038Y0187395D02*
X0301038Y0187395D01*
X0301038Y0185796D02*
X0303038Y0185796D01*
X0301748Y0184198D02*
X0301038Y0184198D01*
X0303925Y0181001D02*
X0304580Y0181001D01*
X0302327Y0179402D02*
X0315138Y0179402D01*
X0315138Y0181001D02*
X0309495Y0181001D01*
X0310704Y0182599D02*
X0315138Y0182599D01*
X0315138Y0184198D02*
X0311038Y0184198D01*
X0311038Y0185796D02*
X0315138Y0185796D01*
X0315138Y0187395D02*
X0311038Y0187395D01*
X0311038Y0188993D02*
X0315138Y0188993D01*
X0315138Y0190592D02*
X0310874Y0190592D01*
X0309905Y0192190D02*
X0315138Y0192190D01*
X0315138Y0177803D02*
X0300728Y0177803D01*
X0293517Y0173008D02*
X0315138Y0173008D01*
X0315138Y0174606D02*
X0291918Y0174606D01*
X0290320Y0176205D02*
X0315138Y0176205D01*
X0315138Y0171409D02*
X0293938Y0171409D01*
X0293938Y0169811D02*
X0315138Y0169811D01*
X0315138Y0168212D02*
X0293938Y0168212D01*
X0293938Y0166614D02*
X0315138Y0166614D01*
X0315138Y0165015D02*
X0293938Y0165015D01*
X0293938Y0163417D02*
X0304789Y0163417D01*
X0304627Y0163334D02*
X0304041Y0162909D01*
X0303529Y0162397D01*
X0303104Y0161811D01*
X0302775Y0161166D01*
X0302551Y0160477D01*
X0302438Y0159762D01*
X0302438Y0156800D01*
X0307038Y0156800D01*
X0311638Y0156800D01*
X0311638Y0159762D01*
X0311525Y0160477D01*
X0311301Y0161166D01*
X0310972Y0161811D01*
X0310546Y0162397D01*
X0310034Y0162909D01*
X0309449Y0163334D01*
X0308804Y0163663D01*
X0308115Y0163887D01*
X0307400Y0164000D01*
X0307038Y0164000D01*
X0307038Y0156800D01*
X0307038Y0156800D01*
X0311638Y0156800D01*
X0311638Y0153838D01*
X0311525Y0153123D01*
X0311301Y0152434D01*
X0310972Y0151789D01*
X0310546Y0151203D01*
X0310034Y0150691D01*
X0309449Y0150266D01*
X0308804Y0149937D01*
X0308115Y0149713D01*
X0307400Y0149600D01*
X0307038Y0149600D01*
X0307038Y0156800D01*
X0307038Y0156800D01*
X0307038Y0156800D01*
X0307038Y0149600D01*
X0306676Y0149600D01*
X0305961Y0149713D01*
X0305272Y0149937D01*
X0304627Y0150266D01*
X0304041Y0150691D01*
X0303529Y0151203D01*
X0303104Y0151789D01*
X0302775Y0152434D01*
X0302551Y0153123D01*
X0302438Y0153838D01*
X0302438Y0156800D01*
X0307038Y0156800D01*
X0307038Y0164000D01*
X0306676Y0164000D01*
X0305961Y0163887D01*
X0305272Y0163663D01*
X0304627Y0163334D01*
X0303109Y0161818D02*
X0300276Y0161818D01*
X0301028Y0160220D02*
X0302510Y0160220D01*
X0302438Y0158621D02*
X0301038Y0158621D01*
X0301038Y0157023D02*
X0302438Y0157023D01*
X0302438Y0155424D02*
X0301038Y0155424D01*
X0301038Y0153826D02*
X0302440Y0153826D01*
X0302880Y0152227D02*
X0300550Y0152227D01*
X0298869Y0150629D02*
X0304127Y0150629D01*
X0307038Y0150629D02*
X0307038Y0150629D01*
X0307038Y0152227D02*
X0307038Y0152227D01*
X0307038Y0153826D02*
X0307038Y0153826D01*
X0307038Y0155424D02*
X0307038Y0155424D01*
X0307038Y0156800D02*
X0307038Y0156800D01*
X0307038Y0157023D02*
X0307038Y0157023D01*
X0307038Y0158621D02*
X0307038Y0158621D01*
X0307038Y0160220D02*
X0307038Y0160220D01*
X0307038Y0161818D02*
X0307038Y0161818D01*
X0307038Y0163417D02*
X0307038Y0163417D01*
X0309287Y0163417D02*
X0315138Y0163417D01*
X0315138Y0161818D02*
X0310967Y0161818D01*
X0311565Y0160220D02*
X0315138Y0160220D01*
X0315138Y0158621D02*
X0311638Y0158621D01*
X0311638Y0157023D02*
X0315138Y0157023D01*
X0315138Y0155424D02*
X0311638Y0155424D01*
X0311636Y0153826D02*
X0315138Y0153826D01*
X0315138Y0152227D02*
X0311195Y0152227D01*
X0309948Y0150629D02*
X0315138Y0150629D01*
X0315138Y0149030D02*
X0293938Y0149030D01*
X0293938Y0147432D02*
X0315138Y0147432D01*
X0315138Y0145833D02*
X0293938Y0145833D01*
X0293938Y0144235D02*
X0315138Y0144235D01*
X0315138Y0142636D02*
X0293938Y0142636D01*
X0293938Y0141038D02*
X0315138Y0141038D01*
X0315138Y0139439D02*
X0293938Y0139439D01*
X0293938Y0137841D02*
X0315138Y0137841D01*
X0315138Y0136242D02*
X0293938Y0136242D01*
X0293938Y0134644D02*
X0315138Y0134644D01*
X0315138Y0133045D02*
X0293938Y0133045D01*
X0293938Y0131447D02*
X0315138Y0131447D01*
X0315138Y0129848D02*
X0293938Y0129848D01*
X0293938Y0128250D02*
X0315138Y0128250D01*
X0315138Y0126651D02*
X0293938Y0126651D01*
X0293938Y0125053D02*
X0315138Y0125053D01*
X0315138Y0123454D02*
X0293938Y0123454D01*
X0293938Y0121856D02*
X0315138Y0121856D01*
X0315138Y0120257D02*
X0293938Y0120257D01*
X0293938Y0118659D02*
X0315138Y0118659D01*
X0315138Y0117060D02*
X0293938Y0117060D01*
X0293938Y0115462D02*
X0315138Y0115462D01*
X0315138Y0113863D02*
X0293938Y0113863D01*
X0293938Y0112265D02*
X0315138Y0112265D01*
X0315138Y0110666D02*
X0293938Y0110666D01*
X0293938Y0109068D02*
X0315138Y0109068D01*
X0315138Y0107469D02*
X0293938Y0107469D01*
X0293938Y0105870D02*
X0315138Y0105870D01*
X0315138Y0104272D02*
X0293938Y0104272D01*
X0293938Y0102673D02*
X0315138Y0102673D01*
X0315138Y0101075D02*
X0293938Y0101075D01*
X0293938Y0099476D02*
X0315138Y0099476D01*
X0315138Y0097878D02*
X0293938Y0097878D01*
X0293938Y0096279D02*
X0315138Y0096279D01*
X0315138Y0094681D02*
X0293938Y0094681D01*
X0293938Y0093082D02*
X0315138Y0093082D01*
X0315138Y0091484D02*
X0293938Y0091484D01*
X0293938Y0089885D02*
X0315138Y0089885D01*
X0315138Y0088287D02*
X0293938Y0088287D01*
X0293938Y0086688D02*
X0315138Y0086688D01*
X0315138Y0085090D02*
X0293938Y0085090D01*
X0293938Y0083491D02*
X0315138Y0083491D01*
X0315138Y0081893D02*
X0293938Y0081893D01*
X0293938Y0080294D02*
X0315138Y0080294D01*
X0315138Y0078696D02*
X0293938Y0078696D01*
X0293938Y0077097D02*
X0315138Y0077097D01*
X0315138Y0075499D02*
X0293938Y0075499D01*
X0293938Y0073900D02*
X0315138Y0073900D01*
X0315138Y0072302D02*
X0293938Y0072302D01*
X0293938Y0070703D02*
X0315138Y0070703D01*
X0315138Y0069105D02*
X0293938Y0069105D01*
X0293938Y0067506D02*
X0315138Y0067506D01*
X0315138Y0065908D02*
X0293938Y0065908D01*
X0293938Y0064309D02*
X0315138Y0064309D01*
X0315138Y0062711D02*
X0293938Y0062711D01*
X0293938Y0061112D02*
X0315138Y0061112D01*
X0315138Y0059514D02*
X0293938Y0059514D01*
X0293938Y0057915D02*
X0315138Y0057915D01*
X0315138Y0056317D02*
X0293938Y0056317D01*
X0293938Y0054718D02*
X0315138Y0054718D01*
X0315138Y0053120D02*
X0293938Y0053120D01*
X0293938Y0051521D02*
X0315138Y0051521D01*
X0315138Y0049923D02*
X0293938Y0049923D01*
X0293938Y0048324D02*
X0315138Y0048324D01*
X0315138Y0046726D02*
X0293938Y0046726D01*
X0293938Y0045127D02*
X0315138Y0045127D01*
X0315138Y0043529D02*
X0293938Y0043529D01*
X0293938Y0041930D02*
X0315138Y0041930D01*
X0315138Y0040332D02*
X0293256Y0040332D01*
X0291658Y0038733D02*
X0315138Y0038733D01*
X0315138Y0037134D02*
X0290059Y0037134D01*
X0288461Y0035536D02*
X0315138Y0035536D01*
X0315138Y0033937D02*
X0286862Y0033937D01*
X0285264Y0032339D02*
X0315138Y0032339D01*
X0315138Y0030740D02*
X0283665Y0030740D01*
X0282067Y0029142D02*
X0315138Y0029142D01*
X0315138Y0027543D02*
X0280468Y0027543D01*
X0278870Y0025945D02*
X0315138Y0025945D01*
X0315138Y0024346D02*
X0277271Y0024346D01*
X0275673Y0022748D02*
X0315138Y0022748D01*
X0319976Y0019551D02*
X0331726Y0019551D01*
X0332275Y0017952D02*
X0320108Y0017952D01*
X0321157Y0016354D02*
X0333309Y0016354D01*
X0334554Y0014755D02*
X0321438Y0014755D01*
X0321438Y0013157D02*
X0336443Y0013157D01*
X0335130Y0014015D02*
X0335130Y0014015D01*
X0339040Y0011558D02*
X0321438Y0011558D01*
X0321438Y0009960D02*
X0362939Y0009960D01*
X0362939Y0011558D02*
X0348888Y0011558D01*
X0347403Y0010907D02*
X0347403Y0010907D01*
X0351946Y0013157D02*
X0362939Y0013157D01*
X0362939Y0014755D02*
X0353682Y0014755D01*
X0354633Y0015631D02*
X0354633Y0015631D01*
X0355025Y0016354D02*
X0362939Y0016354D01*
X0362939Y0017952D02*
X0355890Y0017952D01*
X0356729Y0019551D02*
X0362939Y0019551D01*
X0362939Y0021149D02*
X0356995Y0021149D01*
X0357262Y0022748D02*
X0362939Y0022748D01*
X0362939Y0024346D02*
X0357347Y0024346D01*
X0357080Y0025945D02*
X0362939Y0025945D01*
X0362939Y0027543D02*
X0356813Y0027543D01*
X0356163Y0029142D02*
X0362939Y0029142D01*
X0362939Y0030740D02*
X0355298Y0030740D01*
X0354633Y0031969D02*
X0354633Y0031969D01*
X0354231Y0032339D02*
X0362939Y0032339D01*
X0362939Y0033937D02*
X0352495Y0033937D01*
X0362939Y0038733D02*
X0339158Y0038733D01*
X0339855Y0049923D02*
X0340138Y0049923D01*
X0339630Y0051521D02*
X0335004Y0051521D01*
X0334778Y0053120D02*
X0333405Y0053120D01*
X0333180Y0054718D02*
X0331807Y0054718D01*
X0332838Y0056317D02*
X0330208Y0056317D01*
X0328610Y0057915D02*
X0332838Y0057915D01*
X0333812Y0059514D02*
X0327011Y0059514D01*
X0326438Y0061112D02*
X0362939Y0061112D01*
X0362939Y0059514D02*
X0350264Y0059514D01*
X0351238Y0057915D02*
X0362939Y0057915D01*
X0362939Y0056317D02*
X0351238Y0056317D01*
X0350896Y0054718D02*
X0362939Y0054718D01*
X0362939Y0053120D02*
X0349297Y0053120D01*
X0349026Y0062000D02*
X0351838Y0064812D01*
X0351838Y0066700D01*
X0347138Y0066700D01*
X0347138Y0062000D01*
X0349026Y0062000D01*
X0349737Y0062711D02*
X0362939Y0062711D01*
X0362939Y0064309D02*
X0351335Y0064309D01*
X0351838Y0065908D02*
X0362939Y0065908D01*
X0362939Y0067506D02*
X0351838Y0067506D01*
X0351521Y0069105D02*
X0362939Y0069105D01*
X0362939Y0070703D02*
X0349923Y0070703D01*
X0347138Y0070703D02*
X0346938Y0070703D01*
X0346938Y0069105D02*
X0347138Y0069105D01*
X0347138Y0067506D02*
X0346938Y0067506D01*
X0346938Y0065908D02*
X0347138Y0065908D01*
X0347138Y0064309D02*
X0346938Y0064309D01*
X0346938Y0062711D02*
X0347138Y0062711D01*
X0342740Y0064309D02*
X0340487Y0064309D01*
X0341214Y0065908D02*
X0342238Y0065908D01*
X0342238Y0067506D02*
X0341238Y0067506D01*
X0340629Y0069105D02*
X0342554Y0069105D01*
X0344153Y0070703D02*
X0338590Y0070703D01*
X0334223Y0072302D02*
X0362939Y0072302D01*
X0362939Y0073900D02*
X0332625Y0073900D01*
X0331438Y0075499D02*
X0362939Y0075499D01*
X0362939Y0077097D02*
X0347837Y0077097D01*
X0347403Y0076907D02*
X0347403Y0076907D01*
X0351445Y0078696D02*
X0362939Y0078696D01*
X0362939Y0080294D02*
X0353181Y0080294D01*
X0354633Y0081631D02*
X0354633Y0081631D01*
X0354775Y0081893D02*
X0362939Y0081893D01*
X0362939Y0083491D02*
X0355640Y0083491D01*
X0356505Y0085090D02*
X0362939Y0085090D01*
X0362939Y0086688D02*
X0356919Y0086688D01*
X0357185Y0088287D02*
X0362939Y0088287D01*
X0362939Y0089885D02*
X0357424Y0089885D01*
X0357157Y0091484D02*
X0362939Y0091484D01*
X0362939Y0093082D02*
X0356890Y0093082D01*
X0356413Y0094681D02*
X0362939Y0094681D01*
X0362939Y0096279D02*
X0355548Y0096279D01*
X0354683Y0097878D02*
X0362939Y0097878D01*
X0362939Y0099476D02*
X0352996Y0099476D01*
X0351412Y0100934D02*
X0351412Y0100934D01*
X0351092Y0101075D02*
X0362939Y0101075D01*
X0362939Y0102673D02*
X0347447Y0102673D01*
X0343039Y0103055D02*
X0343039Y0103055D01*
X0341535Y0102673D02*
X0331438Y0102673D01*
X0331438Y0101075D02*
X0337410Y0101075D01*
X0338795Y0101980D02*
X0338795Y0101980D01*
X0335130Y0099585D02*
X0335130Y0099585D01*
X0335130Y0099585D01*
X0335045Y0099476D02*
X0331438Y0099476D01*
X0331438Y0097878D02*
X0333801Y0097878D01*
X0332557Y0096279D02*
X0331438Y0096279D01*
X0332441Y0096130D02*
X0332441Y0096130D01*
X0331943Y0094681D02*
X0331438Y0094681D01*
X0331438Y0104272D02*
X0362939Y0104272D01*
X0362939Y0105870D02*
X0331438Y0105870D01*
X0331438Y0107469D02*
X0362939Y0107469D01*
X0362939Y0109068D02*
X0331438Y0109068D01*
X0331438Y0110666D02*
X0362939Y0110666D01*
X0362939Y0112265D02*
X0331438Y0112265D01*
X0331438Y0113863D02*
X0362939Y0113863D01*
X0362939Y0115462D02*
X0331438Y0115462D01*
X0331438Y0117060D02*
X0362939Y0117060D01*
X0362939Y0118659D02*
X0331438Y0118659D01*
X0331438Y0120257D02*
X0362939Y0120257D01*
X0362939Y0141038D02*
X0361305Y0141038D01*
X0361483Y0142636D02*
X0362939Y0142636D01*
X0362939Y0150629D02*
X0362292Y0150629D01*
X0362939Y0152227D02*
X0326438Y0152227D01*
X0295207Y0150629D02*
X0293938Y0150629D01*
X0290138Y0150629D02*
X0288869Y0150629D01*
X0289304Y0150809D02*
X0290138Y0151643D01*
X0290138Y0136200D01*
X0289663Y0136200D01*
X0288850Y0137013D01*
X0287674Y0137500D01*
X0286401Y0137500D01*
X0285225Y0137013D01*
X0284325Y0136113D01*
X0283838Y0134937D01*
X0283838Y0133663D01*
X0284325Y0132487D01*
X0285225Y0131587D01*
X0286401Y0131100D01*
X0287674Y0131100D01*
X0288850Y0131587D01*
X0289663Y0132400D01*
X0290138Y0132400D01*
X0290138Y0077638D01*
X0289680Y0078431D01*
X0287669Y0080442D01*
X0285206Y0081864D01*
X0282460Y0082600D01*
X0279616Y0082600D01*
X0276869Y0081864D01*
X0274406Y0080442D01*
X0272396Y0078431D01*
X0270974Y0075969D01*
X0270238Y0073222D01*
X0270238Y0070378D01*
X0270974Y0067631D01*
X0272396Y0065169D01*
X0272956Y0064608D01*
X0272725Y0064513D01*
X0271825Y0063613D01*
X0271338Y0062437D01*
X0271338Y0061287D01*
X0231251Y0021200D01*
X0230138Y0020087D01*
X0230138Y0018776D01*
X0229545Y0018530D01*
X0228308Y0017292D01*
X0227638Y0015675D01*
X0227638Y0007925D01*
X0228308Y0006308D01*
X0229545Y0005070D01*
X0230680Y0004600D01*
X0203396Y0004600D01*
X0204530Y0005070D01*
X0205768Y0006308D01*
X0206438Y0007925D01*
X0206438Y0013513D01*
X0222825Y0029900D01*
X0223938Y0031013D01*
X0223938Y0057100D01*
X0226273Y0057100D01*
X0228000Y0057816D01*
X0229322Y0059138D01*
X0230038Y0060865D01*
X0230038Y0062735D01*
X0229322Y0064462D01*
X0228000Y0065784D01*
X0226273Y0066500D01*
X0217803Y0066500D01*
X0216075Y0065784D01*
X0214753Y0064462D01*
X0214038Y0062735D01*
X0214038Y0060865D01*
X0214753Y0059138D01*
X0216075Y0057816D01*
X0217803Y0057100D01*
X0220138Y0057100D01*
X0220138Y0032587D01*
X0205306Y0017755D01*
X0204530Y0018530D01*
X0202913Y0019200D01*
X0201163Y0019200D01*
X0199545Y0018530D01*
X0198308Y0017292D01*
X0197638Y0015675D01*
X0197638Y0007925D01*
X0198308Y0006308D01*
X0199545Y0005070D01*
X0200680Y0004600D01*
X0194763Y0004600D01*
X0195295Y0004986D01*
X0195852Y0005543D01*
X0196314Y0006179D01*
X0196671Y0006881D01*
X0196915Y0007629D01*
X0197038Y0008406D01*
X0197038Y0011600D01*
X0192238Y0011600D01*
X0192238Y0012000D01*
X0197038Y0012000D01*
X0197038Y0015194D01*
X0196915Y0015971D01*
X0196671Y0016719D01*
X0196314Y0017421D01*
X0195852Y0018057D01*
X0195295Y0018614D01*
X0194658Y0019076D01*
X0193957Y0019434D01*
X0193209Y0019677D01*
X0192431Y0019800D01*
X0192238Y0019800D01*
X0192238Y0012000D01*
X0191838Y0012000D01*
X0191838Y0019800D01*
X0191644Y0019800D01*
X0190867Y0019677D01*
X0190118Y0019434D01*
X0189417Y0019076D01*
X0188781Y0018614D01*
X0188224Y0018057D01*
X0187761Y0017421D01*
X0187404Y0016719D01*
X0187161Y0015971D01*
X0187038Y0015194D01*
X0187038Y0012000D01*
X0191838Y0012000D01*
X0191838Y0011600D01*
X0187038Y0011600D01*
X0187038Y0008406D01*
X0187161Y0007629D01*
X0187404Y0006881D01*
X0187761Y0006179D01*
X0188224Y0005543D01*
X0188781Y0004986D01*
X0189312Y0004600D01*
X0123396Y0004600D01*
X0124530Y0005070D01*
X0125768Y0006308D01*
X0126438Y0007925D01*
X0126438Y0015675D01*
X0125768Y0017292D01*
X0125493Y0017568D01*
X0126438Y0018513D01*
X0181438Y0073513D01*
X0181438Y0106013D01*
X0182338Y0106913D01*
X0182338Y0105865D01*
X0183053Y0104138D01*
X0184375Y0102816D01*
X0185138Y0102500D01*
X0185138Y0066013D01*
X0186251Y0064900D01*
X0187351Y0063800D01*
X0186202Y0063800D01*
X0184659Y0063161D01*
X0183477Y0061979D01*
X0182838Y0060435D01*
X0182838Y0053165D01*
X0183477Y0051621D01*
X0184659Y0050439D01*
X0186202Y0049800D01*
X0187873Y0049800D01*
X0189417Y0050439D01*
X0190598Y0051621D01*
X0191238Y0053165D01*
X0191238Y0059913D01*
X0192838Y0058313D01*
X0192838Y0053165D01*
X0193477Y0051621D01*
X0194659Y0050439D01*
X0196202Y0049800D01*
X0197873Y0049800D01*
X0199417Y0050439D01*
X0200598Y0051621D01*
X0201238Y0053165D01*
X0201238Y0060435D01*
X0200598Y0061979D01*
X0199417Y0063161D01*
X0197873Y0063800D01*
X0196202Y0063800D01*
X0194659Y0063161D01*
X0194011Y0062513D01*
X0188938Y0067587D01*
X0188938Y0102500D01*
X0189700Y0102816D01*
X0191022Y0104138D01*
X0191738Y0105865D01*
X0191738Y0107735D01*
X0191022Y0109462D01*
X0189700Y0110784D01*
X0187973Y0111500D01*
X0186925Y0111500D01*
X0198938Y0123513D01*
X0198938Y0175795D01*
X0199041Y0175691D01*
X0199627Y0175266D01*
X0200272Y0174937D01*
X0200961Y0174713D01*
X0201676Y0174600D01*
X0202038Y0174600D01*
X0202400Y0174600D01*
X0203115Y0174713D01*
X0203804Y0174937D01*
X0204449Y0175266D01*
X0205034Y0175691D01*
X0205546Y0176203D01*
X0205972Y0176789D01*
X0206272Y0177378D01*
X0207638Y0176013D01*
X0207638Y0042587D01*
X0207551Y0042500D01*
X0206401Y0042500D01*
X0205225Y0042013D01*
X0204325Y0041113D01*
X0203838Y0039937D01*
X0203838Y0038663D01*
X0204325Y0037487D01*
X0205225Y0036587D01*
X0206401Y0036100D01*
X0207674Y0036100D01*
X0208850Y0036587D01*
X0209751Y0037487D01*
X0210238Y0038663D01*
X0210238Y0039813D01*
X0210325Y0039900D01*
X0211438Y0041013D01*
X0211438Y0172213D01*
X0215138Y0168513D01*
X0216251Y0167400D01*
X0232825Y0167400D01*
X0233938Y0168513D01*
X0233938Y0224824D01*
X0234530Y0225070D01*
X0235138Y0225677D01*
X0235138Y0156013D01*
X0236251Y0154900D01*
X0273038Y0154900D01*
X0273038Y0153620D01*
X0273858Y0152800D01*
X0280218Y0152800D01*
X0281038Y0153620D01*
X0281038Y0159980D01*
X0280218Y0160800D01*
X0273858Y0160800D01*
X0273038Y0159980D01*
X0273038Y0158700D01*
X0238938Y0158700D01*
X0238938Y0197400D01*
X0239412Y0197400D01*
X0240225Y0196587D01*
X0241401Y0196100D01*
X0242674Y0196100D01*
X0243850Y0196587D01*
X0244751Y0197487D01*
X0245138Y0198422D01*
X0245138Y0181013D01*
X0260138Y0166013D01*
X0261251Y0164900D01*
X0272825Y0164900D01*
X0273938Y0166013D01*
X0273938Y0181643D01*
X0274772Y0180809D01*
X0276242Y0180200D01*
X0277833Y0180200D01*
X0279304Y0180809D01*
X0279823Y0181328D01*
X0290138Y0171013D01*
X0290138Y0161957D01*
X0289304Y0162791D01*
X0287833Y0163400D01*
X0286242Y0163400D01*
X0284772Y0162791D01*
X0283647Y0161666D01*
X0283038Y0160196D01*
X0283038Y0153404D01*
X0283647Y0151934D01*
X0284772Y0150809D01*
X0286242Y0150200D01*
X0287833Y0150200D01*
X0289304Y0150809D01*
X0290138Y0149030D02*
X0211438Y0149030D01*
X0211438Y0147432D02*
X0290138Y0147432D01*
X0290138Y0145833D02*
X0211438Y0145833D01*
X0211438Y0144235D02*
X0290138Y0144235D01*
X0290138Y0142636D02*
X0211438Y0142636D01*
X0211438Y0141038D02*
X0290138Y0141038D01*
X0290138Y0139439D02*
X0220055Y0139439D01*
X0221038Y0138457D02*
X0218695Y0140800D01*
X0215381Y0140800D01*
X0213038Y0138457D01*
X0213038Y0135143D01*
X0215381Y0132800D01*
X0218695Y0132800D01*
X0221038Y0135143D01*
X0221038Y0138457D01*
X0221038Y0137841D02*
X0290138Y0137841D01*
X0290138Y0136242D02*
X0289621Y0136242D01*
X0290138Y0131447D02*
X0288511Y0131447D01*
X0290138Y0129848D02*
X0220495Y0129848D01*
X0221638Y0128705D02*
X0218943Y0131400D01*
X0217038Y0131400D01*
X0217038Y0126800D01*
X0221638Y0126800D01*
X0221638Y0128705D01*
X0221638Y0128250D02*
X0290138Y0128250D01*
X0290138Y0126651D02*
X0221638Y0126651D01*
X0221638Y0126800D02*
X0217038Y0126800D01*
X0217038Y0126800D01*
X0217038Y0126800D01*
X0217038Y0122200D01*
X0218943Y0122200D01*
X0221638Y0124895D01*
X0221638Y0126800D01*
X0221638Y0125053D02*
X0290138Y0125053D01*
X0290138Y0123454D02*
X0220197Y0123454D01*
X0217038Y0123454D02*
X0217038Y0123454D01*
X0217038Y0122200D02*
X0217038Y0126800D01*
X0217038Y0126800D01*
X0217038Y0131400D01*
X0215132Y0131400D01*
X0212438Y0128705D01*
X0212438Y0126800D01*
X0217038Y0126800D01*
X0212438Y0126800D01*
X0212438Y0124895D01*
X0215132Y0122200D01*
X0217038Y0122200D01*
X0217038Y0125053D02*
X0217038Y0125053D01*
X0217038Y0126651D02*
X0217038Y0126651D01*
X0217038Y0126800D02*
X0217038Y0126800D01*
X0217038Y0128250D02*
X0217038Y0128250D01*
X0217038Y0129848D02*
X0217038Y0129848D01*
X0213581Y0129848D02*
X0211438Y0129848D01*
X0211438Y0128250D02*
X0212438Y0128250D01*
X0212438Y0126651D02*
X0211438Y0126651D01*
X0211438Y0125053D02*
X0212438Y0125053D01*
X0211438Y0123454D02*
X0213878Y0123454D01*
X0211438Y0121856D02*
X0290138Y0121856D01*
X0290138Y0120257D02*
X0211438Y0120257D01*
X0211438Y0118659D02*
X0290138Y0118659D01*
X0290138Y0117060D02*
X0211438Y0117060D01*
X0211438Y0115462D02*
X0290138Y0115462D01*
X0290138Y0113863D02*
X0211438Y0113863D01*
X0211438Y0112265D02*
X0290138Y0112265D01*
X0290138Y0110666D02*
X0229819Y0110666D01*
X0229700Y0110784D02*
X0227973Y0111500D01*
X0226103Y0111500D01*
X0224375Y0110784D01*
X0223053Y0109462D01*
X0222338Y0107735D01*
X0222338Y0105865D01*
X0222654Y0105103D01*
X0221251Y0103700D01*
X0220138Y0102587D01*
X0220138Y0086500D01*
X0217803Y0086500D01*
X0216075Y0085784D01*
X0214753Y0084462D01*
X0214038Y0082735D01*
X0214038Y0080865D01*
X0214753Y0079138D01*
X0216075Y0077816D01*
X0217803Y0077100D01*
X0226273Y0077100D01*
X0228000Y0077816D01*
X0229322Y0079138D01*
X0230038Y0080865D01*
X0230038Y0082735D01*
X0229322Y0084462D01*
X0228000Y0085784D01*
X0226273Y0086500D01*
X0223938Y0086500D01*
X0223938Y0101013D01*
X0225341Y0102416D01*
X0226103Y0102100D01*
X0227973Y0102100D01*
X0229700Y0102816D01*
X0231022Y0104138D01*
X0231738Y0105865D01*
X0231738Y0107735D01*
X0231022Y0109462D01*
X0229700Y0110784D01*
X0231186Y0109068D02*
X0290138Y0109068D01*
X0290138Y0107469D02*
X0231738Y0107469D01*
X0231738Y0105870D02*
X0290138Y0105870D01*
X0290138Y0104272D02*
X0231078Y0104272D01*
X0229357Y0102673D02*
X0290138Y0102673D01*
X0290138Y0101075D02*
X0224000Y0101075D01*
X0223938Y0099476D02*
X0290138Y0099476D01*
X0290138Y0097878D02*
X0223938Y0097878D01*
X0223938Y0096279D02*
X0290138Y0096279D01*
X0290138Y0094681D02*
X0223938Y0094681D01*
X0223938Y0093082D02*
X0290138Y0093082D01*
X0290138Y0091484D02*
X0223938Y0091484D01*
X0223938Y0089885D02*
X0290138Y0089885D01*
X0290138Y0088287D02*
X0223938Y0088287D01*
X0223938Y0086688D02*
X0290138Y0086688D01*
X0290138Y0085090D02*
X0228695Y0085090D01*
X0229724Y0083491D02*
X0290138Y0083491D01*
X0290138Y0081893D02*
X0285099Y0081893D01*
X0287817Y0080294D02*
X0290138Y0080294D01*
X0290138Y0078696D02*
X0289415Y0078696D01*
X0276977Y0081893D02*
X0230038Y0081893D01*
X0229801Y0080294D02*
X0274259Y0080294D01*
X0272660Y0078696D02*
X0228880Y0078696D01*
X0228116Y0076333D02*
X0227372Y0076712D01*
X0226579Y0076969D01*
X0225755Y0077100D01*
X0222338Y0077100D01*
X0222338Y0072100D01*
X0230638Y0072100D01*
X0230638Y0072217D01*
X0230507Y0073041D01*
X0230249Y0073834D01*
X0229871Y0074578D01*
X0229380Y0075253D01*
X0228791Y0075843D01*
X0228116Y0076333D01*
X0229134Y0075499D02*
X0270848Y0075499D01*
X0270420Y0073900D02*
X0230216Y0073900D01*
X0230624Y0072302D02*
X0270238Y0072302D01*
X0270238Y0070703D02*
X0230530Y0070703D01*
X0230507Y0070559D02*
X0230638Y0071383D01*
X0230638Y0071500D01*
X0222338Y0071500D01*
X0222338Y0072100D01*
X0221738Y0072100D01*
X0221738Y0077100D01*
X0218321Y0077100D01*
X0217497Y0076969D01*
X0216703Y0076712D01*
X0215960Y0076333D01*
X0215285Y0075843D01*
X0214695Y0075253D01*
X0214205Y0074578D01*
X0213826Y0073834D01*
X0213568Y0073041D01*
X0213438Y0072217D01*
X0213438Y0072100D01*
X0221738Y0072100D01*
X0221738Y0071500D01*
X0222338Y0071500D01*
X0222338Y0066500D01*
X0225755Y0066500D01*
X0226579Y0066630D01*
X0227372Y0066888D01*
X0228116Y0067267D01*
X0228791Y0067757D01*
X0229380Y0068347D01*
X0229871Y0069022D01*
X0230249Y0069766D01*
X0230507Y0070559D01*
X0229913Y0069105D02*
X0270579Y0069105D01*
X0271046Y0067506D02*
X0228445Y0067506D01*
X0227703Y0065908D02*
X0271969Y0065908D01*
X0272522Y0064309D02*
X0229386Y0064309D01*
X0230038Y0062711D02*
X0271451Y0062711D01*
X0271163Y0061112D02*
X0230038Y0061112D01*
X0229478Y0059514D02*
X0269564Y0059514D01*
X0267966Y0057915D02*
X0228100Y0057915D01*
X0223938Y0056317D02*
X0266367Y0056317D01*
X0264769Y0054718D02*
X0223938Y0054718D01*
X0223938Y0053120D02*
X0263170Y0053120D01*
X0261572Y0051521D02*
X0223938Y0051521D01*
X0223938Y0049923D02*
X0259973Y0049923D01*
X0258375Y0048324D02*
X0223938Y0048324D01*
X0223938Y0046726D02*
X0256776Y0046726D01*
X0255178Y0045127D02*
X0223938Y0045127D01*
X0223938Y0043529D02*
X0253579Y0043529D01*
X0251981Y0041930D02*
X0223938Y0041930D01*
X0223938Y0040332D02*
X0250382Y0040332D01*
X0248784Y0038733D02*
X0223938Y0038733D01*
X0223938Y0037134D02*
X0247185Y0037134D01*
X0245587Y0035536D02*
X0223938Y0035536D01*
X0223938Y0033937D02*
X0243988Y0033937D01*
X0242390Y0032339D02*
X0223938Y0032339D01*
X0223665Y0030740D02*
X0240791Y0030740D01*
X0239193Y0029142D02*
X0222067Y0029142D01*
X0220468Y0027543D02*
X0237594Y0027543D01*
X0235996Y0025945D02*
X0218870Y0025945D01*
X0217271Y0024346D02*
X0234397Y0024346D01*
X0232799Y0022748D02*
X0215673Y0022748D01*
X0214074Y0021149D02*
X0231200Y0021149D01*
X0230138Y0019551D02*
X0212476Y0019551D01*
X0210877Y0017952D02*
X0228968Y0017952D01*
X0227919Y0016354D02*
X0209279Y0016354D01*
X0207680Y0014755D02*
X0227638Y0014755D01*
X0227638Y0013157D02*
X0206438Y0013157D01*
X0206438Y0011558D02*
X0227638Y0011558D01*
X0227638Y0009960D02*
X0206438Y0009960D01*
X0206438Y0008361D02*
X0227638Y0008361D01*
X0228119Y0006763D02*
X0205956Y0006763D01*
X0204625Y0005164D02*
X0229451Y0005164D01*
X0233396Y0004600D02*
X0234530Y0005070D01*
X0235768Y0006308D01*
X0236438Y0007925D01*
X0236438Y0015675D01*
X0235768Y0017292D01*
X0234530Y0018530D01*
X0234123Y0018699D01*
X0274025Y0058600D01*
X0275174Y0058600D01*
X0276350Y0059087D01*
X0277251Y0059987D01*
X0277738Y0061163D01*
X0277738Y0061503D01*
X0279616Y0061000D01*
X0282460Y0061000D01*
X0285206Y0061736D01*
X0287669Y0063158D01*
X0289680Y0065169D01*
X0290138Y0065962D01*
X0290138Y0042587D01*
X0265306Y0017755D01*
X0264530Y0018530D01*
X0262913Y0019200D01*
X0261163Y0019200D01*
X0259545Y0018530D01*
X0258308Y0017292D01*
X0257638Y0015675D01*
X0257638Y0007925D01*
X0258308Y0006308D01*
X0258415Y0006200D01*
X0256325Y0006200D01*
X0256671Y0006881D01*
X0256915Y0007629D01*
X0257038Y0008406D01*
X0257038Y0011600D01*
X0252238Y0011600D01*
X0252238Y0012000D01*
X0257038Y0012000D01*
X0257038Y0015194D01*
X0256915Y0015971D01*
X0256671Y0016719D01*
X0256314Y0017421D01*
X0255852Y0018057D01*
X0255295Y0018614D01*
X0254658Y0019076D01*
X0253957Y0019434D01*
X0253209Y0019677D01*
X0252431Y0019800D01*
X0252238Y0019800D01*
X0252238Y0012000D01*
X0251838Y0012000D01*
X0251838Y0019800D01*
X0251644Y0019800D01*
X0250867Y0019677D01*
X0250118Y0019434D01*
X0249417Y0019076D01*
X0248781Y0018614D01*
X0248224Y0018057D01*
X0247761Y0017421D01*
X0247404Y0016719D01*
X0247161Y0015971D01*
X0247038Y0015194D01*
X0247038Y0012000D01*
X0251838Y0012000D01*
X0251838Y0011600D01*
X0247038Y0011600D01*
X0247038Y0008406D01*
X0247161Y0007629D01*
X0247404Y0006881D01*
X0247751Y0006200D01*
X0245660Y0006200D01*
X0245768Y0006308D01*
X0246438Y0007925D01*
X0246438Y0015675D01*
X0245768Y0017292D01*
X0244530Y0018530D01*
X0242913Y0019200D01*
X0241163Y0019200D01*
X0239545Y0018530D01*
X0238308Y0017292D01*
X0237638Y0015675D01*
X0237638Y0007925D01*
X0238308Y0006308D01*
X0239545Y0005070D01*
X0240138Y0004824D01*
X0240138Y0004600D01*
X0233396Y0004600D01*
X0234625Y0005164D02*
X0239451Y0005164D01*
X0238119Y0006763D02*
X0235956Y0006763D01*
X0236438Y0008361D02*
X0237638Y0008361D01*
X0237638Y0009960D02*
X0236438Y0009960D01*
X0236438Y0011558D02*
X0237638Y0011558D01*
X0237638Y0013157D02*
X0236438Y0013157D01*
X0236438Y0014755D02*
X0237638Y0014755D01*
X0237919Y0016354D02*
X0236157Y0016354D01*
X0235108Y0017952D02*
X0238968Y0017952D01*
X0236574Y0021149D02*
X0268700Y0021149D01*
X0267102Y0019551D02*
X0253596Y0019551D01*
X0252238Y0019551D02*
X0251838Y0019551D01*
X0250479Y0019551D02*
X0234976Y0019551D01*
X0238173Y0022748D02*
X0270299Y0022748D01*
X0271897Y0024346D02*
X0239771Y0024346D01*
X0241370Y0025945D02*
X0273496Y0025945D01*
X0275094Y0027543D02*
X0242968Y0027543D01*
X0244567Y0029142D02*
X0276693Y0029142D01*
X0278291Y0030740D02*
X0246165Y0030740D01*
X0247764Y0032339D02*
X0279890Y0032339D01*
X0281488Y0033937D02*
X0249362Y0033937D01*
X0250961Y0035536D02*
X0283087Y0035536D01*
X0284685Y0037134D02*
X0252559Y0037134D01*
X0254158Y0038733D02*
X0286284Y0038733D01*
X0287882Y0040332D02*
X0255756Y0040332D01*
X0257355Y0041930D02*
X0289481Y0041930D01*
X0290138Y0043529D02*
X0258953Y0043529D01*
X0260552Y0045127D02*
X0290138Y0045127D01*
X0290138Y0046726D02*
X0262150Y0046726D01*
X0263749Y0048324D02*
X0290138Y0048324D01*
X0290138Y0049923D02*
X0265347Y0049923D01*
X0266946Y0051521D02*
X0290138Y0051521D01*
X0290138Y0053120D02*
X0268544Y0053120D01*
X0270143Y0054718D02*
X0290138Y0054718D01*
X0290138Y0056317D02*
X0271741Y0056317D01*
X0273340Y0057915D02*
X0290138Y0057915D01*
X0290138Y0059514D02*
X0276777Y0059514D01*
X0277717Y0061112D02*
X0279197Y0061112D01*
X0282878Y0061112D02*
X0290138Y0061112D01*
X0290138Y0062711D02*
X0286895Y0062711D01*
X0288820Y0064309D02*
X0290138Y0064309D01*
X0290107Y0065908D02*
X0290138Y0065908D01*
X0271625Y0077097D02*
X0225772Y0077097D01*
X0222338Y0077097D02*
X0221738Y0077097D01*
X0221738Y0075499D02*
X0222338Y0075499D01*
X0222338Y0073900D02*
X0221738Y0073900D01*
X0221738Y0072302D02*
X0222338Y0072302D01*
X0221738Y0071500D02*
X0213438Y0071500D01*
X0213438Y0071383D01*
X0213568Y0070559D01*
X0213826Y0069766D01*
X0214205Y0069022D01*
X0214695Y0068347D01*
X0215285Y0067757D01*
X0215960Y0067267D01*
X0216703Y0066888D01*
X0217497Y0066630D01*
X0218321Y0066500D01*
X0221738Y0066500D01*
X0221738Y0071500D01*
X0221738Y0070703D02*
X0222338Y0070703D01*
X0222338Y0069105D02*
X0221738Y0069105D01*
X0221738Y0067506D02*
X0222338Y0067506D01*
X0216373Y0065908D02*
X0211438Y0065908D01*
X0211438Y0067506D02*
X0215631Y0067506D01*
X0214163Y0069105D02*
X0211438Y0069105D01*
X0211438Y0070703D02*
X0213545Y0070703D01*
X0213451Y0072302D02*
X0211438Y0072302D01*
X0211438Y0073900D02*
X0213860Y0073900D01*
X0214941Y0075499D02*
X0211438Y0075499D01*
X0211438Y0077097D02*
X0218304Y0077097D01*
X0215195Y0078696D02*
X0211438Y0078696D01*
X0211438Y0080294D02*
X0214274Y0080294D01*
X0214038Y0081893D02*
X0211438Y0081893D01*
X0211438Y0083491D02*
X0214351Y0083491D01*
X0215381Y0085090D02*
X0211438Y0085090D01*
X0211438Y0086688D02*
X0220138Y0086688D01*
X0220138Y0088287D02*
X0211438Y0088287D01*
X0211438Y0089885D02*
X0220138Y0089885D01*
X0220138Y0091484D02*
X0211438Y0091484D01*
X0211438Y0093082D02*
X0220138Y0093082D01*
X0220138Y0094681D02*
X0211438Y0094681D01*
X0211438Y0096279D02*
X0220138Y0096279D01*
X0220138Y0097878D02*
X0211438Y0097878D01*
X0211438Y0099476D02*
X0220138Y0099476D01*
X0220138Y0101075D02*
X0211438Y0101075D01*
X0211438Y0102673D02*
X0220224Y0102673D01*
X0221823Y0104272D02*
X0211438Y0104272D01*
X0211438Y0105870D02*
X0222338Y0105870D01*
X0222338Y0107469D02*
X0211438Y0107469D01*
X0211438Y0109068D02*
X0222890Y0109068D01*
X0224257Y0110666D02*
X0211438Y0110666D01*
X0207638Y0110666D02*
X0189819Y0110666D01*
X0191186Y0109068D02*
X0207638Y0109068D01*
X0207638Y0107469D02*
X0191738Y0107469D01*
X0191738Y0105870D02*
X0207638Y0105870D01*
X0207638Y0104272D02*
X0191078Y0104272D01*
X0189357Y0102673D02*
X0207638Y0102673D01*
X0207638Y0101075D02*
X0188938Y0101075D01*
X0188938Y0099476D02*
X0207638Y0099476D01*
X0207638Y0097878D02*
X0188938Y0097878D01*
X0188938Y0096279D02*
X0207638Y0096279D01*
X0207638Y0094681D02*
X0188938Y0094681D01*
X0188938Y0093082D02*
X0207638Y0093082D01*
X0207638Y0091484D02*
X0188938Y0091484D01*
X0188938Y0089885D02*
X0207638Y0089885D01*
X0207638Y0088287D02*
X0188938Y0088287D01*
X0188938Y0086688D02*
X0207638Y0086688D01*
X0207638Y0085090D02*
X0188938Y0085090D01*
X0188938Y0083491D02*
X0207638Y0083491D01*
X0207638Y0081893D02*
X0188938Y0081893D01*
X0188938Y0080294D02*
X0207638Y0080294D01*
X0207638Y0078696D02*
X0188938Y0078696D01*
X0188938Y0077097D02*
X0207638Y0077097D01*
X0207638Y0075499D02*
X0188938Y0075499D01*
X0188938Y0073900D02*
X0207638Y0073900D01*
X0207638Y0072302D02*
X0188938Y0072302D01*
X0188938Y0070703D02*
X0207638Y0070703D01*
X0207638Y0069105D02*
X0188938Y0069105D01*
X0189019Y0067506D02*
X0207638Y0067506D01*
X0207638Y0065908D02*
X0190617Y0065908D01*
X0192216Y0064309D02*
X0207638Y0064309D01*
X0207638Y0062711D02*
X0199867Y0062711D01*
X0200957Y0061112D02*
X0207638Y0061112D01*
X0207638Y0059514D02*
X0201238Y0059514D01*
X0201238Y0057915D02*
X0207638Y0057915D01*
X0207638Y0056317D02*
X0201238Y0056317D01*
X0201238Y0054718D02*
X0207638Y0054718D01*
X0207638Y0053120D02*
X0201219Y0053120D01*
X0200499Y0051521D02*
X0207638Y0051521D01*
X0207638Y0049923D02*
X0198169Y0049923D01*
X0195906Y0049923D02*
X0188169Y0049923D01*
X0185906Y0049923D02*
X0157847Y0049923D01*
X0159446Y0051521D02*
X0183577Y0051521D01*
X0182856Y0053120D02*
X0161044Y0053120D01*
X0162643Y0054718D02*
X0182838Y0054718D01*
X0182838Y0056317D02*
X0164241Y0056317D01*
X0165840Y0057915D02*
X0182838Y0057915D01*
X0182838Y0059514D02*
X0167438Y0059514D01*
X0169037Y0061112D02*
X0183118Y0061112D01*
X0184209Y0062711D02*
X0170635Y0062711D01*
X0172234Y0064309D02*
X0186842Y0064309D01*
X0186251Y0064900D02*
X0186251Y0064900D01*
X0185243Y0065908D02*
X0173832Y0065908D01*
X0175431Y0067506D02*
X0185138Y0067506D01*
X0185138Y0069105D02*
X0177030Y0069105D01*
X0178628Y0070703D02*
X0185138Y0070703D01*
X0185138Y0072302D02*
X0180227Y0072302D01*
X0181438Y0073900D02*
X0185138Y0073900D01*
X0185138Y0075499D02*
X0181438Y0075499D01*
X0181438Y0077097D02*
X0185138Y0077097D01*
X0185138Y0078696D02*
X0181438Y0078696D01*
X0181438Y0080294D02*
X0185138Y0080294D01*
X0185138Y0081893D02*
X0181438Y0081893D01*
X0181438Y0083491D02*
X0185138Y0083491D01*
X0185138Y0085090D02*
X0181438Y0085090D01*
X0181438Y0086688D02*
X0185138Y0086688D01*
X0185138Y0088287D02*
X0181438Y0088287D01*
X0181438Y0089885D02*
X0185138Y0089885D01*
X0185138Y0091484D02*
X0181438Y0091484D01*
X0181438Y0093082D02*
X0185138Y0093082D01*
X0185138Y0094681D02*
X0181438Y0094681D01*
X0181438Y0096279D02*
X0185138Y0096279D01*
X0185138Y0097878D02*
X0181438Y0097878D01*
X0181438Y0099476D02*
X0185138Y0099476D01*
X0185138Y0101075D02*
X0181438Y0101075D01*
X0181438Y0102673D02*
X0184718Y0102673D01*
X0182998Y0104272D02*
X0181438Y0104272D01*
X0181438Y0105870D02*
X0182338Y0105870D01*
X0179118Y0109068D02*
X0178027Y0109068D01*
X0178029Y0109066D02*
X0176904Y0110191D01*
X0175433Y0110800D01*
X0168642Y0110800D01*
X0167172Y0110191D01*
X0166047Y0109066D01*
X0165438Y0107596D01*
X0165438Y0106004D01*
X0166047Y0104534D01*
X0167172Y0103409D01*
X0168642Y0102800D01*
X0175433Y0102800D01*
X0176904Y0103409D01*
X0177638Y0104143D01*
X0177638Y0099457D01*
X0176904Y0100191D01*
X0175433Y0100800D01*
X0168642Y0100800D01*
X0167172Y0100191D01*
X0166047Y0099066D01*
X0165438Y0097596D01*
X0165438Y0096004D01*
X0166047Y0094534D01*
X0167172Y0093409D01*
X0168642Y0092800D01*
X0175433Y0092800D01*
X0176904Y0093409D01*
X0177638Y0094143D01*
X0177638Y0090305D01*
X0177634Y0090309D01*
X0177049Y0090734D01*
X0176404Y0091063D01*
X0175715Y0091287D01*
X0175000Y0091400D01*
X0172038Y0091400D01*
X0172038Y0086800D01*
X0172038Y0086800D01*
X0172038Y0082200D01*
X0175000Y0082200D01*
X0175715Y0082313D01*
X0176404Y0082537D01*
X0177049Y0082866D01*
X0177634Y0083291D01*
X0177638Y0083295D01*
X0177638Y0079457D01*
X0176904Y0080191D01*
X0175433Y0080800D01*
X0168642Y0080800D01*
X0167172Y0080191D01*
X0166047Y0079066D01*
X0165895Y0078700D01*
X0151438Y0078700D01*
X0151438Y0080087D01*
X0148938Y0082587D01*
X0147825Y0083700D01*
X0147195Y0083700D01*
X0148029Y0084534D01*
X0148638Y0086004D01*
X0148638Y0087596D01*
X0148029Y0089066D01*
X0146904Y0090191D01*
X0145433Y0090800D01*
X0140725Y0090800D01*
X0138725Y0092800D01*
X0145433Y0092800D01*
X0146904Y0093409D01*
X0148029Y0094534D01*
X0148638Y0096004D01*
X0148638Y0097596D01*
X0148029Y0099066D01*
X0147510Y0099585D01*
X0167825Y0119900D01*
X0168938Y0121013D01*
X0168938Y0176643D01*
X0169772Y0175809D01*
X0171242Y0175200D01*
X0172833Y0175200D01*
X0174304Y0175809D01*
X0175138Y0176643D01*
X0175138Y0128513D01*
X0183838Y0119813D01*
X0183838Y0118663D01*
X0184325Y0117487D01*
X0185225Y0116587D01*
X0186224Y0116173D01*
X0178751Y0108700D01*
X0178347Y0108297D01*
X0178029Y0109066D01*
X0175757Y0110666D02*
X0180717Y0110666D01*
X0182315Y0112265D02*
X0160189Y0112265D01*
X0161788Y0113863D02*
X0183914Y0113863D01*
X0185512Y0115462D02*
X0163386Y0115462D01*
X0164985Y0117060D02*
X0184752Y0117060D01*
X0183840Y0118659D02*
X0166583Y0118659D01*
X0168182Y0120257D02*
X0183394Y0120257D01*
X0181795Y0121856D02*
X0168938Y0121856D01*
X0168938Y0123454D02*
X0180197Y0123454D01*
X0178598Y0125053D02*
X0168938Y0125053D01*
X0168938Y0126651D02*
X0177000Y0126651D01*
X0175401Y0128250D02*
X0168938Y0128250D01*
X0168938Y0129848D02*
X0175138Y0129848D01*
X0175138Y0131447D02*
X0168938Y0131447D01*
X0168938Y0133045D02*
X0175138Y0133045D01*
X0175138Y0134644D02*
X0168938Y0134644D01*
X0168938Y0136242D02*
X0175138Y0136242D01*
X0175138Y0137841D02*
X0168938Y0137841D01*
X0168938Y0139439D02*
X0175138Y0139439D01*
X0175138Y0141038D02*
X0168938Y0141038D01*
X0168938Y0142636D02*
X0175138Y0142636D01*
X0175138Y0144235D02*
X0168938Y0144235D01*
X0168938Y0145833D02*
X0175138Y0145833D01*
X0175138Y0147432D02*
X0168938Y0147432D01*
X0168938Y0149030D02*
X0175138Y0149030D01*
X0175138Y0150629D02*
X0168938Y0150629D01*
X0168938Y0152227D02*
X0175138Y0152227D01*
X0175138Y0153826D02*
X0168938Y0153826D01*
X0168938Y0155424D02*
X0175138Y0155424D01*
X0175138Y0157023D02*
X0168938Y0157023D01*
X0168938Y0158621D02*
X0175138Y0158621D01*
X0175138Y0160220D02*
X0168938Y0160220D01*
X0168938Y0161818D02*
X0175138Y0161818D01*
X0175138Y0163417D02*
X0168938Y0163417D01*
X0168938Y0165015D02*
X0175138Y0165015D01*
X0175138Y0166614D02*
X0168938Y0166614D01*
X0168938Y0168212D02*
X0175138Y0168212D01*
X0175138Y0169811D02*
X0168938Y0169811D01*
X0168938Y0171409D02*
X0175138Y0171409D01*
X0175138Y0173008D02*
X0168938Y0173008D01*
X0168938Y0174606D02*
X0175138Y0174606D01*
X0175138Y0176205D02*
X0174700Y0176205D01*
X0178938Y0176205D02*
X0179376Y0176205D01*
X0179772Y0175809D02*
X0178938Y0176643D01*
X0178938Y0130087D01*
X0182438Y0126587D01*
X0182438Y0126800D01*
X0187038Y0126800D01*
X0191638Y0126800D01*
X0191638Y0128705D01*
X0188943Y0131400D01*
X0187038Y0131400D01*
X0187038Y0126800D01*
X0187038Y0126800D01*
X0191638Y0126800D01*
X0191638Y0124895D01*
X0188943Y0122200D01*
X0188399Y0122200D01*
X0188850Y0122013D01*
X0189751Y0121113D01*
X0190164Y0120114D01*
X0195138Y0125087D01*
X0195138Y0143422D01*
X0194751Y0142487D01*
X0193850Y0141587D01*
X0192674Y0141100D01*
X0191401Y0141100D01*
X0190225Y0141587D01*
X0189325Y0142487D01*
X0188938Y0143422D01*
X0188938Y0140557D01*
X0191038Y0138457D01*
X0191038Y0135143D01*
X0188695Y0132800D01*
X0185381Y0132800D01*
X0183038Y0135143D01*
X0183038Y0138457D01*
X0185138Y0140557D01*
X0185138Y0176013D01*
X0184823Y0176328D01*
X0184304Y0175809D01*
X0182833Y0175200D01*
X0181242Y0175200D01*
X0179772Y0175809D01*
X0178938Y0174606D02*
X0185138Y0174606D01*
X0185138Y0173008D02*
X0178938Y0173008D01*
X0178938Y0171409D02*
X0185138Y0171409D01*
X0185138Y0169811D02*
X0178938Y0169811D01*
X0178938Y0168212D02*
X0185138Y0168212D01*
X0185138Y0166614D02*
X0178938Y0166614D01*
X0178938Y0165015D02*
X0185138Y0165015D01*
X0185138Y0163417D02*
X0178938Y0163417D01*
X0178938Y0161818D02*
X0185138Y0161818D01*
X0185138Y0160220D02*
X0178938Y0160220D01*
X0178938Y0158621D02*
X0185138Y0158621D01*
X0185138Y0157023D02*
X0178938Y0157023D01*
X0178938Y0155424D02*
X0185138Y0155424D01*
X0185138Y0153826D02*
X0178938Y0153826D01*
X0178938Y0152227D02*
X0185138Y0152227D01*
X0185138Y0150629D02*
X0178938Y0150629D01*
X0178938Y0149030D02*
X0185138Y0149030D01*
X0185138Y0147432D02*
X0178938Y0147432D01*
X0178938Y0145833D02*
X0185138Y0145833D01*
X0185138Y0144235D02*
X0178938Y0144235D01*
X0178938Y0142636D02*
X0185138Y0142636D01*
X0185138Y0141038D02*
X0178938Y0141038D01*
X0178938Y0139439D02*
X0184020Y0139439D01*
X0183038Y0137841D02*
X0178938Y0137841D01*
X0178938Y0136242D02*
X0183038Y0136242D01*
X0183537Y0134644D02*
X0178938Y0134644D01*
X0178938Y0133045D02*
X0185136Y0133045D01*
X0185132Y0131400D02*
X0182438Y0128705D01*
X0182438Y0126800D01*
X0187038Y0126800D01*
X0187038Y0126800D01*
X0187038Y0131400D01*
X0185132Y0131400D01*
X0183581Y0129848D02*
X0179177Y0129848D01*
X0178938Y0131447D02*
X0195138Y0131447D01*
X0195138Y0133045D02*
X0188940Y0133045D01*
X0190538Y0134644D02*
X0195138Y0134644D01*
X0195138Y0136242D02*
X0191038Y0136242D01*
X0191038Y0137841D02*
X0195138Y0137841D01*
X0195138Y0139439D02*
X0190055Y0139439D01*
X0188938Y0141038D02*
X0195138Y0141038D01*
X0195138Y0142636D02*
X0194812Y0142636D01*
X0198938Y0142636D02*
X0207638Y0142636D01*
X0207638Y0141038D02*
X0198938Y0141038D01*
X0198938Y0139439D02*
X0207638Y0139439D01*
X0207638Y0137841D02*
X0198938Y0137841D01*
X0198938Y0136242D02*
X0207638Y0136242D01*
X0207638Y0134644D02*
X0198938Y0134644D01*
X0198938Y0133045D02*
X0207638Y0133045D01*
X0207638Y0131447D02*
X0198938Y0131447D01*
X0198938Y0129848D02*
X0207638Y0129848D01*
X0207638Y0128250D02*
X0198938Y0128250D01*
X0198938Y0126651D02*
X0207638Y0126651D01*
X0207638Y0125053D02*
X0198938Y0125053D01*
X0198879Y0123454D02*
X0207638Y0123454D01*
X0207638Y0121856D02*
X0197280Y0121856D01*
X0195682Y0120257D02*
X0207638Y0120257D01*
X0207638Y0118659D02*
X0194083Y0118659D01*
X0192485Y0117060D02*
X0207638Y0117060D01*
X0207638Y0115462D02*
X0190886Y0115462D01*
X0189288Y0113863D02*
X0207638Y0113863D01*
X0207638Y0112265D02*
X0187689Y0112265D01*
X0190105Y0120257D02*
X0190308Y0120257D01*
X0189008Y0121856D02*
X0191906Y0121856D01*
X0193505Y0123454D02*
X0190197Y0123454D01*
X0191638Y0125053D02*
X0195103Y0125053D01*
X0195138Y0126651D02*
X0191638Y0126651D01*
X0191638Y0128250D02*
X0195138Y0128250D01*
X0195138Y0129848D02*
X0190495Y0129848D01*
X0187038Y0129848D02*
X0187038Y0129848D01*
X0187038Y0128250D02*
X0187038Y0128250D01*
X0187038Y0126800D02*
X0187038Y0126800D01*
X0182438Y0126651D02*
X0182374Y0126651D01*
X0182438Y0128250D02*
X0180775Y0128250D01*
X0165138Y0128250D02*
X0128938Y0128250D01*
X0128938Y0129848D02*
X0165138Y0129848D01*
X0165138Y0131447D02*
X0128938Y0131447D01*
X0128938Y0133045D02*
X0165138Y0133045D01*
X0165138Y0134644D02*
X0128938Y0134644D01*
X0128938Y0136242D02*
X0165138Y0136242D01*
X0165138Y0137841D02*
X0128938Y0137841D01*
X0128938Y0139439D02*
X0165138Y0139439D01*
X0165138Y0141038D02*
X0128938Y0141038D01*
X0128938Y0142636D02*
X0165138Y0142636D01*
X0165138Y0144235D02*
X0128938Y0144235D01*
X0128938Y0145833D02*
X0165138Y0145833D01*
X0165138Y0147432D02*
X0147550Y0147432D01*
X0147489Y0147422D02*
X0148169Y0147530D01*
X0148825Y0147743D01*
X0149439Y0148056D01*
X0149996Y0148461D01*
X0150483Y0148948D01*
X0150888Y0149505D01*
X0151201Y0150119D01*
X0151414Y0150775D01*
X0151522Y0151455D01*
X0151522Y0151800D01*
X0151522Y0152145D01*
X0151414Y0152825D01*
X0151201Y0153481D01*
X0150888Y0154095D01*
X0150483Y0154652D01*
X0149996Y0155139D01*
X0149439Y0155544D01*
X0148825Y0155857D01*
X0148169Y0156070D01*
X0147489Y0156178D01*
X0147144Y0156178D01*
X0146800Y0156178D01*
X0146119Y0156070D01*
X0145464Y0155857D01*
X0144850Y0155544D01*
X0144292Y0155139D01*
X0143805Y0154652D01*
X0143400Y0154095D01*
X0143087Y0153481D01*
X0142874Y0152825D01*
X0142766Y0152145D01*
X0142766Y0151800D01*
X0147144Y0151800D01*
X0147144Y0151800D01*
X0142766Y0151800D01*
X0142766Y0151455D01*
X0142874Y0150775D01*
X0143087Y0150119D01*
X0143400Y0149505D01*
X0143805Y0148948D01*
X0144292Y0148461D01*
X0144850Y0148056D01*
X0145464Y0147743D01*
X0146119Y0147530D01*
X0146800Y0147422D01*
X0147144Y0147422D01*
X0147144Y0151800D01*
X0147144Y0156178D01*
X0147144Y0151800D01*
X0147144Y0151800D01*
X0147144Y0151800D01*
X0147144Y0147422D01*
X0147489Y0147422D01*
X0147144Y0147432D02*
X0147144Y0147432D01*
X0146738Y0147432D02*
X0128938Y0147432D01*
X0128938Y0149030D02*
X0134965Y0149030D01*
X0135398Y0148597D02*
X0136786Y0148022D01*
X0138289Y0148022D01*
X0139678Y0148597D01*
X0140741Y0149660D01*
X0141316Y0151049D01*
X0141316Y0152551D01*
X0140741Y0153940D01*
X0139678Y0155003D01*
X0138289Y0155578D01*
X0136786Y0155578D01*
X0135398Y0155003D01*
X0134335Y0153940D01*
X0133760Y0152551D01*
X0133760Y0151049D01*
X0134335Y0149660D01*
X0135398Y0148597D01*
X0133934Y0150629D02*
X0128938Y0150629D01*
X0128938Y0152227D02*
X0133760Y0152227D01*
X0134288Y0153826D02*
X0128938Y0153826D01*
X0128938Y0155424D02*
X0136415Y0155424D01*
X0138660Y0155424D02*
X0144684Y0155424D01*
X0143263Y0153826D02*
X0140788Y0153826D01*
X0141316Y0152227D02*
X0142779Y0152227D01*
X0142921Y0150629D02*
X0141142Y0150629D01*
X0140111Y0149030D02*
X0143745Y0149030D01*
X0147144Y0149030D02*
X0147144Y0149030D01*
X0147144Y0150629D02*
X0147144Y0150629D01*
X0147144Y0151800D02*
X0147144Y0151800D01*
X0151522Y0151800D01*
X0147144Y0151800D01*
X0147144Y0152227D02*
X0147144Y0152227D01*
X0147144Y0153826D02*
X0147144Y0153826D01*
X0147144Y0155424D02*
X0147144Y0155424D01*
X0149604Y0155424D02*
X0155415Y0155424D01*
X0155786Y0155578D02*
X0154398Y0155003D01*
X0153335Y0153940D01*
X0152760Y0152551D01*
X0152760Y0151049D01*
X0153335Y0149660D01*
X0154398Y0148597D01*
X0155786Y0148022D01*
X0157289Y0148022D01*
X0158678Y0148597D01*
X0159741Y0149660D01*
X0160316Y0151049D01*
X0160316Y0152551D01*
X0159741Y0153940D01*
X0158678Y0155003D01*
X0157289Y0155578D01*
X0155786Y0155578D01*
X0157660Y0155424D02*
X0165138Y0155424D01*
X0165138Y0153826D02*
X0159788Y0153826D01*
X0160316Y0152227D02*
X0165138Y0152227D01*
X0165138Y0150629D02*
X0160142Y0150629D01*
X0159111Y0149030D02*
X0165138Y0149030D01*
X0165138Y0157023D02*
X0128938Y0157023D01*
X0128938Y0158621D02*
X0165138Y0158621D01*
X0165138Y0160220D02*
X0128938Y0160220D01*
X0128938Y0161818D02*
X0147494Y0161818D01*
X0147725Y0161587D02*
X0148901Y0161100D01*
X0150174Y0161100D01*
X0151350Y0161587D01*
X0152251Y0162487D01*
X0152738Y0163663D01*
X0152738Y0164937D01*
X0152251Y0166113D01*
X0151350Y0167013D01*
X0150174Y0167500D01*
X0149025Y0167500D01*
X0141325Y0175200D01*
X0142833Y0175200D01*
X0144304Y0175809D01*
X0145429Y0176934D01*
X0146038Y0178404D01*
X0146038Y0185196D01*
X0145429Y0186666D01*
X0144304Y0187791D01*
X0142833Y0188400D01*
X0141242Y0188400D01*
X0139772Y0187791D01*
X0138647Y0186666D01*
X0138038Y0185196D01*
X0138038Y0178487D01*
X0136038Y0180487D01*
X0136038Y0185196D01*
X0135429Y0186666D01*
X0134304Y0187791D01*
X0132833Y0188400D01*
X0131242Y0188400D01*
X0129772Y0187791D01*
X0128938Y0186957D01*
X0128938Y0206643D01*
X0129772Y0205809D01*
X0131242Y0205200D01*
X0132833Y0205200D01*
X0134304Y0205809D01*
X0135429Y0206934D01*
X0136038Y0208404D01*
X0136038Y0215196D01*
X0135429Y0216666D01*
X0134304Y0217791D01*
X0132833Y0218400D01*
X0131242Y0218400D01*
X0129772Y0217791D01*
X0128938Y0216957D01*
X0128938Y0224175D01*
X0129751Y0224987D01*
X0130238Y0226163D01*
X0130238Y0227437D01*
X0129751Y0228613D01*
X0128850Y0229513D01*
X0127674Y0230000D01*
X0126401Y0230000D01*
X0125225Y0229513D01*
X0124325Y0228613D01*
X0123938Y0227678D01*
X0123938Y0241013D01*
X0150525Y0267600D01*
X0153777Y0267600D01*
X0155138Y0268960D01*
X0155138Y0268513D01*
X0156251Y0267400D01*
X0157638Y0266013D01*
X0157638Y0255178D01*
X0157251Y0256113D01*
X0156438Y0256925D01*
X0156438Y0260087D01*
X0155325Y0261200D01*
X0148751Y0261200D01*
X0147638Y0260087D01*
X0142638Y0255087D01*
X0142638Y0218400D01*
X0141242Y0218400D01*
X0139772Y0217791D01*
X0138647Y0216666D01*
X0138038Y0215196D01*
X0138038Y0208404D01*
X0138647Y0206934D01*
X0139772Y0205809D01*
X0141242Y0205200D01*
X0142833Y0205200D01*
X0144304Y0205809D01*
X0145429Y0206934D01*
X0146038Y0208404D01*
X0146038Y0213113D01*
X0146438Y0213513D01*
X0146438Y0253422D01*
X0146825Y0252487D01*
X0147638Y0251675D01*
X0147638Y0213513D01*
X0148038Y0213113D01*
X0148038Y0208404D01*
X0148647Y0206934D01*
X0149772Y0205809D01*
X0151242Y0205200D01*
X0152833Y0205200D01*
X0154304Y0205809D01*
X0155429Y0206934D01*
X0156038Y0208404D01*
X0156038Y0215196D01*
X0155429Y0216666D01*
X0154304Y0217791D01*
X0152833Y0218400D01*
X0151438Y0218400D01*
X0151438Y0251675D01*
X0152038Y0252275D01*
X0152725Y0251587D01*
X0153901Y0251100D01*
X0155174Y0251100D01*
X0156350Y0251587D01*
X0157251Y0252487D01*
X0157638Y0253422D01*
X0157638Y0231013D01*
X0158751Y0229900D01*
X0165138Y0223513D01*
X0165138Y0216957D01*
X0164304Y0217791D01*
X0162833Y0218400D01*
X0161242Y0218400D01*
X0159772Y0217791D01*
X0158647Y0216666D01*
X0158038Y0215196D01*
X0158038Y0208404D01*
X0158647Y0206934D01*
X0159772Y0205809D01*
X0161242Y0205200D01*
X0162833Y0205200D01*
X0164304Y0205809D01*
X0165138Y0206643D01*
X0165138Y0186957D01*
X0164304Y0187791D01*
X0162833Y0188400D01*
X0161242Y0188400D01*
X0159772Y0187791D01*
X0158647Y0186666D01*
X0158038Y0185196D01*
X0158038Y0178404D01*
X0158647Y0176934D01*
X0159772Y0175809D01*
X0161242Y0175200D01*
X0162833Y0175200D01*
X0164304Y0175809D01*
X0165138Y0176643D01*
X0165138Y0122587D01*
X0148638Y0106087D01*
X0148638Y0107596D01*
X0148029Y0109066D01*
X0146904Y0110191D01*
X0145433Y0110800D01*
X0138642Y0110800D01*
X0137172Y0110191D01*
X0136047Y0109066D01*
X0135438Y0107596D01*
X0135438Y0106004D01*
X0136047Y0104534D01*
X0137172Y0103409D01*
X0138642Y0102800D01*
X0145351Y0102800D01*
X0143351Y0100800D01*
X0138642Y0100800D01*
X0137172Y0100191D01*
X0136047Y0099066D01*
X0135438Y0097596D01*
X0135438Y0096087D01*
X0128938Y0102587D01*
X0128938Y0176643D01*
X0129772Y0175809D01*
X0131242Y0175200D01*
X0132833Y0175200D01*
X0134304Y0175809D01*
X0134823Y0176328D01*
X0146338Y0164813D01*
X0146338Y0163663D01*
X0146825Y0162487D01*
X0147725Y0161587D01*
X0146440Y0163417D02*
X0128938Y0163417D01*
X0128938Y0165015D02*
X0146135Y0165015D01*
X0144537Y0166614D02*
X0128938Y0166614D01*
X0128938Y0168212D02*
X0142938Y0168212D01*
X0141340Y0169811D02*
X0128938Y0169811D01*
X0128938Y0171409D02*
X0139741Y0171409D01*
X0138143Y0173008D02*
X0128938Y0173008D01*
X0128938Y0174606D02*
X0136544Y0174606D01*
X0134946Y0176205D02*
X0134700Y0176205D01*
X0137123Y0179402D02*
X0138038Y0179402D01*
X0138038Y0181001D02*
X0136038Y0181001D01*
X0136038Y0182599D02*
X0138038Y0182599D01*
X0138038Y0184198D02*
X0136038Y0184198D01*
X0135789Y0185796D02*
X0138286Y0185796D01*
X0139376Y0187395D02*
X0134700Y0187395D01*
X0129376Y0187395D02*
X0128938Y0187395D01*
X0128938Y0188993D02*
X0165138Y0188993D01*
X0165138Y0187395D02*
X0164700Y0187395D01*
X0165138Y0190592D02*
X0128938Y0190592D01*
X0128938Y0192190D02*
X0165138Y0192190D01*
X0165138Y0193789D02*
X0128938Y0193789D01*
X0128938Y0195387D02*
X0165138Y0195387D01*
X0165138Y0196986D02*
X0128938Y0196986D01*
X0128938Y0198584D02*
X0165138Y0198584D01*
X0165138Y0200183D02*
X0128938Y0200183D01*
X0128938Y0201781D02*
X0165138Y0201781D01*
X0165138Y0203380D02*
X0128938Y0203380D01*
X0128938Y0204978D02*
X0165138Y0204978D01*
X0165138Y0206577D02*
X0165071Y0206577D01*
X0159004Y0206577D02*
X0155071Y0206577D01*
X0155943Y0208175D02*
X0158133Y0208175D01*
X0158038Y0209774D02*
X0156038Y0209774D01*
X0156038Y0211372D02*
X0158038Y0211372D01*
X0158038Y0212971D02*
X0156038Y0212971D01*
X0156038Y0214569D02*
X0158038Y0214569D01*
X0158440Y0216168D02*
X0155635Y0216168D01*
X0154328Y0217766D02*
X0159747Y0217766D01*
X0164328Y0217766D02*
X0165138Y0217766D01*
X0165138Y0219365D02*
X0151438Y0219365D01*
X0151438Y0220963D02*
X0165138Y0220963D01*
X0165138Y0222562D02*
X0151438Y0222562D01*
X0151438Y0224160D02*
X0164490Y0224160D01*
X0162892Y0225759D02*
X0151438Y0225759D01*
X0151438Y0227357D02*
X0161293Y0227357D01*
X0159695Y0228956D02*
X0151438Y0228956D01*
X0151438Y0230554D02*
X0158096Y0230554D01*
X0157638Y0232153D02*
X0151438Y0232153D01*
X0151438Y0233751D02*
X0157638Y0233751D01*
X0157638Y0235350D02*
X0151438Y0235350D01*
X0151438Y0236948D02*
X0157638Y0236948D01*
X0157638Y0238547D02*
X0151438Y0238547D01*
X0151438Y0240145D02*
X0157638Y0240145D01*
X0157638Y0241744D02*
X0151438Y0241744D01*
X0151438Y0243342D02*
X0157638Y0243342D01*
X0157638Y0244941D02*
X0151438Y0244941D01*
X0151438Y0246539D02*
X0157638Y0246539D01*
X0157638Y0248138D02*
X0151438Y0248138D01*
X0151438Y0249737D02*
X0157638Y0249737D01*
X0157638Y0251335D02*
X0155742Y0251335D01*
X0157435Y0252934D02*
X0157638Y0252934D01*
X0157638Y0256131D02*
X0157233Y0256131D01*
X0157638Y0257729D02*
X0156438Y0257729D01*
X0156438Y0259328D02*
X0157638Y0259328D01*
X0157638Y0260926D02*
X0155599Y0260926D01*
X0157638Y0262525D02*
X0145449Y0262525D01*
X0147048Y0264123D02*
X0157638Y0264123D01*
X0157638Y0265722D02*
X0148646Y0265722D01*
X0150245Y0267320D02*
X0156331Y0267320D01*
X0156251Y0267400D02*
X0156251Y0267400D01*
X0155138Y0268919D02*
X0155096Y0268919D01*
X0155138Y0274640D02*
X0153777Y0276000D01*
X0150298Y0276000D01*
X0147838Y0273540D01*
X0147838Y0270287D01*
X0120138Y0242587D01*
X0120138Y0232678D01*
X0119751Y0233613D01*
X0118850Y0234513D01*
X0117674Y0235000D01*
X0116401Y0235000D01*
X0115225Y0234513D01*
X0114325Y0233613D01*
X0113938Y0232678D01*
X0113938Y0241013D01*
X0150525Y0277600D01*
X0153777Y0277600D01*
X0156238Y0280060D01*
X0156238Y0283540D01*
X0153777Y0286000D01*
X0150298Y0286000D01*
X0147838Y0283540D01*
X0147838Y0280287D01*
X0111251Y0243700D01*
X0110138Y0242587D01*
X0110138Y0222678D01*
X0109751Y0223613D01*
X0108850Y0224513D01*
X0107674Y0225000D01*
X0106401Y0225000D01*
X0105225Y0224513D01*
X0104325Y0223613D01*
X0103838Y0222437D01*
X0103838Y0221287D01*
X0096251Y0213700D01*
X0095138Y0212587D01*
X0095138Y0076957D01*
X0094304Y0077791D01*
X0092833Y0078400D01*
X0091242Y0078400D01*
X0089772Y0077791D01*
X0088938Y0076957D01*
X0088938Y0292400D01*
X0192451Y0292400D01*
X0185138Y0285087D01*
X0185138Y0284640D01*
X0183777Y0286000D01*
X0180298Y0286000D01*
X0177838Y0283540D01*
X0177838Y0280060D01*
X0179198Y0278700D01*
X0176251Y0278700D01*
X0175138Y0277587D01*
X0173551Y0276000D01*
X0170298Y0276000D01*
X0168938Y0274640D01*
X0168938Y0277587D01*
X0167825Y0278700D01*
X0164877Y0278700D01*
X0166238Y0280060D01*
X0166238Y0283540D01*
X0163777Y0286000D01*
X0160298Y0286000D01*
X0157838Y0283540D01*
X0157838Y0280060D01*
X0159198Y0278700D01*
X0158751Y0278700D01*
X0157638Y0277587D01*
X0155138Y0275087D01*
X0155138Y0274640D01*
X0155363Y0275313D02*
X0154465Y0275313D01*
X0156962Y0276911D02*
X0149836Y0276911D01*
X0149611Y0275313D02*
X0148237Y0275313D01*
X0148012Y0273714D02*
X0146639Y0273714D01*
X0147838Y0272116D02*
X0145040Y0272116D01*
X0143442Y0270517D02*
X0147838Y0270517D01*
X0146469Y0268919D02*
X0141843Y0268919D01*
X0140245Y0267320D02*
X0144871Y0267320D01*
X0143272Y0265722D02*
X0138646Y0265722D01*
X0137048Y0264123D02*
X0141674Y0264123D01*
X0140075Y0262525D02*
X0135449Y0262525D01*
X0133851Y0260926D02*
X0138477Y0260926D01*
X0136878Y0259328D02*
X0132252Y0259328D01*
X0130654Y0257729D02*
X0135280Y0257729D01*
X0133681Y0256131D02*
X0129055Y0256131D01*
X0127457Y0254532D02*
X0132083Y0254532D01*
X0130484Y0252934D02*
X0125858Y0252934D01*
X0124260Y0251335D02*
X0128886Y0251335D01*
X0127287Y0249737D02*
X0122661Y0249737D01*
X0121063Y0248138D02*
X0125689Y0248138D01*
X0124090Y0246539D02*
X0119464Y0246539D01*
X0117866Y0244941D02*
X0122492Y0244941D01*
X0120893Y0243342D02*
X0116267Y0243342D01*
X0114669Y0241744D02*
X0120138Y0241744D01*
X0120138Y0240145D02*
X0113938Y0240145D01*
X0113938Y0238547D02*
X0120138Y0238547D01*
X0120138Y0236948D02*
X0113938Y0236948D01*
X0113938Y0235350D02*
X0120138Y0235350D01*
X0120138Y0233751D02*
X0119612Y0233751D01*
X0123938Y0233751D02*
X0142638Y0233751D01*
X0142638Y0232153D02*
X0123938Y0232153D01*
X0123938Y0230554D02*
X0142638Y0230554D01*
X0142638Y0228956D02*
X0129407Y0228956D01*
X0130238Y0227357D02*
X0142638Y0227357D01*
X0142638Y0225759D02*
X0130070Y0225759D01*
X0128938Y0224160D02*
X0142638Y0224160D01*
X0142638Y0222562D02*
X0128938Y0222562D01*
X0128938Y0220963D02*
X0142638Y0220963D01*
X0142638Y0219365D02*
X0128938Y0219365D01*
X0128938Y0217766D02*
X0129747Y0217766D01*
X0134328Y0217766D02*
X0139747Y0217766D01*
X0138440Y0216168D02*
X0135635Y0216168D01*
X0136038Y0214569D02*
X0138038Y0214569D01*
X0138038Y0212971D02*
X0136038Y0212971D01*
X0136038Y0211372D02*
X0138038Y0211372D01*
X0138038Y0209774D02*
X0136038Y0209774D01*
X0135943Y0208175D02*
X0138133Y0208175D01*
X0139004Y0206577D02*
X0135071Y0206577D01*
X0129004Y0206577D02*
X0128938Y0206577D01*
X0145071Y0206577D02*
X0149004Y0206577D01*
X0148133Y0208175D02*
X0145943Y0208175D01*
X0146038Y0209774D02*
X0148038Y0209774D01*
X0148038Y0211372D02*
X0146038Y0211372D01*
X0146038Y0212971D02*
X0148038Y0212971D01*
X0147638Y0214569D02*
X0146438Y0214569D01*
X0146438Y0216168D02*
X0147638Y0216168D01*
X0147638Y0217766D02*
X0146438Y0217766D01*
X0146438Y0219365D02*
X0147638Y0219365D01*
X0147638Y0220963D02*
X0146438Y0220963D01*
X0146438Y0222562D02*
X0147638Y0222562D01*
X0147638Y0224160D02*
X0146438Y0224160D01*
X0146438Y0225759D02*
X0147638Y0225759D01*
X0147638Y0227357D02*
X0146438Y0227357D01*
X0146438Y0228956D02*
X0147638Y0228956D01*
X0147638Y0230554D02*
X0146438Y0230554D01*
X0146438Y0232153D02*
X0147638Y0232153D01*
X0147638Y0233751D02*
X0146438Y0233751D01*
X0146438Y0235350D02*
X0147638Y0235350D01*
X0147638Y0236948D02*
X0146438Y0236948D01*
X0146438Y0238547D02*
X0147638Y0238547D01*
X0147638Y0240145D02*
X0146438Y0240145D01*
X0146438Y0241744D02*
X0147638Y0241744D01*
X0147638Y0243342D02*
X0146438Y0243342D01*
X0146438Y0244941D02*
X0147638Y0244941D01*
X0147638Y0246539D02*
X0146438Y0246539D01*
X0146438Y0248138D02*
X0147638Y0248138D01*
X0147638Y0249737D02*
X0146438Y0249737D01*
X0146438Y0251335D02*
X0147638Y0251335D01*
X0146640Y0252934D02*
X0146438Y0252934D01*
X0142638Y0252934D02*
X0135858Y0252934D01*
X0137457Y0254532D02*
X0142638Y0254532D01*
X0143681Y0256131D02*
X0139055Y0256131D01*
X0140654Y0257729D02*
X0145280Y0257729D01*
X0146878Y0259328D02*
X0142252Y0259328D01*
X0143851Y0260926D02*
X0148477Y0260926D01*
X0151438Y0251335D02*
X0153334Y0251335D01*
X0142638Y0251335D02*
X0134260Y0251335D01*
X0132661Y0249737D02*
X0142638Y0249737D01*
X0142638Y0248138D02*
X0131063Y0248138D01*
X0129464Y0246539D02*
X0142638Y0246539D01*
X0142638Y0244941D02*
X0127866Y0244941D01*
X0126267Y0243342D02*
X0142638Y0243342D01*
X0142638Y0241744D02*
X0124669Y0241744D01*
X0123938Y0240145D02*
X0142638Y0240145D01*
X0142638Y0238547D02*
X0123938Y0238547D01*
X0123938Y0236948D02*
X0142638Y0236948D01*
X0142638Y0235350D02*
X0123938Y0235350D01*
X0123938Y0228956D02*
X0124668Y0228956D01*
X0114464Y0233751D02*
X0113938Y0233751D01*
X0110138Y0233751D02*
X0088938Y0233751D01*
X0088938Y0232153D02*
X0110138Y0232153D01*
X0110138Y0230554D02*
X0088938Y0230554D01*
X0088938Y0228956D02*
X0110138Y0228956D01*
X0110138Y0227357D02*
X0088938Y0227357D01*
X0088938Y0225759D02*
X0110138Y0225759D01*
X0110138Y0224160D02*
X0109203Y0224160D01*
X0104873Y0224160D02*
X0088938Y0224160D01*
X0088938Y0222562D02*
X0103890Y0222562D01*
X0103514Y0220963D02*
X0088938Y0220963D01*
X0088938Y0219365D02*
X0101916Y0219365D01*
X0100317Y0217766D02*
X0088938Y0217766D01*
X0088938Y0216168D02*
X0098719Y0216168D01*
X0097120Y0214569D02*
X0088938Y0214569D01*
X0088938Y0212971D02*
X0095522Y0212971D01*
X0095138Y0211372D02*
X0088938Y0211372D01*
X0088938Y0209774D02*
X0095138Y0209774D01*
X0095138Y0208175D02*
X0088938Y0208175D01*
X0088938Y0206577D02*
X0095138Y0206577D01*
X0095138Y0204978D02*
X0088938Y0204978D01*
X0088938Y0203380D02*
X0095138Y0203380D01*
X0095138Y0201781D02*
X0088938Y0201781D01*
X0088938Y0200183D02*
X0095138Y0200183D01*
X0095138Y0198584D02*
X0088938Y0198584D01*
X0088938Y0196986D02*
X0095138Y0196986D01*
X0095138Y0195387D02*
X0088938Y0195387D01*
X0088938Y0193789D02*
X0095138Y0193789D01*
X0095138Y0192190D02*
X0088938Y0192190D01*
X0088938Y0190592D02*
X0095138Y0190592D01*
X0095138Y0188993D02*
X0088938Y0188993D01*
X0088938Y0187395D02*
X0095138Y0187395D01*
X0095138Y0185796D02*
X0088938Y0185796D01*
X0088938Y0184198D02*
X0095138Y0184198D01*
X0095138Y0182599D02*
X0088938Y0182599D01*
X0088938Y0181001D02*
X0095138Y0181001D01*
X0095138Y0179402D02*
X0088938Y0179402D01*
X0088938Y0177803D02*
X0095138Y0177803D01*
X0095138Y0176205D02*
X0088938Y0176205D01*
X0088938Y0174606D02*
X0095138Y0174606D01*
X0095138Y0173008D02*
X0088938Y0173008D01*
X0088938Y0171409D02*
X0095138Y0171409D01*
X0095138Y0169811D02*
X0088938Y0169811D01*
X0088938Y0168212D02*
X0095138Y0168212D01*
X0095138Y0166614D02*
X0088938Y0166614D01*
X0088938Y0165015D02*
X0095138Y0165015D01*
X0095138Y0163417D02*
X0088938Y0163417D01*
X0088938Y0161818D02*
X0095138Y0161818D01*
X0095138Y0160220D02*
X0088938Y0160220D01*
X0088938Y0158621D02*
X0095138Y0158621D01*
X0095138Y0157023D02*
X0088938Y0157023D01*
X0088938Y0155424D02*
X0095138Y0155424D01*
X0095138Y0153826D02*
X0088938Y0153826D01*
X0088938Y0152227D02*
X0095138Y0152227D01*
X0095138Y0150629D02*
X0088938Y0150629D01*
X0088938Y0149030D02*
X0095138Y0149030D01*
X0095138Y0147432D02*
X0088938Y0147432D01*
X0088938Y0145833D02*
X0095138Y0145833D01*
X0095138Y0144235D02*
X0088938Y0144235D01*
X0088938Y0142636D02*
X0095138Y0142636D01*
X0095138Y0141038D02*
X0088938Y0141038D01*
X0088938Y0139439D02*
X0095138Y0139439D01*
X0095138Y0137841D02*
X0088938Y0137841D01*
X0088938Y0136242D02*
X0095138Y0136242D01*
X0095138Y0134644D02*
X0088938Y0134644D01*
X0088938Y0133045D02*
X0095138Y0133045D01*
X0095138Y0131447D02*
X0088938Y0131447D01*
X0088938Y0129848D02*
X0095138Y0129848D01*
X0095138Y0128250D02*
X0088938Y0128250D01*
X0088938Y0126651D02*
X0095138Y0126651D01*
X0095138Y0125053D02*
X0088938Y0125053D01*
X0088938Y0123454D02*
X0095138Y0123454D01*
X0095138Y0121856D02*
X0088938Y0121856D01*
X0088938Y0120257D02*
X0095138Y0120257D01*
X0095138Y0118659D02*
X0088938Y0118659D01*
X0088938Y0117060D02*
X0095138Y0117060D01*
X0095138Y0115462D02*
X0088938Y0115462D01*
X0088938Y0113863D02*
X0095138Y0113863D01*
X0095138Y0112265D02*
X0088938Y0112265D01*
X0088938Y0110666D02*
X0095138Y0110666D01*
X0095138Y0109068D02*
X0088938Y0109068D01*
X0088938Y0107469D02*
X0095138Y0107469D01*
X0095138Y0105870D02*
X0088938Y0105870D01*
X0088938Y0104272D02*
X0095138Y0104272D01*
X0095138Y0102673D02*
X0088938Y0102673D01*
X0088938Y0101075D02*
X0095138Y0101075D01*
X0095138Y0099476D02*
X0088938Y0099476D01*
X0088938Y0097878D02*
X0095138Y0097878D01*
X0095138Y0096279D02*
X0088938Y0096279D01*
X0088938Y0094681D02*
X0095138Y0094681D01*
X0095138Y0093082D02*
X0088938Y0093082D01*
X0088938Y0091484D02*
X0095138Y0091484D01*
X0095138Y0089885D02*
X0088938Y0089885D01*
X0088938Y0088287D02*
X0095138Y0088287D01*
X0095138Y0086688D02*
X0088938Y0086688D01*
X0088938Y0085090D02*
X0095138Y0085090D01*
X0095138Y0083491D02*
X0088938Y0083491D01*
X0088938Y0081893D02*
X0095138Y0081893D01*
X0095138Y0080294D02*
X0088938Y0080294D01*
X0088938Y0078696D02*
X0095138Y0078696D01*
X0095138Y0077097D02*
X0094997Y0077097D01*
X0098938Y0077097D02*
X0099078Y0077097D01*
X0098938Y0076957D02*
X0099772Y0077791D01*
X0101242Y0078400D01*
X0102833Y0078400D01*
X0104304Y0077791D01*
X0105429Y0076666D01*
X0106038Y0075196D01*
X0106038Y0068404D01*
X0105429Y0066934D01*
X0104304Y0065809D01*
X0103938Y0065657D01*
X0103938Y0061925D01*
X0104751Y0061113D01*
X0105238Y0059937D01*
X0105238Y0058663D01*
X0104751Y0057487D01*
X0103850Y0056587D01*
X0102674Y0056100D01*
X0101401Y0056100D01*
X0100225Y0056587D01*
X0099325Y0057487D01*
X0098938Y0058422D01*
X0098938Y0026013D01*
X0092125Y0019200D01*
X0092913Y0019200D01*
X0094530Y0018530D01*
X0095768Y0017292D01*
X0096438Y0015675D01*
X0096438Y0007925D01*
X0095768Y0006308D01*
X0095660Y0006200D01*
X0098415Y0006200D01*
X0098308Y0006308D01*
X0097638Y0007925D01*
X0097638Y0015675D01*
X0098308Y0017292D01*
X0099545Y0018530D01*
X0101163Y0019200D01*
X0102913Y0019200D01*
X0104530Y0018530D01*
X0105768Y0017292D01*
X0106438Y0015675D01*
X0106438Y0007925D01*
X0105768Y0006308D01*
X0105660Y0006200D01*
X0107751Y0006200D01*
X0107404Y0006881D01*
X0107161Y0007629D01*
X0107038Y0008406D01*
X0107038Y0011600D01*
X0111838Y0011600D01*
X0111838Y0012000D01*
X0111838Y0019800D01*
X0111644Y0019800D01*
X0110867Y0019677D01*
X0110118Y0019434D01*
X0109417Y0019076D01*
X0108781Y0018614D01*
X0108224Y0018057D01*
X0107761Y0017421D01*
X0107404Y0016719D01*
X0107161Y0015971D01*
X0107038Y0015194D01*
X0107038Y0012000D01*
X0111838Y0012000D01*
X0112238Y0012000D01*
X0112238Y0019800D01*
X0112431Y0019800D01*
X0113209Y0019677D01*
X0113957Y0019434D01*
X0114658Y0019076D01*
X0115138Y0018728D01*
X0115138Y0020087D01*
X0116251Y0021200D01*
X0123751Y0021200D01*
X0175351Y0072800D01*
X0168642Y0072800D01*
X0167172Y0073409D01*
X0166047Y0074534D01*
X0165895Y0074900D01*
X0148751Y0074900D01*
X0148347Y0075303D01*
X0148029Y0074534D01*
X0146904Y0073409D01*
X0145433Y0072800D01*
X0138642Y0072800D01*
X0137172Y0073409D01*
X0136047Y0074534D01*
X0135895Y0074900D01*
X0116616Y0074900D01*
X0116638Y0074762D01*
X0116638Y0071800D01*
X0112038Y0071800D01*
X0112038Y0071800D01*
X0116638Y0071800D01*
X0116638Y0068838D01*
X0116525Y0068123D01*
X0116301Y0067434D01*
X0115972Y0066789D01*
X0115546Y0066203D01*
X0115034Y0065691D01*
X0114449Y0065266D01*
X0113804Y0064937D01*
X0113115Y0064713D01*
X0112400Y0064600D01*
X0112038Y0064600D01*
X0112038Y0071800D01*
X0112038Y0071800D01*
X0112038Y0079000D01*
X0112400Y0079000D01*
X0113115Y0078887D01*
X0113804Y0078663D01*
X0114449Y0078334D01*
X0115034Y0077909D01*
X0115138Y0077805D01*
X0115138Y0110922D01*
X0114751Y0109987D01*
X0113850Y0109087D01*
X0112674Y0108600D01*
X0111401Y0108600D01*
X0110225Y0109087D01*
X0109325Y0109987D01*
X0108838Y0111163D01*
X0108838Y0112437D01*
X0109325Y0113613D01*
X0110138Y0114425D01*
X0110138Y0220922D01*
X0109751Y0219987D01*
X0108850Y0219087D01*
X0107674Y0218600D01*
X0106525Y0218600D01*
X0098938Y0211013D01*
X0098938Y0076957D01*
X0098938Y0078696D02*
X0110373Y0078696D01*
X0110272Y0078663D02*
X0109627Y0078334D01*
X0109041Y0077909D01*
X0108529Y0077397D01*
X0108104Y0076811D01*
X0107775Y0076166D01*
X0107551Y0075477D01*
X0107438Y0074762D01*
X0107438Y0071800D01*
X0112038Y0071800D01*
X0112038Y0071800D01*
X0112038Y0064600D01*
X0111676Y0064600D01*
X0110961Y0064713D01*
X0110272Y0064937D01*
X0109627Y0065266D01*
X0109041Y0065691D01*
X0108529Y0066203D01*
X0108104Y0066789D01*
X0107775Y0067434D01*
X0107551Y0068123D01*
X0107438Y0068838D01*
X0107438Y0071800D01*
X0112038Y0071800D01*
X0112038Y0079000D01*
X0111676Y0079000D01*
X0110961Y0078887D01*
X0110272Y0078663D01*
X0112038Y0078696D02*
X0112038Y0078696D01*
X0112038Y0077097D02*
X0112038Y0077097D01*
X0112038Y0075499D02*
X0112038Y0075499D01*
X0112038Y0073900D02*
X0112038Y0073900D01*
X0112038Y0072302D02*
X0112038Y0072302D01*
X0112038Y0071800D02*
X0112038Y0071800D01*
X0112038Y0070703D02*
X0112038Y0070703D01*
X0112038Y0069105D02*
X0112038Y0069105D01*
X0112038Y0067506D02*
X0112038Y0067506D01*
X0112038Y0065908D02*
X0112038Y0065908D01*
X0115251Y0065908D02*
X0168459Y0065908D01*
X0170057Y0067506D02*
X0116324Y0067506D01*
X0116638Y0069105D02*
X0171656Y0069105D01*
X0173254Y0070703D02*
X0116638Y0070703D01*
X0116638Y0072302D02*
X0174853Y0072302D01*
X0176654Y0080294D02*
X0177638Y0080294D01*
X0177638Y0081893D02*
X0149632Y0081893D01*
X0148033Y0083491D02*
X0166241Y0083491D01*
X0166441Y0083291D02*
X0167027Y0082866D01*
X0167672Y0082537D01*
X0168361Y0082313D01*
X0169076Y0082200D01*
X0172038Y0082200D01*
X0172038Y0086800D01*
X0172038Y0086800D01*
X0172038Y0091400D01*
X0169076Y0091400D01*
X0168361Y0091287D01*
X0167672Y0091063D01*
X0167027Y0090734D01*
X0166441Y0090309D01*
X0165929Y0089797D01*
X0165504Y0089211D01*
X0165175Y0088566D01*
X0164951Y0087877D01*
X0164838Y0087162D01*
X0164838Y0086800D01*
X0172038Y0086800D01*
X0164838Y0086800D01*
X0164838Y0086438D01*
X0164951Y0085723D01*
X0165175Y0085034D01*
X0165504Y0084389D01*
X0165929Y0083803D01*
X0166441Y0083291D01*
X0165157Y0085090D02*
X0148259Y0085090D01*
X0148638Y0086688D02*
X0164838Y0086688D01*
X0165084Y0088287D02*
X0148351Y0088287D01*
X0147209Y0089885D02*
X0166018Y0089885D01*
X0167960Y0093082D02*
X0146115Y0093082D01*
X0148090Y0094681D02*
X0165986Y0094681D01*
X0165438Y0096279D02*
X0148638Y0096279D01*
X0148521Y0097878D02*
X0165555Y0097878D01*
X0166457Y0099476D02*
X0147618Y0099476D01*
X0149000Y0101075D02*
X0177638Y0101075D01*
X0177638Y0102673D02*
X0150598Y0102673D01*
X0152197Y0104272D02*
X0166309Y0104272D01*
X0165493Y0105870D02*
X0153795Y0105870D01*
X0155394Y0107469D02*
X0165438Y0107469D01*
X0166048Y0109068D02*
X0156992Y0109068D01*
X0158591Y0110666D02*
X0168319Y0110666D01*
X0161209Y0118659D02*
X0128938Y0118659D01*
X0128938Y0120257D02*
X0162808Y0120257D01*
X0164406Y0121856D02*
X0128938Y0121856D01*
X0128938Y0123454D02*
X0165138Y0123454D01*
X0165138Y0125053D02*
X0128938Y0125053D01*
X0128938Y0126651D02*
X0165138Y0126651D01*
X0159611Y0117060D02*
X0128938Y0117060D01*
X0128938Y0115462D02*
X0158012Y0115462D01*
X0156414Y0113863D02*
X0128938Y0113863D01*
X0128938Y0112265D02*
X0154815Y0112265D01*
X0153217Y0110666D02*
X0145757Y0110666D01*
X0148027Y0109068D02*
X0151618Y0109068D01*
X0150020Y0107469D02*
X0148638Y0107469D01*
X0145224Y0102673D02*
X0128938Y0102673D01*
X0128938Y0104272D02*
X0136309Y0104272D01*
X0135493Y0105870D02*
X0128938Y0105870D01*
X0128938Y0107469D02*
X0135438Y0107469D01*
X0136048Y0109068D02*
X0128938Y0109068D01*
X0128938Y0110666D02*
X0138319Y0110666D01*
X0143626Y0101075D02*
X0130450Y0101075D01*
X0132048Y0099476D02*
X0136457Y0099476D01*
X0135555Y0097878D02*
X0133647Y0097878D01*
X0135245Y0096279D02*
X0135438Y0096279D01*
X0140041Y0091484D02*
X0177638Y0091484D01*
X0177638Y0093082D02*
X0176115Y0093082D01*
X0172038Y0089885D02*
X0172038Y0089885D01*
X0172038Y0088287D02*
X0172038Y0088287D01*
X0172038Y0086800D02*
X0172038Y0086800D01*
X0172038Y0086688D02*
X0172038Y0086688D01*
X0172038Y0085090D02*
X0172038Y0085090D01*
X0172038Y0083491D02*
X0172038Y0083491D01*
X0167421Y0080294D02*
X0151230Y0080294D01*
X0147395Y0073900D02*
X0166681Y0073900D01*
X0166860Y0064309D02*
X0103938Y0064309D01*
X0103938Y0062711D02*
X0165261Y0062711D01*
X0163663Y0061112D02*
X0104751Y0061112D01*
X0105238Y0059514D02*
X0162064Y0059514D01*
X0160466Y0057915D02*
X0104928Y0057915D01*
X0103197Y0056317D02*
X0158867Y0056317D01*
X0157269Y0054718D02*
X0098938Y0054718D01*
X0098938Y0053120D02*
X0155670Y0053120D01*
X0154072Y0051521D02*
X0098938Y0051521D01*
X0098938Y0049923D02*
X0152473Y0049923D01*
X0150875Y0048324D02*
X0098938Y0048324D01*
X0098938Y0046726D02*
X0149276Y0046726D01*
X0147678Y0045127D02*
X0098938Y0045127D01*
X0098938Y0043529D02*
X0146079Y0043529D01*
X0144481Y0041930D02*
X0098938Y0041930D01*
X0098938Y0040332D02*
X0142882Y0040332D01*
X0141284Y0038733D02*
X0098938Y0038733D01*
X0098938Y0037134D02*
X0139685Y0037134D01*
X0138087Y0035536D02*
X0098938Y0035536D01*
X0098938Y0033937D02*
X0136488Y0033937D01*
X0134890Y0032339D02*
X0098938Y0032339D01*
X0098938Y0030740D02*
X0133291Y0030740D01*
X0131693Y0029142D02*
X0098938Y0029142D01*
X0098938Y0027543D02*
X0130094Y0027543D01*
X0128496Y0025945D02*
X0098870Y0025945D01*
X0097271Y0024346D02*
X0126897Y0024346D01*
X0125299Y0022748D02*
X0095673Y0022748D01*
X0094074Y0021149D02*
X0116200Y0021149D01*
X0115138Y0019551D02*
X0113596Y0019551D01*
X0112238Y0019551D02*
X0111838Y0019551D01*
X0110479Y0019551D02*
X0092476Y0019551D01*
X0095108Y0017952D02*
X0098968Y0017952D01*
X0097919Y0016354D02*
X0096157Y0016354D01*
X0096438Y0014755D02*
X0097638Y0014755D01*
X0097638Y0013157D02*
X0096438Y0013157D01*
X0096438Y0011558D02*
X0097638Y0011558D01*
X0097638Y0009960D02*
X0096438Y0009960D01*
X0096438Y0008361D02*
X0097638Y0008361D01*
X0098119Y0006763D02*
X0095956Y0006763D01*
X0105956Y0006763D02*
X0107464Y0006763D01*
X0107045Y0008361D02*
X0106438Y0008361D01*
X0106438Y0009960D02*
X0107038Y0009960D01*
X0107038Y0011558D02*
X0106438Y0011558D01*
X0106438Y0013157D02*
X0107038Y0013157D01*
X0107038Y0014755D02*
X0106438Y0014755D01*
X0106157Y0016354D02*
X0107285Y0016354D01*
X0108148Y0017952D02*
X0105108Y0017952D01*
X0111838Y0017952D02*
X0112238Y0017952D01*
X0112238Y0016354D02*
X0111838Y0016354D01*
X0111838Y0014755D02*
X0112238Y0014755D01*
X0112238Y0013157D02*
X0111838Y0013157D01*
X0126438Y0013157D02*
X0187038Y0013157D01*
X0187038Y0014755D02*
X0126438Y0014755D01*
X0126157Y0016354D02*
X0187285Y0016354D01*
X0188148Y0017952D02*
X0125877Y0017952D01*
X0127476Y0019551D02*
X0190479Y0019551D01*
X0191838Y0019551D02*
X0192238Y0019551D01*
X0193596Y0019551D02*
X0207102Y0019551D01*
X0208700Y0021149D02*
X0129074Y0021149D01*
X0130673Y0022748D02*
X0210299Y0022748D01*
X0211897Y0024346D02*
X0132271Y0024346D01*
X0133870Y0025945D02*
X0213496Y0025945D01*
X0215094Y0027543D02*
X0135468Y0027543D01*
X0137067Y0029142D02*
X0216693Y0029142D01*
X0218291Y0030740D02*
X0138665Y0030740D01*
X0140264Y0032339D02*
X0219890Y0032339D01*
X0220138Y0033937D02*
X0141862Y0033937D01*
X0143461Y0035536D02*
X0220138Y0035536D01*
X0220138Y0037134D02*
X0209398Y0037134D01*
X0210238Y0038733D02*
X0220138Y0038733D01*
X0220138Y0040332D02*
X0210756Y0040332D01*
X0211438Y0041930D02*
X0220138Y0041930D01*
X0220138Y0043529D02*
X0211438Y0043529D01*
X0211438Y0045127D02*
X0220138Y0045127D01*
X0220138Y0046726D02*
X0211438Y0046726D01*
X0211438Y0048324D02*
X0220138Y0048324D01*
X0220138Y0049923D02*
X0211438Y0049923D01*
X0211438Y0051521D02*
X0220138Y0051521D01*
X0220138Y0053120D02*
X0211438Y0053120D01*
X0211438Y0054718D02*
X0220138Y0054718D01*
X0220138Y0056317D02*
X0211438Y0056317D01*
X0211438Y0057915D02*
X0215976Y0057915D01*
X0214598Y0059514D02*
X0211438Y0059514D01*
X0211438Y0061112D02*
X0214038Y0061112D01*
X0214038Y0062711D02*
X0211438Y0062711D01*
X0211438Y0064309D02*
X0214690Y0064309D01*
X0207638Y0048324D02*
X0156249Y0048324D01*
X0154650Y0046726D02*
X0207638Y0046726D01*
X0207638Y0045127D02*
X0153052Y0045127D01*
X0151453Y0043529D02*
X0207638Y0043529D01*
X0205142Y0041930D02*
X0149855Y0041930D01*
X0148256Y0040332D02*
X0204001Y0040332D01*
X0203838Y0038733D02*
X0146658Y0038733D01*
X0145059Y0037134D02*
X0204678Y0037134D01*
X0193577Y0051521D02*
X0190499Y0051521D01*
X0191219Y0053120D02*
X0192856Y0053120D01*
X0192838Y0054718D02*
X0191238Y0054718D01*
X0191238Y0056317D02*
X0192838Y0056317D01*
X0192838Y0057915D02*
X0191238Y0057915D01*
X0191238Y0059514D02*
X0191637Y0059514D01*
X0193814Y0062711D02*
X0194209Y0062711D01*
X0177638Y0099476D02*
X0177618Y0099476D01*
X0136681Y0073900D02*
X0116638Y0073900D01*
X0115138Y0078696D02*
X0113703Y0078696D01*
X0115138Y0080294D02*
X0098938Y0080294D01*
X0098938Y0081893D02*
X0115138Y0081893D01*
X0115138Y0083491D02*
X0098938Y0083491D01*
X0098938Y0085090D02*
X0115138Y0085090D01*
X0115138Y0086688D02*
X0098938Y0086688D01*
X0098938Y0088287D02*
X0115138Y0088287D01*
X0115138Y0089885D02*
X0098938Y0089885D01*
X0098938Y0091484D02*
X0115138Y0091484D01*
X0115138Y0093082D02*
X0098938Y0093082D01*
X0098938Y0094681D02*
X0115138Y0094681D01*
X0115138Y0096279D02*
X0098938Y0096279D01*
X0098938Y0097878D02*
X0115138Y0097878D01*
X0115138Y0099476D02*
X0098938Y0099476D01*
X0098938Y0101075D02*
X0115138Y0101075D01*
X0115138Y0102673D02*
X0098938Y0102673D01*
X0098938Y0104272D02*
X0115138Y0104272D01*
X0115138Y0105870D02*
X0098938Y0105870D01*
X0098938Y0107469D02*
X0115138Y0107469D01*
X0115138Y0109068D02*
X0113803Y0109068D01*
X0115032Y0110666D02*
X0115138Y0110666D01*
X0110273Y0109068D02*
X0098938Y0109068D01*
X0098938Y0110666D02*
X0109044Y0110666D01*
X0108838Y0112265D02*
X0098938Y0112265D01*
X0098938Y0113863D02*
X0109575Y0113863D01*
X0110138Y0115462D02*
X0098938Y0115462D01*
X0098938Y0117060D02*
X0110138Y0117060D01*
X0110138Y0118659D02*
X0098938Y0118659D01*
X0098938Y0120257D02*
X0110138Y0120257D01*
X0110138Y0121856D02*
X0098938Y0121856D01*
X0098938Y0123454D02*
X0110138Y0123454D01*
X0110138Y0125053D02*
X0098938Y0125053D01*
X0098938Y0126651D02*
X0110138Y0126651D01*
X0110138Y0128250D02*
X0098938Y0128250D01*
X0098938Y0129848D02*
X0110138Y0129848D01*
X0110138Y0131447D02*
X0098938Y0131447D01*
X0098938Y0133045D02*
X0110138Y0133045D01*
X0110138Y0134644D02*
X0098938Y0134644D01*
X0098938Y0136242D02*
X0110138Y0136242D01*
X0110138Y0137841D02*
X0098938Y0137841D01*
X0098938Y0139439D02*
X0110138Y0139439D01*
X0110138Y0141038D02*
X0098938Y0141038D01*
X0098938Y0142636D02*
X0110138Y0142636D01*
X0110138Y0144235D02*
X0098938Y0144235D01*
X0098938Y0145833D02*
X0110138Y0145833D01*
X0110138Y0147432D02*
X0098938Y0147432D01*
X0098938Y0149030D02*
X0110138Y0149030D01*
X0110138Y0150629D02*
X0098938Y0150629D01*
X0098938Y0152227D02*
X0110138Y0152227D01*
X0110138Y0153826D02*
X0098938Y0153826D01*
X0098938Y0155424D02*
X0110138Y0155424D01*
X0110138Y0157023D02*
X0098938Y0157023D01*
X0098938Y0158621D02*
X0110138Y0158621D01*
X0110138Y0160220D02*
X0098938Y0160220D01*
X0098938Y0161818D02*
X0110138Y0161818D01*
X0110138Y0163417D02*
X0098938Y0163417D01*
X0098938Y0165015D02*
X0110138Y0165015D01*
X0110138Y0166614D02*
X0098938Y0166614D01*
X0098938Y0168212D02*
X0110138Y0168212D01*
X0110138Y0169811D02*
X0098938Y0169811D01*
X0098938Y0171409D02*
X0110138Y0171409D01*
X0110138Y0173008D02*
X0098938Y0173008D01*
X0098938Y0174606D02*
X0110138Y0174606D01*
X0110138Y0176205D02*
X0098938Y0176205D01*
X0098938Y0177803D02*
X0110138Y0177803D01*
X0110138Y0179402D02*
X0098938Y0179402D01*
X0098938Y0181001D02*
X0110138Y0181001D01*
X0110138Y0182599D02*
X0098938Y0182599D01*
X0098938Y0184198D02*
X0110138Y0184198D01*
X0110138Y0185796D02*
X0098938Y0185796D01*
X0098938Y0187395D02*
X0110138Y0187395D01*
X0110138Y0188993D02*
X0098938Y0188993D01*
X0098938Y0190592D02*
X0110138Y0190592D01*
X0110138Y0192190D02*
X0098938Y0192190D01*
X0098938Y0193789D02*
X0110138Y0193789D01*
X0110138Y0195387D02*
X0098938Y0195387D01*
X0098938Y0196986D02*
X0110138Y0196986D01*
X0110138Y0198584D02*
X0098938Y0198584D01*
X0098938Y0200183D02*
X0110138Y0200183D01*
X0110138Y0201781D02*
X0098938Y0201781D01*
X0098938Y0203380D02*
X0110138Y0203380D01*
X0110138Y0204978D02*
X0098938Y0204978D01*
X0098938Y0206577D02*
X0110138Y0206577D01*
X0110138Y0208175D02*
X0098938Y0208175D01*
X0098938Y0209774D02*
X0110138Y0209774D01*
X0110138Y0211372D02*
X0099297Y0211372D01*
X0100896Y0212971D02*
X0110138Y0212971D01*
X0110138Y0214569D02*
X0102494Y0214569D01*
X0104093Y0216168D02*
X0110138Y0216168D01*
X0110138Y0217766D02*
X0105691Y0217766D01*
X0109128Y0219365D02*
X0110138Y0219365D01*
X0110138Y0235350D02*
X0088938Y0235350D01*
X0088938Y0236948D02*
X0110138Y0236948D01*
X0110138Y0238547D02*
X0088938Y0238547D01*
X0088938Y0240145D02*
X0110138Y0240145D01*
X0110138Y0241744D02*
X0088938Y0241744D01*
X0088938Y0243342D02*
X0110893Y0243342D01*
X0112492Y0244941D02*
X0088938Y0244941D01*
X0088938Y0246539D02*
X0114090Y0246539D01*
X0115689Y0248138D02*
X0088938Y0248138D01*
X0088938Y0249737D02*
X0117287Y0249737D01*
X0118886Y0251335D02*
X0088938Y0251335D01*
X0088938Y0252934D02*
X0120484Y0252934D01*
X0122083Y0254532D02*
X0088938Y0254532D01*
X0088938Y0256131D02*
X0123681Y0256131D01*
X0125280Y0257729D02*
X0088938Y0257729D01*
X0088938Y0259328D02*
X0126878Y0259328D01*
X0128477Y0260926D02*
X0088938Y0260926D01*
X0088938Y0262525D02*
X0130075Y0262525D01*
X0131674Y0264123D02*
X0088938Y0264123D01*
X0088938Y0265722D02*
X0133272Y0265722D01*
X0134871Y0267320D02*
X0088938Y0267320D01*
X0088938Y0268919D02*
X0136469Y0268919D01*
X0138068Y0270517D02*
X0088938Y0270517D01*
X0088938Y0272116D02*
X0139666Y0272116D01*
X0141265Y0273714D02*
X0088938Y0273714D01*
X0088938Y0275313D02*
X0142863Y0275313D01*
X0144462Y0276911D02*
X0088938Y0276911D01*
X0088938Y0278510D02*
X0146061Y0278510D01*
X0147659Y0280108D02*
X0088938Y0280108D01*
X0088938Y0281707D02*
X0147838Y0281707D01*
X0147838Y0283305D02*
X0088938Y0283305D01*
X0088938Y0284904D02*
X0149202Y0284904D01*
X0154874Y0284904D02*
X0159202Y0284904D01*
X0157838Y0283305D02*
X0156238Y0283305D01*
X0156238Y0281707D02*
X0157838Y0281707D01*
X0157838Y0280108D02*
X0156238Y0280108D01*
X0154687Y0278510D02*
X0158561Y0278510D01*
X0166238Y0280108D02*
X0167238Y0280108D01*
X0167238Y0279812D02*
X0170050Y0277000D01*
X0171938Y0277000D01*
X0171938Y0281700D01*
X0172138Y0281700D01*
X0172138Y0281900D01*
X0176838Y0281900D01*
X0176838Y0283788D01*
X0174026Y0286600D01*
X0172138Y0286600D01*
X0172138Y0281900D01*
X0171938Y0281900D01*
X0171938Y0286600D01*
X0170050Y0286600D01*
X0167238Y0283788D01*
X0167238Y0281900D01*
X0171938Y0281900D01*
X0171938Y0281700D01*
X0167238Y0281700D01*
X0167238Y0279812D01*
X0168015Y0278510D02*
X0168540Y0278510D01*
X0168938Y0276911D02*
X0174462Y0276911D01*
X0174026Y0277000D02*
X0176838Y0279812D01*
X0176838Y0281700D01*
X0172138Y0281700D01*
X0172138Y0277000D01*
X0174026Y0277000D01*
X0175536Y0278510D02*
X0176061Y0278510D01*
X0176838Y0280108D02*
X0177838Y0280108D01*
X0177838Y0281707D02*
X0172138Y0281707D01*
X0171938Y0281707D02*
X0166238Y0281707D01*
X0166238Y0283305D02*
X0167238Y0283305D01*
X0168353Y0284904D02*
X0164874Y0284904D01*
X0169952Y0286502D02*
X0088938Y0286502D01*
X0088938Y0288101D02*
X0188152Y0288101D01*
X0189750Y0289699D02*
X0088938Y0289699D01*
X0088938Y0291298D02*
X0191349Y0291298D01*
X0186553Y0286502D02*
X0174124Y0286502D01*
X0172138Y0286502D02*
X0171938Y0286502D01*
X0171938Y0284904D02*
X0172138Y0284904D01*
X0172138Y0283305D02*
X0171938Y0283305D01*
X0171938Y0280108D02*
X0172138Y0280108D01*
X0172138Y0278510D02*
X0171938Y0278510D01*
X0169611Y0275313D02*
X0168938Y0275313D01*
X0176838Y0283305D02*
X0177838Y0283305D01*
X0179202Y0284904D02*
X0175722Y0284904D01*
X0184874Y0284904D02*
X0185138Y0284904D01*
X0253938Y0286502D02*
X0315138Y0286502D01*
X0315138Y0284904D02*
X0314874Y0284904D01*
X0315138Y0288101D02*
X0253938Y0288101D01*
X0253938Y0289699D02*
X0315138Y0289699D01*
X0309202Y0284904D02*
X0304874Y0284904D01*
X0303777Y0286000D02*
X0300298Y0286000D01*
X0297838Y0283540D01*
X0297838Y0280060D01*
X0300298Y0277600D01*
X0303777Y0277600D01*
X0306238Y0280060D01*
X0306238Y0283540D01*
X0303777Y0286000D01*
X0306238Y0283305D02*
X0307838Y0283305D01*
X0307838Y0281707D02*
X0306238Y0281707D01*
X0306238Y0280108D02*
X0307838Y0280108D01*
X0309388Y0278510D02*
X0304687Y0278510D01*
X0304465Y0275313D02*
X0309611Y0275313D01*
X0308012Y0273714D02*
X0306063Y0273714D01*
X0306238Y0272116D02*
X0307838Y0272116D01*
X0307838Y0270517D02*
X0306238Y0270517D01*
X0305096Y0268919D02*
X0308979Y0268919D01*
X0314465Y0275313D02*
X0315138Y0275313D01*
X0315138Y0276911D02*
X0297114Y0276911D01*
X0298712Y0275313D02*
X0299611Y0275313D01*
X0299388Y0278510D02*
X0295515Y0278510D01*
X0296238Y0280108D02*
X0297838Y0280108D01*
X0297838Y0281707D02*
X0296238Y0281707D01*
X0296238Y0283305D02*
X0297838Y0283305D01*
X0299202Y0284904D02*
X0294874Y0284904D01*
X0289202Y0284904D02*
X0284874Y0284904D01*
X0286238Y0283305D02*
X0287838Y0283305D01*
X0287838Y0281707D02*
X0286238Y0281707D01*
X0286238Y0280108D02*
X0287838Y0280108D01*
X0279202Y0284904D02*
X0274874Y0284904D01*
X0276238Y0283305D02*
X0277838Y0283305D01*
X0277838Y0281707D02*
X0276238Y0281707D01*
X0276238Y0280108D02*
X0277838Y0280108D01*
X0269202Y0284904D02*
X0264874Y0284904D01*
X0266238Y0283305D02*
X0267838Y0283305D01*
X0267838Y0281707D02*
X0266238Y0281707D01*
X0266238Y0280108D02*
X0267838Y0280108D01*
X0259202Y0284904D02*
X0254874Y0284904D01*
X0256238Y0283305D02*
X0257838Y0283305D01*
X0257838Y0281707D02*
X0256238Y0281707D01*
X0256238Y0280108D02*
X0257838Y0280108D01*
X0275660Y0237400D02*
X0277751Y0237400D01*
X0277404Y0236719D01*
X0277161Y0235971D01*
X0277038Y0235194D01*
X0277038Y0232000D01*
X0281838Y0232000D01*
X0281838Y0231600D01*
X0282238Y0231600D01*
X0282238Y0232000D01*
X0287038Y0232000D01*
X0287038Y0235194D01*
X0286915Y0235971D01*
X0286671Y0236719D01*
X0286325Y0237400D01*
X0288415Y0237400D01*
X0288308Y0237292D01*
X0287638Y0235675D01*
X0287638Y0200087D01*
X0279823Y0192272D01*
X0279304Y0192791D01*
X0277833Y0193400D01*
X0276242Y0193400D01*
X0274772Y0192791D01*
X0273938Y0191957D01*
X0273938Y0224824D01*
X0274530Y0225070D01*
X0275768Y0226308D01*
X0276438Y0227925D01*
X0276438Y0235675D01*
X0275768Y0237292D01*
X0275660Y0237400D01*
X0275910Y0236948D02*
X0277521Y0236948D01*
X0277063Y0235350D02*
X0276438Y0235350D01*
X0276438Y0233751D02*
X0277038Y0233751D01*
X0277038Y0232153D02*
X0276438Y0232153D01*
X0277038Y0231600D02*
X0277038Y0228406D01*
X0277161Y0227629D01*
X0277404Y0226881D01*
X0277761Y0226179D01*
X0278224Y0225543D01*
X0278781Y0224986D01*
X0279417Y0224524D01*
X0280118Y0224166D01*
X0280867Y0223923D01*
X0281644Y0223800D01*
X0281838Y0223800D01*
X0281838Y0231600D01*
X0277038Y0231600D01*
X0277038Y0230554D02*
X0276438Y0230554D01*
X0276438Y0228956D02*
X0277038Y0228956D01*
X0277249Y0227357D02*
X0276203Y0227357D01*
X0275219Y0225759D02*
X0278067Y0225759D01*
X0280137Y0224160D02*
X0273938Y0224160D01*
X0273938Y0222562D02*
X0287638Y0222562D01*
X0287638Y0224160D02*
X0283939Y0224160D01*
X0283957Y0224166D02*
X0284658Y0224524D01*
X0285295Y0224986D01*
X0285852Y0225543D01*
X0286314Y0226179D01*
X0286671Y0226881D01*
X0286915Y0227629D01*
X0287038Y0228406D01*
X0287038Y0231600D01*
X0282238Y0231600D01*
X0282238Y0223800D01*
X0282431Y0223800D01*
X0283209Y0223923D01*
X0283957Y0224166D01*
X0282238Y0224160D02*
X0281838Y0224160D01*
X0281838Y0225759D02*
X0282238Y0225759D01*
X0282238Y0227357D02*
X0281838Y0227357D01*
X0281838Y0228956D02*
X0282238Y0228956D01*
X0282238Y0230554D02*
X0281838Y0230554D01*
X0287038Y0230554D02*
X0287638Y0230554D01*
X0287638Y0228956D02*
X0287038Y0228956D01*
X0286826Y0227357D02*
X0287638Y0227357D01*
X0287638Y0225759D02*
X0286009Y0225759D01*
X0287638Y0220963D02*
X0273938Y0220963D01*
X0273938Y0219365D02*
X0287638Y0219365D01*
X0287638Y0217766D02*
X0273938Y0217766D01*
X0273938Y0216168D02*
X0287638Y0216168D01*
X0287638Y0214569D02*
X0273938Y0214569D01*
X0273938Y0212971D02*
X0287638Y0212971D01*
X0287638Y0211372D02*
X0273938Y0211372D01*
X0273938Y0209774D02*
X0287638Y0209774D01*
X0287638Y0208175D02*
X0273938Y0208175D01*
X0273938Y0206577D02*
X0287638Y0206577D01*
X0287638Y0204978D02*
X0273938Y0204978D01*
X0273938Y0203380D02*
X0287638Y0203380D01*
X0287638Y0201781D02*
X0273938Y0201781D01*
X0273938Y0200183D02*
X0287638Y0200183D01*
X0286135Y0198584D02*
X0273938Y0198584D01*
X0273938Y0196986D02*
X0284536Y0196986D01*
X0282938Y0195387D02*
X0273938Y0195387D01*
X0273938Y0193789D02*
X0281339Y0193789D01*
X0274171Y0192190D02*
X0273938Y0192190D01*
X0273938Y0181001D02*
X0274580Y0181001D01*
X0273938Y0179402D02*
X0281749Y0179402D01*
X0283347Y0177803D02*
X0273938Y0177803D01*
X0273938Y0176205D02*
X0284946Y0176205D01*
X0286544Y0174606D02*
X0273938Y0174606D01*
X0273938Y0173008D02*
X0288143Y0173008D01*
X0289741Y0171409D02*
X0273938Y0171409D01*
X0273938Y0169811D02*
X0290138Y0169811D01*
X0290138Y0168212D02*
X0273938Y0168212D01*
X0273938Y0166614D02*
X0290138Y0166614D01*
X0290138Y0165015D02*
X0272940Y0165015D01*
X0273278Y0160220D02*
X0238938Y0160220D01*
X0238938Y0161818D02*
X0283799Y0161818D01*
X0283048Y0160220D02*
X0280798Y0160220D01*
X0281038Y0158621D02*
X0283038Y0158621D01*
X0283038Y0157023D02*
X0281038Y0157023D01*
X0281038Y0155424D02*
X0283038Y0155424D01*
X0283038Y0153826D02*
X0281038Y0153826D01*
X0283525Y0152227D02*
X0211438Y0152227D01*
X0211438Y0150629D02*
X0285207Y0150629D01*
X0273038Y0153826D02*
X0211438Y0153826D01*
X0211438Y0155424D02*
X0235726Y0155424D01*
X0235138Y0157023D02*
X0211438Y0157023D01*
X0211438Y0158621D02*
X0235138Y0158621D01*
X0235138Y0160220D02*
X0211438Y0160220D01*
X0211438Y0161818D02*
X0235138Y0161818D01*
X0235138Y0163417D02*
X0211438Y0163417D01*
X0211438Y0165015D02*
X0235138Y0165015D01*
X0235138Y0166614D02*
X0211438Y0166614D01*
X0211438Y0168212D02*
X0215438Y0168212D01*
X0215138Y0168513D02*
X0215138Y0168513D01*
X0213840Y0169811D02*
X0211438Y0169811D01*
X0211438Y0171409D02*
X0212241Y0171409D01*
X0207638Y0171409D02*
X0198938Y0171409D01*
X0198938Y0169811D02*
X0207638Y0169811D01*
X0207638Y0168212D02*
X0198938Y0168212D01*
X0198938Y0166614D02*
X0207638Y0166614D01*
X0207638Y0165015D02*
X0198938Y0165015D01*
X0198938Y0163417D02*
X0207638Y0163417D01*
X0207638Y0161818D02*
X0198938Y0161818D01*
X0198938Y0160220D02*
X0207638Y0160220D01*
X0207638Y0158621D02*
X0198938Y0158621D01*
X0198938Y0157023D02*
X0207638Y0157023D01*
X0207638Y0155424D02*
X0198938Y0155424D01*
X0198938Y0153826D02*
X0207638Y0153826D01*
X0207638Y0152227D02*
X0198938Y0152227D01*
X0198938Y0150629D02*
X0207638Y0150629D01*
X0207638Y0149030D02*
X0198938Y0149030D01*
X0198938Y0147432D02*
X0207638Y0147432D01*
X0207638Y0145833D02*
X0198938Y0145833D01*
X0198938Y0144235D02*
X0207638Y0144235D01*
X0211438Y0139439D02*
X0214020Y0139439D01*
X0213038Y0137841D02*
X0211438Y0137841D01*
X0211438Y0136242D02*
X0213038Y0136242D01*
X0213537Y0134644D02*
X0211438Y0134644D01*
X0211438Y0133045D02*
X0215136Y0133045D01*
X0218940Y0133045D02*
X0284094Y0133045D01*
X0283838Y0134644D02*
X0220538Y0134644D01*
X0221038Y0136242D02*
X0284455Y0136242D01*
X0285564Y0131447D02*
X0211438Y0131447D01*
X0189263Y0142636D02*
X0188938Y0142636D01*
X0165138Y0161818D02*
X0151582Y0161818D01*
X0152636Y0163417D02*
X0165138Y0163417D01*
X0165138Y0165015D02*
X0152705Y0165015D01*
X0151749Y0166614D02*
X0165138Y0166614D01*
X0165138Y0168212D02*
X0148312Y0168212D01*
X0146714Y0169811D02*
X0165138Y0169811D01*
X0165138Y0171409D02*
X0145115Y0171409D01*
X0143517Y0173008D02*
X0165138Y0173008D01*
X0165138Y0174606D02*
X0141918Y0174606D01*
X0144700Y0176205D02*
X0149376Y0176205D01*
X0149772Y0175809D02*
X0148647Y0176934D01*
X0148038Y0178404D01*
X0148038Y0185196D01*
X0148647Y0186666D01*
X0149772Y0187791D01*
X0151242Y0188400D01*
X0152833Y0188400D01*
X0154304Y0187791D01*
X0155429Y0186666D01*
X0156038Y0185196D01*
X0156038Y0178404D01*
X0155429Y0176934D01*
X0154304Y0175809D01*
X0152833Y0175200D01*
X0151242Y0175200D01*
X0149772Y0175809D01*
X0148287Y0177803D02*
X0145789Y0177803D01*
X0146038Y0179402D02*
X0148038Y0179402D01*
X0148038Y0181001D02*
X0146038Y0181001D01*
X0146038Y0182599D02*
X0148038Y0182599D01*
X0148038Y0184198D02*
X0146038Y0184198D01*
X0145789Y0185796D02*
X0148286Y0185796D01*
X0149376Y0187395D02*
X0144700Y0187395D01*
X0154700Y0187395D02*
X0159376Y0187395D01*
X0158286Y0185796D02*
X0155789Y0185796D01*
X0156038Y0184198D02*
X0158038Y0184198D01*
X0158038Y0182599D02*
X0156038Y0182599D01*
X0156038Y0181001D02*
X0158038Y0181001D01*
X0158038Y0179402D02*
X0156038Y0179402D01*
X0155789Y0177803D02*
X0158287Y0177803D01*
X0159376Y0176205D02*
X0154700Y0176205D01*
X0164700Y0176205D02*
X0165138Y0176205D01*
X0168938Y0176205D02*
X0169376Y0176205D01*
X0184700Y0176205D02*
X0184946Y0176205D01*
X0198938Y0174606D02*
X0201635Y0174606D01*
X0202038Y0174606D02*
X0202038Y0174606D01*
X0202038Y0174600D02*
X0202038Y0181800D01*
X0202038Y0181800D01*
X0202038Y0189000D01*
X0202400Y0189000D01*
X0203115Y0188887D01*
X0203804Y0188663D01*
X0204449Y0188334D01*
X0205034Y0187909D01*
X0205138Y0187805D01*
X0205138Y0206643D01*
X0204304Y0205809D01*
X0202833Y0205200D01*
X0201242Y0205200D01*
X0199772Y0205809D01*
X0198938Y0206643D01*
X0198938Y0187805D01*
X0199041Y0187909D01*
X0199627Y0188334D01*
X0200272Y0188663D01*
X0200961Y0188887D01*
X0201676Y0189000D01*
X0202038Y0189000D01*
X0202038Y0181800D01*
X0202038Y0181800D01*
X0202038Y0174600D01*
X0202441Y0174606D02*
X0207638Y0174606D01*
X0207638Y0173008D02*
X0198938Y0173008D01*
X0202038Y0176205D02*
X0202038Y0176205D01*
X0202038Y0177803D02*
X0202038Y0177803D01*
X0202038Y0179402D02*
X0202038Y0179402D01*
X0202038Y0181001D02*
X0202038Y0181001D01*
X0202038Y0182599D02*
X0202038Y0182599D01*
X0202038Y0184198D02*
X0202038Y0184198D01*
X0202038Y0185796D02*
X0202038Y0185796D01*
X0202038Y0187395D02*
X0202038Y0187395D01*
X0202038Y0188993D02*
X0202038Y0188993D01*
X0202443Y0188993D02*
X0205138Y0188993D01*
X0205138Y0190592D02*
X0198938Y0190592D01*
X0198938Y0192190D02*
X0205138Y0192190D01*
X0205138Y0193789D02*
X0198938Y0193789D01*
X0198938Y0195387D02*
X0205138Y0195387D01*
X0205138Y0196986D02*
X0198938Y0196986D01*
X0198938Y0198584D02*
X0205138Y0198584D01*
X0205138Y0200183D02*
X0198938Y0200183D01*
X0198938Y0201781D02*
X0205138Y0201781D01*
X0205138Y0203380D02*
X0198938Y0203380D01*
X0198938Y0204978D02*
X0205138Y0204978D01*
X0205138Y0206577D02*
X0205071Y0206577D01*
X0199004Y0206577D02*
X0198938Y0206577D01*
X0198938Y0188993D02*
X0201632Y0188993D01*
X0205548Y0176205D02*
X0207446Y0176205D01*
X0233938Y0176205D02*
X0235138Y0176205D01*
X0235138Y0177803D02*
X0233938Y0177803D01*
X0233938Y0179402D02*
X0235138Y0179402D01*
X0235138Y0181001D02*
X0233938Y0181001D01*
X0233938Y0182599D02*
X0235138Y0182599D01*
X0235138Y0184198D02*
X0233938Y0184198D01*
X0233938Y0185796D02*
X0235138Y0185796D01*
X0235138Y0187395D02*
X0233938Y0187395D01*
X0233938Y0188993D02*
X0235138Y0188993D01*
X0235138Y0190592D02*
X0233938Y0190592D01*
X0233938Y0192190D02*
X0235138Y0192190D01*
X0235138Y0193789D02*
X0233938Y0193789D01*
X0233938Y0195387D02*
X0235138Y0195387D01*
X0235138Y0196986D02*
X0233938Y0196986D01*
X0233938Y0198584D02*
X0235138Y0198584D01*
X0235138Y0200183D02*
X0233938Y0200183D01*
X0233938Y0201781D02*
X0235138Y0201781D01*
X0235138Y0203380D02*
X0233938Y0203380D01*
X0233938Y0204978D02*
X0235138Y0204978D01*
X0235138Y0206577D02*
X0233938Y0206577D01*
X0233938Y0208175D02*
X0235138Y0208175D01*
X0235138Y0209774D02*
X0233938Y0209774D01*
X0233938Y0211372D02*
X0235138Y0211372D01*
X0235138Y0212971D02*
X0233938Y0212971D01*
X0233938Y0214569D02*
X0235138Y0214569D01*
X0235138Y0216168D02*
X0233938Y0216168D01*
X0233938Y0217766D02*
X0235138Y0217766D01*
X0235138Y0219365D02*
X0233938Y0219365D01*
X0233938Y0220963D02*
X0235138Y0220963D01*
X0235138Y0222562D02*
X0233938Y0222562D01*
X0233938Y0224160D02*
X0235138Y0224160D01*
X0238938Y0196986D02*
X0239827Y0196986D01*
X0238938Y0195387D02*
X0245138Y0195387D01*
X0245138Y0193789D02*
X0238938Y0193789D01*
X0238938Y0192190D02*
X0245138Y0192190D01*
X0245138Y0190592D02*
X0238938Y0190592D01*
X0238938Y0188993D02*
X0245138Y0188993D01*
X0245138Y0187395D02*
X0238938Y0187395D01*
X0238938Y0185796D02*
X0245138Y0185796D01*
X0245138Y0184198D02*
X0238938Y0184198D01*
X0238938Y0182599D02*
X0245138Y0182599D01*
X0245150Y0181001D02*
X0238938Y0181001D01*
X0238938Y0179402D02*
X0246749Y0179402D01*
X0248347Y0177803D02*
X0238938Y0177803D01*
X0238938Y0176205D02*
X0249946Y0176205D01*
X0251544Y0174606D02*
X0238938Y0174606D01*
X0238938Y0173008D02*
X0253143Y0173008D01*
X0254741Y0171409D02*
X0238938Y0171409D01*
X0238938Y0169811D02*
X0256340Y0169811D01*
X0257938Y0168212D02*
X0238938Y0168212D01*
X0238938Y0166614D02*
X0259537Y0166614D01*
X0260138Y0166013D02*
X0260138Y0166013D01*
X0261135Y0165015D02*
X0238938Y0165015D01*
X0238938Y0163417D02*
X0290138Y0163417D01*
X0290847Y0177803D02*
X0288721Y0177803D01*
X0290138Y0179402D02*
X0287123Y0179402D01*
X0289495Y0181001D02*
X0290138Y0181001D01*
X0280150Y0181001D02*
X0279495Y0181001D01*
X0245138Y0196986D02*
X0244249Y0196986D01*
X0235138Y0174606D02*
X0233938Y0174606D01*
X0233938Y0173008D02*
X0235138Y0173008D01*
X0235138Y0171409D02*
X0233938Y0171409D01*
X0233938Y0169811D02*
X0235138Y0169811D01*
X0235138Y0168212D02*
X0233637Y0168212D01*
X0153288Y0153826D02*
X0151025Y0153826D01*
X0151509Y0152227D02*
X0152760Y0152227D01*
X0152934Y0150629D02*
X0151367Y0150629D01*
X0150543Y0149030D02*
X0153965Y0149030D01*
X0129376Y0176205D02*
X0128938Y0176205D01*
X0060138Y0176205D02*
X0059842Y0176205D01*
X0060138Y0176500D02*
X0060138Y0172946D01*
X0059539Y0173381D01*
X0058869Y0173722D01*
X0058155Y0173954D01*
X0057413Y0174072D01*
X0057124Y0174072D01*
X0057124Y0169386D01*
X0056952Y0169386D01*
X0056952Y0174072D01*
X0056662Y0174072D01*
X0055920Y0173954D01*
X0055206Y0173722D01*
X0054537Y0173381D01*
X0053929Y0172940D01*
X0053398Y0172409D01*
X0052957Y0171801D01*
X0052616Y0171132D01*
X0052384Y0170417D01*
X0052266Y0169676D01*
X0052266Y0169386D01*
X0056952Y0169386D01*
X0056952Y0169214D01*
X0052266Y0169214D01*
X0052266Y0168924D01*
X0052384Y0168183D01*
X0052616Y0167468D01*
X0052957Y0166799D01*
X0053392Y0166200D01*
X0046438Y0166200D01*
X0046438Y0230922D01*
X0046825Y0229987D01*
X0047725Y0229087D01*
X0048901Y0228600D01*
X0050174Y0228600D01*
X0051350Y0229087D01*
X0052251Y0229987D01*
X0052738Y0231163D01*
X0052738Y0232437D01*
X0052251Y0233613D01*
X0051438Y0234425D01*
X0051438Y0271013D01*
X0055745Y0275320D01*
X0056208Y0275128D01*
X0057868Y0275128D01*
X0059401Y0275763D01*
X0060138Y0276500D01*
X0060138Y0272946D01*
X0059539Y0273381D01*
X0058869Y0273722D01*
X0058155Y0273954D01*
X0057413Y0274072D01*
X0057124Y0274072D01*
X0057124Y0269386D01*
X0056952Y0269386D01*
X0056952Y0274072D01*
X0056662Y0274072D01*
X0055920Y0273954D01*
X0055206Y0273722D01*
X0054537Y0273381D01*
X0053929Y0272940D01*
X0053398Y0272409D01*
X0052957Y0271801D01*
X0052616Y0271132D01*
X0052384Y0270417D01*
X0052266Y0269676D01*
X0052266Y0269386D01*
X0056952Y0269386D01*
X0056952Y0269214D01*
X0057124Y0269214D01*
X0057124Y0264528D01*
X0057413Y0264528D01*
X0058155Y0264646D01*
X0058869Y0264878D01*
X0059539Y0265219D01*
X0060146Y0265660D01*
X0060677Y0266191D01*
X0061119Y0266799D01*
X0061366Y0267285D01*
X0063058Y0265593D01*
X0062866Y0265130D01*
X0062866Y0263470D01*
X0063501Y0261937D01*
X0064675Y0260763D01*
X0066208Y0260128D01*
X0067868Y0260128D01*
X0069401Y0260763D01*
X0070574Y0261937D01*
X0071209Y0263470D01*
X0071209Y0265130D01*
X0070574Y0266663D01*
X0069401Y0267837D01*
X0067868Y0268472D01*
X0066208Y0268472D01*
X0065745Y0268280D01*
X0063938Y0270087D01*
X0063938Y0271500D01*
X0064675Y0270763D01*
X0066208Y0270128D01*
X0067868Y0270128D01*
X0068331Y0270320D01*
X0072638Y0266013D01*
X0072638Y0241387D01*
X0071018Y0243007D01*
X0071209Y0243470D01*
X0071209Y0245130D01*
X0070574Y0246663D01*
X0069401Y0247837D01*
X0067868Y0248472D01*
X0066208Y0248472D01*
X0064675Y0247837D01*
X0063938Y0247100D01*
X0063938Y0251500D01*
X0064675Y0250763D01*
X0066208Y0250128D01*
X0067868Y0250128D01*
X0069401Y0250763D01*
X0070574Y0251937D01*
X0071209Y0253470D01*
X0071209Y0255130D01*
X0070574Y0256663D01*
X0069401Y0257837D01*
X0067868Y0258472D01*
X0066208Y0258472D01*
X0064675Y0257837D01*
X0063501Y0256663D01*
X0063167Y0255857D01*
X0061018Y0258007D01*
X0061209Y0258470D01*
X0061209Y0260130D01*
X0060574Y0261663D01*
X0059401Y0262837D01*
X0057868Y0263472D01*
X0056208Y0263472D01*
X0054675Y0262837D01*
X0053501Y0261663D01*
X0052866Y0260130D01*
X0052866Y0258470D01*
X0053501Y0256937D01*
X0054675Y0255763D01*
X0056208Y0255128D01*
X0057868Y0255128D01*
X0058331Y0255320D01*
X0060138Y0253513D01*
X0060138Y0252946D01*
X0059539Y0253381D01*
X0058869Y0253722D01*
X0058155Y0253954D01*
X0057413Y0254072D01*
X0057124Y0254072D01*
X0057124Y0249386D01*
X0056952Y0249386D01*
X0056952Y0254072D01*
X0056662Y0254072D01*
X0055920Y0253954D01*
X0055206Y0253722D01*
X0054537Y0253381D01*
X0053929Y0252940D01*
X0053398Y0252409D01*
X0052957Y0251801D01*
X0052616Y0251132D01*
X0052384Y0250417D01*
X0052266Y0249676D01*
X0052266Y0249386D01*
X0056952Y0249386D01*
X0056952Y0249214D01*
X0057124Y0249214D01*
X0057124Y0244528D01*
X0057413Y0244528D01*
X0058155Y0244646D01*
X0058869Y0244878D01*
X0059539Y0245219D01*
X0060138Y0245654D01*
X0060138Y0202100D01*
X0059401Y0202837D01*
X0057868Y0203472D01*
X0056208Y0203472D01*
X0054675Y0202837D01*
X0053501Y0201663D01*
X0052866Y0200130D01*
X0052866Y0198470D01*
X0053501Y0196937D01*
X0054675Y0195763D01*
X0056208Y0195128D01*
X0057868Y0195128D01*
X0059401Y0195763D01*
X0060138Y0196500D01*
X0060138Y0192946D01*
X0059539Y0193381D01*
X0058869Y0193722D01*
X0058155Y0193954D01*
X0057413Y0194072D01*
X0057124Y0194072D01*
X0057124Y0189386D01*
X0056952Y0189386D01*
X0056952Y0194072D01*
X0056662Y0194072D01*
X0055920Y0193954D01*
X0055206Y0193722D01*
X0054537Y0193381D01*
X0053929Y0192940D01*
X0053398Y0192409D01*
X0052957Y0191801D01*
X0052616Y0191132D01*
X0052384Y0190417D01*
X0052266Y0189676D01*
X0052266Y0189386D01*
X0056952Y0189386D01*
X0056952Y0189214D01*
X0057124Y0189214D01*
X0057124Y0184528D01*
X0057413Y0184528D01*
X0058155Y0184646D01*
X0058869Y0184878D01*
X0059539Y0185219D01*
X0060138Y0185654D01*
X0060138Y0185087D01*
X0058331Y0183280D01*
X0057868Y0183472D01*
X0056208Y0183472D01*
X0054675Y0182837D01*
X0053501Y0181663D01*
X0052866Y0180130D01*
X0052866Y0178470D01*
X0053501Y0176937D01*
X0054675Y0175763D01*
X0056208Y0175128D01*
X0057868Y0175128D01*
X0059401Y0175763D01*
X0060138Y0176500D01*
X0060138Y0174606D02*
X0046438Y0174606D01*
X0046438Y0173008D02*
X0054023Y0173008D01*
X0052757Y0171409D02*
X0046438Y0171409D01*
X0046438Y0169811D02*
X0052288Y0169811D01*
X0052379Y0168212D02*
X0046438Y0168212D01*
X0046438Y0166614D02*
X0053091Y0166614D01*
X0056952Y0169811D02*
X0057124Y0169811D01*
X0057124Y0171409D02*
X0056952Y0171409D01*
X0056952Y0173008D02*
X0057124Y0173008D01*
X0060052Y0173008D02*
X0060138Y0173008D01*
X0054233Y0176205D02*
X0046438Y0176205D01*
X0046438Y0177803D02*
X0053142Y0177803D01*
X0052866Y0179402D02*
X0046438Y0179402D01*
X0046438Y0181001D02*
X0053227Y0181001D01*
X0054437Y0182599D02*
X0046438Y0182599D01*
X0046438Y0184198D02*
X0059248Y0184198D01*
X0056952Y0184528D02*
X0056952Y0189214D01*
X0052266Y0189214D01*
X0052266Y0188924D01*
X0052384Y0188183D01*
X0052616Y0187468D01*
X0052957Y0186799D01*
X0053398Y0186191D01*
X0053929Y0185660D01*
X0054537Y0185219D01*
X0055206Y0184878D01*
X0055920Y0184646D01*
X0056662Y0184528D01*
X0056952Y0184528D01*
X0056952Y0185796D02*
X0057124Y0185796D01*
X0057124Y0187395D02*
X0056952Y0187395D01*
X0056952Y0188993D02*
X0057124Y0188993D01*
X0057124Y0190592D02*
X0056952Y0190592D01*
X0056952Y0192190D02*
X0057124Y0192190D01*
X0057124Y0193789D02*
X0056952Y0193789D01*
X0055411Y0193789D02*
X0046438Y0193789D01*
X0046438Y0195387D02*
X0055583Y0195387D01*
X0053481Y0196986D02*
X0046438Y0196986D01*
X0046438Y0198584D02*
X0052866Y0198584D01*
X0052888Y0200183D02*
X0046438Y0200183D01*
X0046438Y0201781D02*
X0053619Y0201781D01*
X0055986Y0203380D02*
X0046438Y0203380D01*
X0046438Y0204978D02*
X0060138Y0204978D01*
X0060138Y0203380D02*
X0058090Y0203380D01*
X0060138Y0206577D02*
X0046438Y0206577D01*
X0046438Y0208175D02*
X0060138Y0208175D01*
X0060138Y0209774D02*
X0046438Y0209774D01*
X0046438Y0211372D02*
X0060138Y0211372D01*
X0060138Y0212971D02*
X0046438Y0212971D01*
X0046438Y0214569D02*
X0060138Y0214569D01*
X0060138Y0216168D02*
X0046438Y0216168D01*
X0046438Y0217766D02*
X0060138Y0217766D01*
X0060138Y0219365D02*
X0046438Y0219365D01*
X0046438Y0220963D02*
X0060138Y0220963D01*
X0060138Y0222562D02*
X0046438Y0222562D01*
X0046438Y0224160D02*
X0060138Y0224160D01*
X0060138Y0225759D02*
X0046438Y0225759D01*
X0046438Y0227357D02*
X0060138Y0227357D01*
X0060138Y0228956D02*
X0051033Y0228956D01*
X0052485Y0230554D02*
X0060138Y0230554D01*
X0060138Y0232153D02*
X0052738Y0232153D01*
X0052112Y0233751D02*
X0060138Y0233751D01*
X0060138Y0235350D02*
X0051438Y0235350D01*
X0051438Y0236948D02*
X0060138Y0236948D01*
X0060138Y0238547D02*
X0051438Y0238547D01*
X0051438Y0240145D02*
X0060138Y0240145D01*
X0060138Y0241744D02*
X0051438Y0241744D01*
X0051438Y0243342D02*
X0060138Y0243342D01*
X0060138Y0244941D02*
X0058993Y0244941D01*
X0057124Y0244941D02*
X0056952Y0244941D01*
X0056952Y0244528D02*
X0056952Y0249214D01*
X0052266Y0249214D01*
X0052266Y0248924D01*
X0052384Y0248183D01*
X0052616Y0247468D01*
X0052957Y0246799D01*
X0053398Y0246191D01*
X0053929Y0245660D01*
X0054537Y0245219D01*
X0055206Y0244878D01*
X0055920Y0244646D01*
X0056662Y0244528D01*
X0056952Y0244528D01*
X0055082Y0244941D02*
X0051438Y0244941D01*
X0051438Y0246539D02*
X0053145Y0246539D01*
X0052398Y0248138D02*
X0051438Y0248138D01*
X0051438Y0249737D02*
X0052276Y0249737D01*
X0052719Y0251335D02*
X0051438Y0251335D01*
X0051438Y0252934D02*
X0053923Y0252934D01*
X0051438Y0254532D02*
X0059119Y0254532D01*
X0057124Y0252934D02*
X0056952Y0252934D01*
X0056952Y0251335D02*
X0057124Y0251335D01*
X0057124Y0249737D02*
X0056952Y0249737D01*
X0056952Y0248138D02*
X0057124Y0248138D01*
X0057124Y0246539D02*
X0056952Y0246539D01*
X0063938Y0248138D02*
X0065402Y0248138D01*
X0063938Y0249737D02*
X0072638Y0249737D01*
X0072638Y0251335D02*
X0069972Y0251335D01*
X0070987Y0252934D02*
X0072638Y0252934D01*
X0072638Y0254532D02*
X0071209Y0254532D01*
X0070795Y0256131D02*
X0072638Y0256131D01*
X0072638Y0257729D02*
X0069508Y0257729D01*
X0069563Y0260926D02*
X0072638Y0260926D01*
X0072638Y0259328D02*
X0061209Y0259328D01*
X0061296Y0257729D02*
X0064567Y0257729D01*
X0063281Y0256131D02*
X0062894Y0256131D01*
X0063938Y0251335D02*
X0064103Y0251335D01*
X0068673Y0248138D02*
X0072638Y0248138D01*
X0072638Y0246539D02*
X0070626Y0246539D01*
X0071209Y0244941D02*
X0072638Y0244941D01*
X0072638Y0243342D02*
X0071157Y0243342D01*
X0072281Y0241744D02*
X0072638Y0241744D01*
X0054308Y0256131D02*
X0051438Y0256131D01*
X0051438Y0257729D02*
X0053173Y0257729D01*
X0052866Y0259328D02*
X0051438Y0259328D01*
X0051438Y0260926D02*
X0053196Y0260926D01*
X0054363Y0262525D02*
X0051438Y0262525D01*
X0051438Y0264123D02*
X0062866Y0264123D01*
X0062929Y0265722D02*
X0060208Y0265722D01*
X0057124Y0265722D02*
X0056952Y0265722D01*
X0056952Y0264528D02*
X0056952Y0269214D01*
X0052266Y0269214D01*
X0052266Y0268924D01*
X0052384Y0268183D01*
X0052616Y0267468D01*
X0052957Y0266799D01*
X0053398Y0266191D01*
X0053929Y0265660D01*
X0054537Y0265219D01*
X0055206Y0264878D01*
X0055920Y0264646D01*
X0056662Y0264528D01*
X0056952Y0264528D01*
X0056952Y0267320D02*
X0057124Y0267320D01*
X0057124Y0268919D02*
X0056952Y0268919D01*
X0056952Y0270517D02*
X0057124Y0270517D01*
X0057124Y0272116D02*
X0056952Y0272116D01*
X0056952Y0273714D02*
X0057124Y0273714D01*
X0058885Y0273714D02*
X0060138Y0273714D01*
X0060138Y0275313D02*
X0058313Y0275313D01*
X0055763Y0275313D02*
X0055737Y0275313D01*
X0055191Y0273714D02*
X0054139Y0273714D01*
X0053185Y0272116D02*
X0052540Y0272116D01*
X0052416Y0270517D02*
X0051438Y0270517D01*
X0051438Y0268919D02*
X0052267Y0268919D01*
X0052691Y0267320D02*
X0051438Y0267320D01*
X0051438Y0265722D02*
X0053868Y0265722D01*
X0059713Y0262525D02*
X0063258Y0262525D01*
X0064512Y0260926D02*
X0060880Y0260926D01*
X0069917Y0267320D02*
X0071331Y0267320D01*
X0070964Y0265722D02*
X0072638Y0265722D01*
X0072638Y0264123D02*
X0071209Y0264123D01*
X0070818Y0262525D02*
X0072638Y0262525D01*
X0069732Y0268919D02*
X0065106Y0268919D01*
X0065269Y0270517D02*
X0063938Y0270517D01*
X0046590Y0230554D02*
X0046438Y0230554D01*
X0046438Y0228956D02*
X0048042Y0228956D01*
X0058492Y0195387D02*
X0060138Y0195387D01*
X0060138Y0193789D02*
X0058665Y0193789D01*
X0053239Y0192190D02*
X0046438Y0192190D01*
X0046438Y0190592D02*
X0052440Y0190592D01*
X0052266Y0188993D02*
X0046438Y0188993D01*
X0046438Y0187395D02*
X0052653Y0187395D01*
X0053794Y0185796D02*
X0046438Y0185796D01*
X0088938Y0077097D02*
X0089078Y0077097D01*
X0104997Y0077097D02*
X0108312Y0077097D01*
X0107558Y0075499D02*
X0105912Y0075499D01*
X0106038Y0073900D02*
X0107438Y0073900D01*
X0107438Y0072302D02*
X0106038Y0072302D01*
X0106038Y0070703D02*
X0107438Y0070703D01*
X0107438Y0069105D02*
X0106038Y0069105D01*
X0105666Y0067506D02*
X0107751Y0067506D01*
X0108825Y0065908D02*
X0104402Y0065908D01*
X0099148Y0057915D02*
X0098938Y0057915D01*
X0098938Y0056317D02*
X0100878Y0056317D01*
X0126438Y0011558D02*
X0187038Y0011558D01*
X0187038Y0009960D02*
X0126438Y0009960D01*
X0126438Y0008361D02*
X0187045Y0008361D01*
X0187464Y0006763D02*
X0125956Y0006763D01*
X0124625Y0005164D02*
X0188602Y0005164D01*
X0195473Y0005164D02*
X0199451Y0005164D01*
X0198119Y0006763D02*
X0196611Y0006763D01*
X0197031Y0008361D02*
X0197638Y0008361D01*
X0197638Y0009960D02*
X0197038Y0009960D01*
X0197038Y0011558D02*
X0197638Y0011558D01*
X0197638Y0013157D02*
X0197038Y0013157D01*
X0197038Y0014755D02*
X0197638Y0014755D01*
X0197919Y0016354D02*
X0196790Y0016354D01*
X0195928Y0017952D02*
X0198968Y0017952D01*
X0205108Y0017952D02*
X0205503Y0017952D01*
X0192238Y0017952D02*
X0191838Y0017952D01*
X0191838Y0016354D02*
X0192238Y0016354D01*
X0192238Y0014755D02*
X0191838Y0014755D01*
X0191838Y0013157D02*
X0192238Y0013157D01*
X0245108Y0017952D02*
X0248148Y0017952D01*
X0247285Y0016354D02*
X0246157Y0016354D01*
X0246438Y0014755D02*
X0247038Y0014755D01*
X0247038Y0013157D02*
X0246438Y0013157D01*
X0246438Y0011558D02*
X0247038Y0011558D01*
X0247038Y0009960D02*
X0246438Y0009960D01*
X0246438Y0008361D02*
X0247045Y0008361D01*
X0247464Y0006763D02*
X0245956Y0006763D01*
X0251838Y0013157D02*
X0252238Y0013157D01*
X0252238Y0014755D02*
X0251838Y0014755D01*
X0251838Y0016354D02*
X0252238Y0016354D01*
X0252238Y0017952D02*
X0251838Y0017952D01*
X0255928Y0017952D02*
X0258968Y0017952D01*
X0257919Y0016354D02*
X0256790Y0016354D01*
X0257038Y0014755D02*
X0257638Y0014755D01*
X0257638Y0013157D02*
X0257038Y0013157D01*
X0257038Y0011558D02*
X0257638Y0011558D01*
X0257638Y0009960D02*
X0257038Y0009960D01*
X0257031Y0008361D02*
X0257638Y0008361D01*
X0258119Y0006763D02*
X0256611Y0006763D01*
X0267525Y0004600D02*
X0273938Y0011013D01*
X0273938Y0017400D01*
X0302751Y0017400D01*
X0302404Y0016719D01*
X0302161Y0015971D01*
X0302038Y0015194D01*
X0302038Y0012000D01*
X0306838Y0012000D01*
X0306838Y0011600D01*
X0302038Y0011600D01*
X0302038Y0008406D01*
X0302161Y0007629D01*
X0302404Y0006881D01*
X0302761Y0006179D01*
X0303224Y0005543D01*
X0303781Y0004986D01*
X0304312Y0004600D01*
X0267525Y0004600D01*
X0268089Y0005164D02*
X0303602Y0005164D01*
X0302464Y0006763D02*
X0269688Y0006763D01*
X0271286Y0008361D02*
X0302045Y0008361D01*
X0302038Y0009960D02*
X0272885Y0009960D01*
X0273938Y0011558D02*
X0302038Y0011558D01*
X0302038Y0013157D02*
X0273938Y0013157D01*
X0273938Y0014755D02*
X0302038Y0014755D01*
X0302285Y0016354D02*
X0273938Y0016354D01*
X0265503Y0017952D02*
X0265108Y0017952D01*
X0307238Y0012000D02*
X0307238Y0011600D01*
X0312038Y0011600D01*
X0312038Y0008406D01*
X0311915Y0007629D01*
X0311671Y0006881D01*
X0311314Y0006179D01*
X0310852Y0005543D01*
X0310295Y0004986D01*
X0309763Y0004600D01*
X0315680Y0004600D01*
X0314545Y0005070D01*
X0313308Y0006308D01*
X0312638Y0007925D01*
X0312638Y0015675D01*
X0313308Y0017292D01*
X0313415Y0017400D01*
X0311325Y0017400D01*
X0311671Y0016719D01*
X0311915Y0015971D01*
X0312038Y0015194D01*
X0312038Y0012000D01*
X0307238Y0012000D01*
X0312038Y0011558D02*
X0312638Y0011558D01*
X0312638Y0009960D02*
X0312038Y0009960D01*
X0312031Y0008361D02*
X0312638Y0008361D01*
X0313119Y0006763D02*
X0311611Y0006763D01*
X0310473Y0005164D02*
X0314451Y0005164D01*
X0319625Y0005164D02*
X0362939Y0005164D01*
X0362939Y0006763D02*
X0320956Y0006763D01*
X0321438Y0008361D02*
X0362939Y0008361D01*
X0312638Y0013157D02*
X0312038Y0013157D01*
X0312038Y0014755D02*
X0312638Y0014755D01*
X0312919Y0016354D02*
X0311790Y0016354D01*
X0331438Y0077097D02*
X0340860Y0077097D01*
X0337149Y0078696D02*
X0331438Y0078696D01*
X0331438Y0080294D02*
X0334912Y0080294D01*
X0335130Y0080015D02*
X0335130Y0080015D01*
X0333668Y0081893D02*
X0331438Y0081893D01*
X0331438Y0083491D02*
X0332433Y0083491D01*
X0331885Y0085090D02*
X0331438Y0085090D01*
X0354633Y0097969D02*
X0354633Y0097969D01*
X0362939Y0210122D02*
X0362530Y0210530D01*
X0360913Y0211200D01*
X0353163Y0211200D01*
X0351545Y0210530D01*
X0351438Y0210423D01*
X0351438Y0212513D01*
X0352118Y0212166D01*
X0352867Y0211923D01*
X0353644Y0211800D01*
X0356838Y0211800D01*
X0356838Y0216600D01*
X0357238Y0216600D01*
X0357238Y0211800D01*
X0360431Y0211800D01*
X0361209Y0211923D01*
X0361957Y0212166D01*
X0362658Y0212524D01*
X0362939Y0212727D01*
X0362939Y0210122D01*
X0362939Y0211372D02*
X0351438Y0211372D01*
X0356838Y0212971D02*
X0357238Y0212971D01*
X0357238Y0214569D02*
X0356838Y0214569D01*
X0356838Y0216168D02*
X0357238Y0216168D01*
X0357238Y0217000D02*
X0356838Y0217000D01*
X0356838Y0221800D01*
X0353644Y0221800D01*
X0352867Y0221677D01*
X0352118Y0221434D01*
X0351438Y0221087D01*
X0351438Y0223177D01*
X0351545Y0223070D01*
X0353163Y0222400D01*
X0360913Y0222400D01*
X0362530Y0223070D01*
X0362939Y0223478D01*
X0362939Y0220873D01*
X0362658Y0221076D01*
X0361957Y0221434D01*
X0361209Y0221677D01*
X0360431Y0221800D01*
X0357238Y0221800D01*
X0357238Y0217000D01*
X0357238Y0217766D02*
X0356838Y0217766D01*
X0356838Y0219365D02*
X0357238Y0219365D01*
X0357238Y0220963D02*
X0356838Y0220963D01*
X0352772Y0222562D02*
X0351438Y0222562D01*
X0361304Y0222562D02*
X0362939Y0222562D01*
X0362939Y0220963D02*
X0362814Y0220963D01*
X0287638Y0232153D02*
X0287038Y0232153D01*
X0287038Y0233751D02*
X0287638Y0233751D01*
X0287638Y0235350D02*
X0287013Y0235350D01*
X0286555Y0236948D02*
X0288165Y0236948D01*
X0314687Y0278510D02*
X0315138Y0278510D01*
M02*
