<?xml version="1.0" encoding="iso-8859-1"?>
<!-- Generator: Adobe Illustrator 21.0.2, SVG Export Plug-In . SVG Version: 6.00 Build 0)  -->
<svg xmlns="http://www.w3.org/2000/svg" xmlns:xlink="http://www.w3.org/1999/xlink" version="1.1" id="Layer_1" x="0px" y="0px" viewBox="0 0 40 40" style="enable-background:new 0 0 40 40;" xml:space="preserve">
<g>
	<rect x="1.5" y="33.5" style="fill:#98CCFD;" width="18" height="3"/>
	<g>
		<path style="fill:#4788C7;" d="M19,34v2H2v-2H19 M20,33H1v4h19V33L20,33z"/>
	</g>
</g>
<g>
	<rect x="1.5" y="27.5" style="fill:#98CCFD;" width="22" height="3"/>
	<g>
		<path style="fill:#4788C7;" d="M23,28v2H2v-2H23 M24,27H1v4h23V27L24,27z"/>
	</g>
</g>
<g>
	<rect x="1.5" y="21.5" style="fill:#98CCFD;" width="26" height="3"/>
	<g>
		<path style="fill:#4788C7;" d="M27,22v2H2v-2H27 M28,21H1v4h27V21L28,21z"/>
	</g>
</g>
<g>
	<rect x="1.5" y="15.5" style="fill:#98CCFD;" width="31" height="3"/>
	<g>
		<path style="fill:#4788C7;" d="M32,16v2H2v-2H32 M33,15H1v4h32V15L33,15z"/>
	</g>
</g>
<g>
	<rect x="1.5" y="9.5" style="fill:#98CCFD;" width="35" height="3"/>
	<g>
		<path style="fill:#4788C7;" d="M36,10v2H2v-2H36 M37,9H1v4h36V9L37,9z"/>
	</g>
</g>
<g>
	<rect x="1.5" y="3.5" style="fill:#98CCFD;" width="37" height="3"/>
	<g>
		<path style="fill:#4788C7;" d="M38,4v2H2V4H38 M39,3H1v4h38V3L39,3z"/>
	</g>
</g>
<g>
	<rect x="2.5" y="1.5" style="fill:#DFF0FE;" width="3" height="37"/>
	<path style="fill:#4788C7;" d="M5,2v36H3V2H5 M6,1H2v38h4V1L6,1z"/>
</g>
<g>
	<rect x="12.5" y="1.5" style="fill:#DFF0FE;" width="3" height="37"/>
	<path style="fill:#4788C7;" d="M15,2v36h-2V2H15 M16,1h-4v38h4V1L16,1z"/>
</g>
<g>
	<path style="fill:#DFF0FE;" d="M2.506,38.5c0.22-10.128,7.096-17.285,13.174-23.611c4.564-4.751,8.529-8.878,8.805-13.389h3.005   c-0.259,5.771-4.95,10.695-9.909,15.899C11.753,23.516,5.73,29.837,5.507,38.5H2.506z"/>
	<path style="fill:#4788C7;" d="M26.953,2c-0.505,5.367-4.996,10.081-9.735,15.055C11.702,22.844,5.478,29.377,5.026,38H3.023   c0.434-9.667,7.107-16.613,13.018-22.764C20.519,10.574,24.429,6.504,24.943,2H26.953 M28,1c-1.833,0-2.833,0-4,0   C24,11.5,2,20.438,2,39c1.417,0,2.917,0,4,0C6,22.5,28,14.125,28,1L28,1z"/>
</g>
<g>
	<path style="fill:#DFF0FE;" d="M12.506,38.5c0.22-10.128,7.096-17.285,13.174-23.611c4.564-4.751,8.529-8.878,8.805-13.389h3.005   c-0.259,5.771-4.95,10.695-9.909,15.899C21.753,23.516,15.73,29.837,15.507,38.5H12.506z"/>
	<path style="fill:#4788C7;" d="M36.953,2c-0.505,5.367-4.996,10.081-9.735,15.055C21.702,22.844,15.478,29.377,15.026,38h-2.004   c0.434-9.667,7.107-16.613,13.018-22.764C30.519,10.574,34.429,6.504,34.943,2H36.953 M38,1c-1.833,0-2.833,0-4,0   c0,10.5-22,19.438-22,38c1.417,0,2.917,0,4,0C16,22.5,38,14.125,38,1L38,1z"/>
</g>
</svg>
